<?xml version="1.0" encoding="UTF-8"?>
<svg width="20px" height="19px" viewBox="0 0 20 19" version="1.1" xmlns="http://www.w3.org/2000/svg" xmlns:xlink="http://www.w3.org/1999/xlink">
    <!-- Generator: sketchtool 54.1 (76490) - https://sketchapp.com -->
    <title>FC1D9CB5-4696-4C36-83FF-E471A9C66B0F</title>
    <desc>Created with sketchtool.</desc>
    <g id="Index" stroke="none" stroke-width="1" fill="none" fill-rule="evenodd">
        <g id="5.-DeedSearch-View-Detail" transform="translate(-185.000000, -688.000000)" fill="#01923F" fill-rule="nonzero">
            <g id="Group-5" transform="translate(185.000000, 686.000000)">
                <g id="download-icon" transform="translate(0.000000, 2.000000)">
                    <g id="Path">
                        <path d="M15.0730411,6.46410701 C14.9664574,6.21779399 14.7322364,6.06092424 14.4743302,6.06092424 L11.8426338,6.06092424 L11.8426338,0.688025201 C11.8426338,0.30823529 11.5478838,8.9797449e-17 11.1847097,8.9797449e-17 L8.55301328,8.9797449e-17 C8.18983918,8.9797449e-17 7.89508918,0.30823529 7.89508918,0.688025201 L7.89508918,6.06092424 L5.26339279,6.06092424 C5.00548654,6.06092424 4.77126556,6.21917004 4.66468186,6.46410701 C4.55678231,6.71042003 4.59888945,6.99801456 4.76863386,7.20167002 L9.37410255,12.7058716 C9.49910813,12.8558611 9.67937933,12.9411762 9.86886148,12.9411762 C10.0583436,12.9411762 10.2386148,12.8544851 10.3636204,12.7058716 L14.9690891,7.20167002 C15.1401494,6.99939062 15.1796248,6.71042003 15.0730411,6.46410701 Z"></path>
                        <path d="M17.1060266,11.5651258 L17.1060266,15.6932771 L2.63169639,15.6932771 L2.63169639,11.5651258 L0,11.5651258 L0,17.0693275 C0,17.8302833 0.589499992,18.4453779 1.3158482,18.4453779 L18.4218748,18.4453779 C19.1495388,18.4453779 19.737723,17.8302833 19.737723,17.0693275 L19.737723,11.5651258 L17.1060266,11.5651258 Z"></path>
                    </g>
                </g>
            </g>
        </g>
    </g>
</svg>