<?xml version="1.0" encoding="UTF-8"?>
<svg width="279px" height="62px" viewBox="0 0 279 62" version="1.1" xmlns="http://www.w3.org/2000/svg" xmlns:xlink="http://www.w3.org/1999/xlink">
    <!-- Generator: Sketch 54.1 (76490) - https://sketchapp.com -->
    <title>Group 2</title>
    <desc>Created with Sketch.</desc>
    <defs>
        <polygon id="path-1" points="0 69 79 69 79 0 0 0"></polygon>
    </defs>
    <g id="Symbols" stroke="none" stroke-width="1" fill="none" fill-rule="evenodd">
        <g id="Rectangle" transform="translate(-166.000000, -10.000000)">
            <g id="Group-2" transform="translate(163.000000, 6.000000)">
                <g id="Coat_of_arms_of_Balochistan">
                    <mask id="mask-2" fill="white">
                        <use xlink:href="#path-1"></use>
                    </mask>
                    <g id="path7"></g>
                    <g id="g10" mask="url(#mask-2)">
                        <g transform="translate(4.000000, 4.000000)">
                            <path d="M35.7570836,0.0852436484 C49.091631,0.0852436484 59.9672271,11.0671406 59.9672271,24.5326389 C59.9672271,27.351197 59.4890424,30.0604429 58.6136119,32.5831549 L52.2179551,27.5778456 L44.1181141,38.6735684 L35.7675112,25.80277 L28.1066273,39.1810186 L19.5052638,26.6903072 L13.4452791,34.0102353 C12.2237491,31.0933968 11.5469414,27.8902383 11.5469414,24.5326389 C11.5469414,11.0671406 22.4225363,0.0852436484 35.7570836,0.0852436484 L35.7570836,0.0852436484 Z M32.9252184,5.78152938 C32.6138769,5.85072728 32.3313354,5.91290505 32.0199938,5.98210282 L32.635229,5.28260304 L32.1654862,4.47479348 L33.0160879,4.84986581 L33.6323159,4.1498645 L33.5409493,5.0815282 L34.3900625,5.45760334 C34.0886515,5.52379257 33.7867447,5.59098474 33.4848379,5.65717385 L33.3944642,6.58933895 L32.9252184,5.78152938 Z M31.5393265,8.63167811 C32.1411544,9.97301291 33.4798726,10.9086882 35.0281383,10.9086882 C37.1365192,10.9086882 38.8565934,9.17172207 38.8565934,7.04313646 C38.8565934,5.31970907 37.7299052,3.85401874 36.1831294,3.35709801 C37.0173455,4.00595303 37.5566069,5.02336177 37.5566069,6.16462478 C37.5566069,8.11419863 35.9810311,9.70524743 34.0499197,9.70524743 C33.0672341,9.70524743 32.1774036,9.29357047 31.5393265,8.63167811 Z M29.4527934,14.99838 C30.8530854,14.9387099 34.070279,18.4136445 33.9982777,19.0820553 C33.6035159,20.3306259 33.300615,21.9673052 33.309057,22.5489682 C33.3060824,23.670675 33.6149362,24.2382972 33.5752116,24.6379396 C33.0091358,25.7095037 32.7141811,26.6035593 32.2846599,27.9218281 C32.0309184,28.0762703 31.3784426,28.0893073 31.1902472,27.9589352 C31.2716833,27.6981897 31.353118,27.6936763 31.7081566,27.5532749 C32.2364934,26.6842906 32.5384002,25.7466095 32.8229273,24.8279831 C32.8323595,23.6776941 32.2414587,23.2765472 32.1093748,22.0600696 C31.9097591,22.9766909 32.0954705,23.9630103 31.9395519,24.2969648 C31.6932595,25.2933135 31.0477358,26.3708942 30.7651943,27.4840774 C30.4687498,27.6249794 29.9577926,27.6044215 29.6355265,27.4610111 C29.9081362,26.9991903 30.0665388,27.1400936 30.4379629,26.8793481 C30.7944913,25.9045612 31.0512112,25.0190292 31.3079311,24.2403036 C31.5517409,23.0789827 31.0566735,22.2325628 30.7855536,21.2357134 C30.4245557,21.352046 29.9711998,21.4668742 29.5918295,21.4758996 C29.0520723,21.487427 28.5470731,21.2086357 28.0157566,21.1123604 C28.1299651,22.271173 28.5867977,22.8282665 28.5877905,23.7032674 C27.9894392,25.0616509 27.8052163,27.1365841 27.6815744,27.4665271 C27.3816532,27.5838622 27.1130159,27.6199654 26.9114134,27.5387335 C26.856793,27.6350088 26.8021714,27.7317859 26.7108049,27.809507 C26.1516812,27.8651669 25.7728079,27.9709696 25.6541312,27.7332891 C26.0613074,27.1014834 25.6799515,27.5542775 26.3016418,27.157644 C26.3825807,24.9914508 26.4580574,22.6442396 26.4406778,20.3787636 C26.4079053,20.219808 26.2102752,20.005195 25.8825469,19.9951657 C25.6938558,20.0869289 25.6029863,20.2208118 25.3159752,20.2137914 C24.2026943,20.0678741 23.7269922,18.7255365 23.7106066,18.3925846 C23.7091193,17.8189445 24.0353541,16.793513 23.8848977,15.2165038 C23.6798197,15.0986668 23.5735562,14.9131366 23.2706566,14.8449417 C22.8500731,14.8474448 22.4999998,14.8404231 22.2522176,14.6097695 C22.5148969,13.697161 23.0342948,13.7347673 23.8848977,13.7091954 C23.9866918,13.6264577 24.0889829,13.5437213 24.191274,13.4609849 C24.4539519,13.492576 24.5875257,13.6535354 24.7027269,13.8325471 C25.0369104,13.8671458 25.1322494,13.8836936 25.4664329,13.9177905 C25.435149,14.1033219 25.3854939,14.2707997 25.2633405,14.4568317 C25.2558913,14.9397125 25.2002782,15.4436531 24.9480265,15.8773936 C24.9559714,16.7288276 24.7821761,17.7657929 25.5200604,17.880621 C26.4774227,17.7853483 28.5937498,14.8594831 29.4527934,14.99838 L29.4527934,14.99838 Z M27.1219536,21.9116453 C27.478482,21.9066261 27.8886379,23.0659458 27.9174392,23.6797005 C27.8558655,24.7281983 27.492882,25.8218248 27.3930748,26.7053505 C27.2460939,26.7615111 27.033071,26.9089329 26.9332625,26.9921712 C26.7336468,26.2605794 26.9183655,25.0756916 26.894035,24.4047738 C27.1234435,24.1590704 27.105071,22.7400142 27.1219536,21.9116453 L27.1219536,21.9116453 Z M43.1821039,14.99838 C44.5823946,14.9387099 47.7995895,18.4136445 47.7275882,19.0820553 C47.3328251,20.3306259 47.0294285,21.9673052 47.0378704,22.5489682 C47.0348959,23.670675 47.3432526,24.2382972 47.3040251,24.6379396 C46.7374535,25.7095037 46.4429946,26.6035593 46.0139692,27.9218281 C45.7592361,28.0762703 45.107256,28.0893073 44.9195577,27.9589352 C44.9999997,27.6981897 45.0824285,27.6936763 45.436473,27.5532749 C45.9653069,26.6842906 46.2672137,25.7466095 46.5522378,24.8279831 C46.5611743,23.6776941 45.9697764,23.2765472 45.8381882,22.0600696 C45.6385726,22.9766909 45.824284,23.9630103 45.6688624,24.2969648 C45.422073,25.2933135 44.7765493,26.3708942 44.4945048,27.4840774 C44.1975633,27.6249794 43.686109,27.6044215 43.364837,27.4610111 C43.6364539,26.9991903 43.7948552,27.1400936 44.1667764,26.8793481 C44.5233048,25.9045612 44.7805217,25.0190292 45.0362488,24.2403036 C45.2810514,23.0789827 44.785984,22.2325628 44.5148628,21.2357134 C44.1538662,21.352046 43.7000133,21.4668742 43.3206429,21.4758996 C42.7803887,21.487427 42.2758866,21.2086357 41.7440743,21.1123604 C41.8582828,22.271173 42.3151154,22.8282665 42.317101,23.7032674 C41.7177569,25.0616509 41.5340298,27.1365841 41.4108836,27.4665271 C41.1109637,27.5838622 40.8418294,27.6199654 40.6397311,27.5387335 C40.5851095,27.6350088 40.5304879,27.7317859 40.4396184,27.809507 C39.8804946,27.8651669 39.5016213,27.9709696 39.3834417,27.7332891 C39.7906179,27.1014834 39.408765,27.5542775 40.0304552,27.157644 C40.11189,24.9914508 40.1868709,22.6442396 40.1694912,20.3787636 C40.1372145,20.219808 39.9390887,20.005195 39.6118574,19.9951657 C39.4226692,20.0869289 39.3313027,20.2208118 39.0447887,20.2137914 C37.9320048,20.0678741 37.4558057,18.7255365 37.438923,18.3925846 C37.4374358,17.8189445 37.7641675,16.793513 37.6132141,15.2165038 C37.4091302,15.0986668 37.3023697,14.9131366 36.9999671,14.8449417 C36.5783896,14.8474448 36.2293103,14.8404231 35.9810311,14.6097695 C36.2442061,13.697161 36.7636053,13.7347673 37.6132141,13.7091954 C37.7155052,13.6264577 37.8182934,13.5437213 37.9200874,13.4609849 C38.1822696,13.492576 38.3158434,13.6535354 38.4315404,13.8325471 C38.7652268,13.8671458 38.8610629,13.8836936 39.1947493,13.9177905 C39.1639624,14.1033219 39.1148031,14.2707997 38.9916569,14.4568317 C38.9851993,14.9397125 38.9285946,15.4436531 38.67684,15.8773936 C38.6852807,16.7288276 38.5109896,17.7657929 39.2493709,17.880621 C40.2062362,17.7853483 42.3230603,14.8594831 43.1821039,14.99838 L43.1821039,14.99838 Z M40.8502713,21.9116453 C41.2072955,21.9066261 41.6174514,23.0659458 41.6467484,23.6797005 C41.5846789,24.7281983 41.2221925,25.8218248 41.1213912,26.7053505 C40.9749073,26.7615111 40.7623802,26.9089329 40.661579,26.9921712 C40.4629561,26.2605794 40.6466832,25.0756916 40.6223514,24.4047738 C40.8522569,24.1590704 40.8333887,22.7400142 40.8502713,21.9116453 L40.8502713,21.9116453 Z" id="path12" stroke="none" fill="#01923F" fill-rule="evenodd"></path>
                            <path d="M35.9964245,45.6244133 C54.5135383,45.6685394 67.1990859,56.7512249 67.2839964,58.8081056 C67.2353337,59.7678495 66.2293089,59.9157716 66.210937,60.3068898 C66.2139243,60.7626937 66.5505822,60.9993704 67.0456489,60.9256589 C67.8063745,61.0114048 70.5299916,55.6224987 71.9541176,52.3596694 C61.9494831,44.0494103 50.3806935,39.0611488 36.5421401,38.89016 L36.5426168,38.8856479 C36.4030834,38.8851504 36.2640474,38.8856479 36.1250114,38.8856479 C36.0818117,38.8856479 36.0391078,38.8856479 35.9964039,38.8856479 C35.9537,38.8856479 35.910996,38.8856479 35.8677948,38.8856479 C35.7287588,38.8856479 35.5902201,38.8851504 35.4506867,38.8856479 L35.4506867,38.89016 C21.6131487,39.0611488 10.0433659,44.0494103 0.039724576,52.3596694 C1.46335407,55.6224987 4.18697031,61.0114048 4.94769594,60.9256589 C5.44276347,60.9993704 5.77992581,60.7626937 5.78290515,60.3068898 C5.76403598,59.9157716 4.75801109,59.7678495 4.70934848,58.8081056 C4.79475632,56.7512249 17.4793108,45.6685394 35.9964245,45.6244133 Z" id="path14" stroke="#01923F" stroke-width="1" fill="none" transform="translate(35.996921, 49.912186) scale(-1, 1) rotate(-180.000000) translate(-35.996921, -49.912186) "></path>
                            <path d="M5.12595997,48.3211484 L13.6324814,48.3442144 C14.6722721,48.3462201 15.5626,46.9632662 15.5352886,44.9981472 C15.5005296,42.449361 14.4100899,40.6306621 13.2968087,38.8721336" id="path16" stroke="#01923F" stroke-width="1" fill="none" transform="translate(10.330930, 43.608175) scale(-1, 1) rotate(-180.000000) translate(-10.330930, -43.608175) "></path>
                            <path d="M5.97656246,39.5054469 C6.28641415,39.2632543 6.64790779,39.266262 6.98358046,39.3018646 C8.57653596,39.4708469 8.74933786,40.5770097 8.79700735,41.7202783 C8.84368367,42.8169138 7.64400147,43.1082466 8.05813024,43.9135493 C8.37195439,44.5227906 9.11827989,44.4846823 9.42366248,44.5012288 C10.3184586,44.5503702 11.0017213,45.4790246 11.8190542,45.3150563 C12.1090436,45.2568894 12.3632808,45.0889096 12.6031181,45.0663453 C12.9809986,45.0307427 13.30823,45.3546691 13.2516215,45.8801715 C13.2253041,46.1268775 12.8965842,46.2793133 12.9387914,46.7842565 C12.9566669,47.0033828 13.0847783,47.2420658 13.2744635,47.3498736 C13.4894732,47.4717221 14.1906113,47.2220085 14.0133406,47.3950023 C13.8132279,47.5900598 13.5033762,48.3121242 13.3638444,48.276021 C7.47715825,45.2222906 4.68551374,42.4242918 4.70041039,40.6808073 C4.70587268,40.0996449 5.52171606,39.8614638 5.97656246,39.5054469" id="path18" stroke="none" fill="#01923F" fill-rule="evenodd"></path>
                            <path d="M66.948821,48.3211484 L58.4418031,48.3442144 C57.4025081,48.3462201 56.5121818,46.9632662 56.5389959,44.9981472 C56.5742507,42.449361 57.6651876,40.6306621 58.7779715,38.8721336" id="path20" stroke="#01923F" stroke-width="1" fill="none" transform="translate(61.743613, 43.608175) scale(-1, 1) rotate(-180.000000) translate(-61.743613, -43.608175) "></path>
                            <path d="M66.098219,39.5054469 C65.7888631,39.2632543 65.4268737,39.266262 65.0907034,39.3018646 C63.4977479,39.4708469 63.3259394,40.5770097 63.2772771,41.7202783 C63.2315932,42.8169138 64.4302826,43.1082466 64.0161542,43.9135493 C63.7033229,44.5227906 62.9565008,44.4846823 62.6506216,44.5012288 C61.7558258,44.5503702 61.0730602,45.4790246 60.2552297,45.3150563 C59.9652403,45.2568894 59.7115,45.0889096 59.4716627,45.0663453 C59.0937822,45.0307427 58.7665509,45.3546691 58.8226623,45.8801715 C58.8489797,46.1268775 59.1777009,46.2793133 59.1359894,46.7842565 C59.118114,47.0033828 58.9895055,47.2420658 58.8003174,47.3498736 C58.5853076,47.4717221 57.8841695,47.2220085 58.0614403,47.3950023 C58.261553,47.5900598 58.5709076,48.3121242 58.7109365,48.276021 C64.5976229,45.2222906 67.3892677,42.4242918 67.3738737,40.6808073 C67.3689033,40.0996449 66.5535618,39.8614638 66.098219,39.5054469" id="path22" stroke="none" fill="#01923F" fill-rule="evenodd"></path>
                            <path d="M4.10553493,59.5415158 C5.83653333,59.3098535 7.04962257,58.1801235 8.42707224,58.0487479 C9.55673987,57.9399369 10.4857984,58.3350665 11.4754369,58.0487479 C11.8846,57.9564842 12.3374602,57.1546918 12.2937632,56.6011091 C12.2470868,56.0059074 11.82402,55.4758921 11.2023304,55.4066943 C10.3601694,55.3685853 8.84269062,56.1864235 7.56306271,56.348888 C6.30478677,56.5078425 4.67409292,56.2796902 3.33239537,56.3945185" id="path24" stroke="#01923F" stroke-width="1" fill="none" transform="translate(7.814545, 57.473460) scale(-1, 1) rotate(-180.000000) translate(-7.814545, -57.473460) "></path>
                            <path d="M4.23861226,58.5163196 C4.79177698,58.3327949 5.01522772,57.4813607 4.73417634,56.6224049 C4.45461464,55.7629477 3.77532439,55.2123736 3.22166311,55.3958983 C2.66800184,55.5799244 2.44504765,56.4308573 2.72510591,57.2903145 C3.00516417,58.1487688 3.68495098,58.6998443 4.23861226,58.5163196 Z" id="path26" stroke="#01923F" stroke-width="1" fill="none" transform="translate(3.729917, 56.956098) scale(-1, 1) rotate(-180.000000) translate(-3.729917, -56.956098) "></path>
                            <path d="M3.42276878,58.4146657 C2.30551508,57.0793481 1.20216498,55.2160208 1.1485368,52.8562743 C1.10533633,50.9648667 2.19031381,50.109421 3.42276878,50.1229597" id="path28" stroke="#01923F" stroke-width="1" fill="none" transform="translate(2.285029, 54.268734) scale(-1, 1) rotate(-180.000000) translate(-2.285029, -54.268734) "></path>
                            <path d="M2.96792235,56.0026118 C3.20676633,55.6410777 3.40141676,56.6113526 3.87811167,56.622885 C4.28826798,56.6329105 4.83348785,56.3440886 4.87917098,56.6459513 C5.02813827,57.6518274 4.36523438,58.5263276 3.3323954,58.5980322 C2.46788922,58.6587061 2.0646849,57.3710246 2.96792235,56.0026118" id="path30" stroke="none" fill="#01923F" fill-rule="evenodd"></path>
                            <path d="M9.74841095,54.2099872 C9.81097722,55.0980263 8.73295151,55.3978826 8.80892473,56.2563369 C8.83722846,56.5747474 9.53985692,56.6594902 9.82239794,56.8700916 C9.06365854,56.9538319 8.17333151,56.8856369 7.46424783,56.7216673 C8.12218609,56.3867103 8.3227952,56.0582705 8.33024359,55.716795 C8.34712647,54.8663636 7.99010194,54.4376371 7.630098,54.4516779 C7.23781775,54.4677237 7.0565744,55.0378542 6.59825207,54.9917217 C5.8429886,54.9150019 5.80078115,54.045015 5.08772513,53.4102004 C4.67260319,53.0411453 3.7380826,53.0637096 3.6874337,52.5171473 C3.64175057,52.0247392 4.03849968,51.873306 4.03750662,51.5684343 C4.03601679,51.2555398 3.97444383,51.2058977 3.72467552,51.1592645 C3.10447561,51.0449383 1.99665647,52.8806865 1.23742054,54.377465 C1.71461198,52.9674344 2.43809592,51.0680033 3.41134803,50.0621284 C5.50036407,51.6075465 7.61023571,53.0115606 9.74841095,54.2099872" id="path32" stroke="none" fill="#01923F" fill-rule="evenodd"></path>
                            <path d="M67.912142,59.5415158 C66.1811436,59.3098535 64.9675578,58.1801235 63.5901081,58.0487479 C62.4604397,57.9399369 61.531382,58.3350665 60.5417427,58.0487479 C60.1330769,57.9564842 59.6797194,57.1546918 59.7229207,56.6011091 C59.769597,56.0059074 60.1931595,55.4758921 60.8148492,55.4066943 C61.6565144,55.3685853 63.1739932,56.1864235 64.4546134,56.348888 C65.7128894,56.5078425 67.3435832,56.2796902 68.6852808,56.3945185" id="path34" stroke="#01923F" stroke-width="1" fill="none" transform="translate(64.202668, 57.473460) scale(-1, 1) rotate(-180.000000) translate(-64.202668, -57.473460) "></path>
                            <path d="M67.7785673,58.5163196 C67.2254026,58.3327949 67.0024492,57.4813607 67.2825075,56.6224049 C67.5625657,55.7629477 68.2423517,55.2123736 68.7950207,55.3958983 C69.3491785,55.5799244 69.5716362,56.4308573 69.2915779,57.2903145 C69.0120154,58.1487688 68.3322294,58.6998443 67.7785673,58.5163196 Z" id="path36" stroke="#01923F" stroke-width="1" fill="none" transform="translate(68.287082, 56.956098) scale(-1, 1) rotate(-180.000000) translate(-68.287082, -56.956098) "></path>
                            <path d="M68.5944116,58.4146657 C69.7121611,57.0793481 70.8150154,55.2160208 70.8691393,52.8562743 C70.9118433,50.9648667 69.8273623,50.109421 68.5944116,50.1229597" id="path38" stroke="#01923F" stroke-width="1" fill="none" transform="translate(69.732386, 54.268734) scale(-1, 1) rotate(-180.000000) translate(-69.732386, -54.268734) "></path>
                            <path d="M69.049258,56.0026118 C68.8099177,55.6410777 68.6157631,56.6113526 68.1390682,56.622885 C67.7289122,56.6329105 67.1831957,56.3440886 67.1385059,56.6459513 C66.9890423,57.6518274 67.6524427,58.5263276 68.6852817,58.5980322 C69.5492906,58.6587061 69.9529915,57.3710246 69.049258,56.0026118" id="path40" stroke="none" fill="#01923F" fill-rule="evenodd"></path>
                            <path d="M62.2692657,54.2099872 C62.2066991,55.0980263 63.2842292,55.3978826 63.2082555,56.2563369 C63.1804483,56.5747474 62.4778203,56.6594902 62.1952788,56.8700916 C62.9540182,56.9538319 63.8438487,56.8856369 64.5534288,56.7216673 C63.8949936,56.3867103 63.6943851,56.0582705 63.687433,55.716795 C63.6700534,54.8663636 64.0270788,54.4376371 64.3875784,54.4516779 C64.7793631,54.4677237 64.9611021,55.0378542 65.4194245,54.9917217 C66.1741915,54.9150019 66.2163987,54.045015 66.9299512,53.4102004 C67.3445766,53.0411453 68.2786012,53.0637096 68.3297461,52.5171473 C68.3759258,52.0247392 67.97868,51.873306 67.9796741,51.5684343 C67.980691,51.2555398 68.0432334,51.2058977 68.2930012,51.1592645 C68.9127046,51.0449383 70.0210203,52.8806865 70.7802567,54.377465 C70.3025677,52.9674344 69.5795804,51.0680033 68.6058326,50.0621284 C66.5168156,51.6075465 64.4074407,53.0115606 62.2692657,54.2099872" id="path42" stroke="none" fill="#01923F" fill-rule="evenodd"></path>
                            <polyline id="path44" stroke="none" fill="#01923F" fill-rule="evenodd" points="50.1185107 53.9853449 50.5728607 53.5260311 51.0277077 53.9853449 50.5728607 54.4451594"></polyline>
                            <polyline id="path46" stroke="none" fill="#01923F" fill-rule="evenodd" points="49.1899497 54.1152164 49.6447954 53.6559026 50.0996424 54.1152164 49.6447954 54.5750308"></polyline>
                            <polyline id="path48" stroke="none" fill="#01923F" fill-rule="evenodd" points="34.9581239 58.9234631 35.4129697 58.4641492 35.8678167 58.9234631 35.4129697 59.3827756"></polyline>
                            <polyline id="path50" stroke="none" fill="#01923F" fill-rule="evenodd" points="25.8492786 58.1918713 26.3041244 57.7325574 26.7594672 58.1918713 26.3041244 58.6506832"></polyline>
                            <polyline id="path52" stroke="none" fill="#01923F" fill-rule="evenodd" points="24.7265617 58.171312 25.1814087 57.7119995 25.6362545 58.171312 25.1814087 58.6301239"></polyline>
                            <polyline id="path54" stroke="none" fill="#01923F" fill-rule="evenodd" points="25.2906507 58.7549814 25.7454977 58.2956675 26.2003435 58.7549814 25.7454977 59.2142939"></polyline>
                            <polyline id="path56" stroke="none" fill="#01923F" fill-rule="evenodd" points="7.81928626 47.4987998 8.27413265 47.039486 8.72947557 47.4987998 8.27413265 47.9581124"></polyline>
                            <polyline id="path58" stroke="none" fill="#01923F" fill-rule="evenodd" points="7.15240991 46.9763051 7.60775283 46.5169925 8.0621027 46.9763051 7.60775283 47.435117"></polyline>
                            <polyline id="path60" stroke="none" fill="#01923F" fill-rule="evenodd" points="3.54839769 45.2082511 4.00324421 44.7484367 4.45809048 45.2082511 4.00324421 45.6675637"></polyline>
                            <path d="M67.0431669,46.1720062 C67.1980928,45.8571053 67.2993898,45.6028795 67.8331889,45.2598983 C68.4216097,44.8823183 69.1694245,45.5848273 69.8000525,45.6349713 C69.8705639,45.9273066 69.9455436,46.2697859 69.751886,46.4818918 C68.3381881,47.4311055 66.9408758,48.3808211 65.5271779,49.3310373 C65.5763373,49.9718697 65.5068186,50.6718717 65.1721394,50.9596936 C64.9655716,51.1402097 64.4551101,51.2003817 64.6239402,50.568576 C65.0033093,50.2561834 64.992386,49.9147066 64.8985368,49.5591904 C64.5678288,49.8274568 63.7038199,50.4948651 63.3021046,50.1127731 C63.0170805,49.8419983 62.9937428,48.7619106 63.3343813,48.5006632 C63.6650881,48.2459356 64.5112216,48.1937865 65.1398627,48.5493028 C65.5594534,48.2940732 66.0753771,47.8763785 66.4949678,47.621149 C65.7744631,47.3303181 64.6502576,47.5840432 64.3339508,47.3764494 C64.2361292,47.3127678 64.2480466,47.1818938 64.3657305,46.9863344 C64.9844411,46.1720062 65.5058258,45.4554577 66.1235423,44.6416302 C66.2690347,44.6416302 66.4497809,44.5453549 66.5595199,44.6416302 C66.6657834,44.733894 66.5912995,44.9234368 66.6071894,45.0643389 C66.1503567,45.7212172 65.5808055,46.3129095 65.1239728,46.9697866 C65.6403923,47.0083968 66.1880957,47.0134121 66.7040182,47.0515204 C66.8122673,47.018928 66.881786,47.1818938 66.8172339,47.4095437 C67.4409097,46.9592566 68.1931927,46.4432816 68.8168686,45.9924926 C68.5531978,45.7703574 68.2681737,45.7212172 68.0909029,45.8460747 C67.8495758,45.8400543 67.6499601,46.0376214 67.4940402,46.4653453 C67.2656245,46.4267338 66.9696758,46.3685682 67.0431669,46.1720062 L67.0431669,46.1720062 Z M63.8016415,48.9890599 C63.9853673,48.8571833 64.3309712,48.8165667 64.4789449,48.9890599 C64.6135127,49.1460091 64.4302826,49.2813965 64.2629436,49.4017405 C64.0787207,49.534119 63.7882343,49.7642759 63.6402606,49.5917827 C63.5056928,49.4343329 63.6342987,49.1099058 63.8016415,48.9890599 L63.8016415,48.9890599 Z" id="path62" stroke="none" fill="#01923F" fill-rule="evenodd"></path>
                            <path d="M36.9398832,56.8806216 L36.9061167,58.2746077 C35.2088845,58.2721045 33.644729,58.2440204 31.946504,58.2415134 C31.6356595,58.8021152 30.9345201,59.3286214 30.4985426,59.379266 C30.2269269,59.4138648 29.7691002,59.1781907 30.2567197,58.7469584 C30.7438422,58.6998233 30.9226027,58.4094931 31.0402866,58.0609973 C30.6177163,58.2961695 29.0073824,58.0584941 29.0292303,57.3314106 C29.0485956,56.7031144 29.9131028,56.2768962 30.3207761,56.3039739 C30.9260794,56.3435867 31.7732057,56.5637156 31.865068,57.3740323 L33.2608904,57.3790514 L33.2380498,55.3422278 C33.2335752,54.9546198 33.9664981,55.0193039 33.9898371,55.3372086 L34.0072167,57.3996042 L36.2253379,57.3945851 L36.2079582,56.8384954 C36.2913798,56.1961585 36.9374006,56.4253141 36.9398832,56.8806152 L36.9398832,56.8806216 Z M30.4409426,56.9723847 C30.6673727,56.9653631 30.9767273,57.1258231 31.0050316,57.3519698 C31.0303561,57.5585598 30.7324218,57.5645777 30.5268468,57.5705942 C30.3009138,57.5776159 30.0039722,57.6092057 29.976165,57.383059 C29.9508405,57.1764677 30.2358646,56.9784013 30.4409426,56.9723847 L30.4409426,56.9723847 Z" id="path64" stroke="none" fill="#01923F" fill-rule="evenodd"></path>
                            <path d="M39.0676307,57.1032588 C45.5342946,56.7622839 51.9205179,55.1496734 58.3886716,52.4359141 C58.2769458,52.0979482 58.1771386,51.8071174 58.0654127,51.4681476 C58.180117,51.1863422 58.3583818,51.0108402 58.6746886,51.0680033 C58.8375593,51.3758838 58.941339,51.7258841 59.103714,52.0337647 C59.4086004,51.8903544 59.7725767,51.7038217 60.0774619,51.5604114 C60.2423195,50.636771 60.5779915,49.942285 61.2364267,49.743216 C61.8864199,49.5476566 62.3740394,49.8500212 62.5478347,50.1744495 C62.9351487,50.9015279 62.3243843,51.6968013 61.8397445,51.8457276 C61.2041513,51.8126333 61.6326797,51.33928 61.6828318,51.2921449 C61.9941733,51.0910695 61.9961589,50.8879891 61.9375661,50.760124 C61.8740068,50.6192207 61.5850102,50.6001659 61.4007873,50.6889201 C60.7627114,50.9932898 61.0487284,52.2233063 60.5958682,52.4539664 C53.8133933,55.9745316 46.6416175,57.5776146 39.2508607,58.3041924 C38.9216425,57.9376443 38.8605658,57.5374999 39.0676307,57.1032588" id="path66" stroke="none" fill="#01923F" fill-rule="evenodd"></path>
                            <path d="M25.8249469,55.5448025 C26.5563761,55.724316 26.8279918,56.1896464 27.516221,56.8981719 C27.66916,56.9483159 27.9015494,56.9904357 28.0534956,57.0460956 C28.1706824,57.0721696 27.8876451,57.9050506 27.7928032,57.8930162 L24.4584214,57.2326283 C24.2255363,56.9372841 24.0884858,57.1544053 23.4643142,57.0119975 C23.1763104,56.9458089 22.9449151,56.8445184 22.8168037,56.6158647 C22.6266215,56.8023986 22.3023698,56.879619 21.8723515,56.7793323 C21.4393537,56.6780431 21.1245367,56.3631421 20.9115138,56.0682998 C20.7675113,56.2207356 20.594213,56.3185153 20.2227888,56.2638592 C14.3688762,54.3393567 9.35513765,51.5744522 4.89655052,48.3091165 C4.77241128,48.1957916 4.8344809,48.0293163 4.89655052,47.8447887 L6.05352886,45.0778778 C6.1146053,44.9184216 6.66032169,45.1330358 6.61314885,45.229311 L5.63890356,47.4431399 C5.60116522,47.6151324 5.62797899,47.8518091 5.82610559,47.9761646 C6.28293822,48.262984 6.90760724,48.6746608 7.36443986,48.9619821 L7.67975359,48.0152755 C7.75771317,47.9210066 8.25923587,48.1907776 8.2319252,48.2830413 L7.89724571,49.3591175 C11.7222253,51.91292 15.8074016,53.9031092 20.2282511,55.3858482 L20.3588452,54.3082675 C20.3543706,54.1753884 21.1155977,54.2405745 21.0853079,54.3744574 L20.9914588,55.7017517 C21.3599045,55.9218805 21.6846532,55.9374258 21.9835804,55.9038296 L22.067002,54.8422948 C22.0620316,54.710417 22.7542371,54.8357738 22.7750922,54.9601319 L22.7090503,56.0106348 C22.7338778,56.1966668 23.5353214,56.4564097 23.664427,56.3270389 L23.7413922,55.3622813 C23.7419007,55.2509627 24.4117447,55.321164 24.4062825,55.4264648 L24.3193854,56.4183001 L26.7326528,56.9252497 C26.6308587,56.4624263 26.1775028,55.9624971 25.7087528,55.9088436 C25.4008867,55.8737429 25.3095202,56.0246756 25.0349248,56.0452335 C24.9172397,56.0532565 24.8298456,55.8205913 24.9708685,55.7403619 C25.2141812,55.6235287 25.5816341,55.4936572 25.8249469,55.5448025" id="path68" stroke="none" fill="#01923F" fill-rule="evenodd"></path>
                            <path d="M4.5722987,45.7818912 C4.68601026,45.5351852 5.25357518,45.748295 5.1507878,46.0090404 C4.92088191,46.5325365 4.82852221,47.2375524 4.16959078,48.0027404 C3.96401616,48.1827546 3.73411014,48.3402045 3.42624468,48.2830413 C2.04730537,48.0273099 2.04680871,47.0374809 2.37701935,46.3565338 C2.5860699,45.9253002 2.60195973,45.8621206 2.79214117,45.619426 C2.97983972,45.3807443 3.52754235,45.5883368 3.31203659,45.9433525 C3.18988345,46.1679947 3.19484896,46.1389119 3.07368913,46.3635542 C2.65459473,46.8735113 2.87357655,47.21549 3.52903205,47.3413487 C3.99430612,47.5349031 4.22669489,46.5982244 4.5722987,45.7818912" id="path70" stroke="none" fill="#01923F" fill-rule="evenodd"></path>
                        </g>
                    </g>
                </g>
                <g id="Group" transform="translate(87.000000, 17.000000)" fill="#000000">
                    <text id="BALOCHISTAN.GOV.PK" font-family="Poppins-SemiBold, Poppins SemiBold" font-size="18" font-weight="500">
                        <tspan x="0" y="19">BALOCHISTAN.GOV.PK</tspan>
                    </text>
                    <text id="gateway-to-all-Gover" font-family="HelveticaNeue-CondensedBold, Helvetica Neue" font-size="9.7" font-style="condensed" font-weight="bold" line-spacing="16">
                        <tspan x="0" y="32">gateway to all Government services of Balochistan</tspan>
                    </text>
                </g>
            </g>
        </g>
    </g>
</svg>