<?xml version="1.0" encoding="UTF-8"?>
<svg width="112px" height="94px" viewBox="0 0 112 94" version="1.1" xmlns="http://www.w3.org/2000/svg" xmlns:xlink="http://www.w3.org/1999/xlink">
    <!-- Generator: Sketch 55.2 (78181) - https://sketchapp.com -->
    <title>closed</title>
    <desc>Created with Sketch.</desc>
    <g id="Index" stroke="none" stroke-width="1" fill="none" fill-rule="evenodd">
        <g id="ComplaintCloseSuccessMessageFromPublicWebsite" transform="translate(-665.000000, -224.000000)" fill="#052323" fill-rule="nonzero" stroke="#052323">
            <g id="closed" transform="translate(666.000000, 225.000000)">
                <path d="M102.516199,43.2941176 L95.6517711,43.2941176 L60.0001296,7.98564706 C60.372419,7.24517647 60.5831533,6.41129412 60.5831533,5.52941176 C60.5831533,2.48047059 58.0785745,-2.27373675e-13 55,-2.27373675e-13 C51.9214255,-2.27373675e-13 49.4168467,2.48047059 49.4168467,5.52941176 C49.4168467,6.41129412 49.627581,7.24517647 49.9998704,7.98564706 L14.3482289,43.2941176 L7.4838013,43.2941176 C3.35725702,43.2941176 0,46.6190588 0,50.7058824 L0,84.5882353 C0,88.6750588 3.35725702,92 7.4838013,92 L102.516199,92 C106.642743,92 110,88.6750588 110,84.5882353 L110,50.7058824 C110,46.6190588 106.642743,43.2941176 102.516199,43.2941176 Z M55,3.52941176 C56.1135421,3.52941176 57.0194384,4.42658824 57.0194384,5.52941176 C57.0194384,6.63223529 56.1135421,7.52941176 55,7.52941176 C53.8864579,7.52941176 52.9805616,6.63223529 52.9805616,5.52941176 C52.9805616,4.42658824 53.8864579,3.52941176 55,3.52941176 Z M52.519892,10.4814118 C53.2675594,10.8501176 54.1095464,11.0588235 55,11.0588235 C55.8904536,11.0588235 56.7324406,10.8501176 57.480108,10.4814118 L90.6117279,43.2941176 L19.3882721,43.2941176 L52.519892,10.4814118 Z M106.436285,84.5882353 C106.436285,86.7291765 104.677711,88.4705882 102.516199,88.4705882 L7.4838013,88.4705882 C5.32228942,88.4705882 3.5637149,86.7291765 3.5637149,84.5882353 L3.5637149,50.7058824 C3.5637149,48.5649412 5.32228942,46.8235294 7.4838013,46.8235294 L102.516199,46.8235294 C104.677711,46.8235294 106.436285,48.5649412 106.436285,50.7058824 L106.436285,84.5882353 Z" id="Shape"></path>
                <path d="M15.4346048,60.1272412 C17.0517356,60.1272412 18.4990803,61.1637071 19.0359649,62.7065828 C19.3542559,63.6208361 20.3454453,64.1010239 21.2485033,63.7793379 C22.1522552,63.4569495 22.6266845,62.4544315 22.3083936,61.5397099 C21.283432,58.5941987 18.5210553,56.6153846 15.4346048,56.6153846 C11.4168757,56.6153846 8.14814815,59.9237876 8.14814815,63.9902834 L8.14814815,71.4822441 C8.14814815,75.5487398 11.4168757,78.8571429 15.4346048,78.8571429 C18.5173543,78.8571429 21.2788057,76.8816065 22.3058491,73.9410119 C22.6250653,73.0267586 22.1517926,72.0235382 21.2485033,71.7002133 C20.345214,71.3773566 19.3540246,71.8561397 19.0345771,72.7703931 C18.4965358,74.3104592 17.049885,75.3452863 15.4346048,75.3452863 C13.3300911,75.3452863 11.6178894,73.6123021 11.6178894,71.4822441 L11.6178894,63.9902834 C11.6178894,61.8602253 13.3300911,60.1272412 15.4346048,60.1272412 Z" id="Path"></path>
                <path d="M35.8796296,75.3452863 L28.0555556,75.3452863 L28.0555556,58.3713129 C28.0555556,57.4013381 27.2471481,56.6153846 26.25,56.6153846 C25.2528519,56.6153846 24.4444444,57.4013381 24.4444444,58.3713129 L24.4444444,77.1012146 C24.4444444,78.0711894 25.2528519,78.8571429 26.25,78.8571429 L35.8796296,78.8571429 C36.8767778,78.8571429 37.6851852,78.0711894 37.6851852,77.1012146 C37.6851852,76.1312398 36.8767778,75.3452863 35.8796296,75.3452863 Z" id="Path"></path>
                <path d="M45.3240741,56.6153846 C41.112015,56.6153846 37.6851852,59.9237876 37.6851852,63.9902834 L37.6851852,71.4822441 C37.6851852,75.5487398 41.112015,78.8571429 45.3240741,78.8571429 C49.5361332,78.8571429 52.962963,75.5487398 52.962963,71.4822441 L52.962963,63.9902834 C52.962963,59.9237876 49.5361332,56.6153846 45.3240741,56.6153846 Z M49.3253968,71.4822441 C49.3253968,73.6123021 47.5303792,75.3452863 45.3240741,75.3452863 C43.117769,75.3452863 41.3227513,73.6123021 41.3227513,71.4822441 L41.3227513,63.9902834 C41.3227513,61.8602253 43.117769,60.1272412 45.3240741,60.1272412 C47.5303792,60.1272412 49.3253968,61.8602253 49.3253968,63.9902834 L49.3253968,71.4822441 Z" id="Shape"></path>
                <path d="M62.6388889,65.9803355 C60.4699295,65.9803355 58.6375661,64.6399769 58.6375661,63.0537883 C58.6375661,61.4675998 60.4699295,60.1272412 62.6388889,60.1272412 C64.539881,60.1272412 66.2325617,61.1632389 66.576433,62.536843 C66.8123898,63.4791912 67.7945326,64.0586475 68.7715829,63.8310792 C69.7479056,63.6032768 70.3481041,62.6546073 70.1121473,61.7117909 C69.3732363,58.7587877 66.2301367,56.6153846 62.6388889,56.6153846 C58.4268298,56.6153846 55,59.5037696 55,63.0537883 C55,66.6038071 58.4268298,69.492192 62.6388889,69.492192 C64.8078483,69.492192 66.6402116,70.8325506 66.6402116,72.4187392 C66.6402116,74.0049277 64.8078483,75.3452863 62.6388889,75.3452863 C60.7378968,75.3452863 59.045216,74.3092886 58.7013448,72.9356844 C58.465388,71.992868 57.4825176,71.4115387 56.5061949,71.6414482 C55.5298721,71.8692507 54.9296737,72.8179202 55.1656305,73.7607366 C55.9045414,76.7137397 59.0476411,78.8571429 62.6388889,78.8571429 C66.850948,78.8571429 70.2777778,75.9687579 70.2777778,72.4187392 C70.2777778,68.8687204 66.850948,65.9803355 62.6388889,65.9803355 Z" id="Path"></path>
                <path d="M83.75,60.1272412 C84.7471481,60.1272412 85.5555556,59.3412877 85.5555556,58.3713129 C85.5555556,57.4013381 84.7471481,56.6153846 83.75,56.6153846 L74.1203704,56.6153846 C73.1232222,56.6153846 72.3148148,57.4013381 72.3148148,58.3713129 L72.3148148,77.1012146 C72.3148148,78.0711894 73.1232222,78.8571429 74.1203704,78.8571429 L83.75,78.8571429 C84.7471481,78.8571429 85.5555556,78.0711894 85.5555556,77.1012146 C85.5555556,76.1312398 84.7471481,75.3452863 83.75,75.3452863 L75.9259259,75.3452863 L75.9259259,69.492192 L81.8240741,69.492192 C82.8212222,69.492192 83.6296296,68.7062385 83.6296296,67.7362637 C83.6296296,66.766289 82.8212222,65.9803355 81.8240741,65.9803355 L75.9259259,65.9803355 L75.9259259,60.1272412 L83.75,60.1272412 Z" id="Path"></path>
                <path d="M91.3514109,56.6153846 L89.4113757,56.6153846 C88.4069224,56.6153846 87.5925926,57.4013381 87.5925926,58.3713129 L87.5925926,77.1012146 C87.5925926,78.0711894 88.4069224,78.8571429 89.4113757,78.8571429 L91.3514109,78.8571429 C97.7028439,78.8571429 102.87037,73.8681994 102.87037,67.7362637 C102.87037,61.6043281 97.7028439,56.6153846 91.3514109,56.6153846 Z M91.3514109,75.3452863 L91.2301587,75.3452863 L91.2301587,60.1272412 L91.3514109,60.1272412 C95.6970899,60.1272412 99.2328042,63.5405316 99.2328042,67.7362637 C99.2328042,71.9319958 95.6970899,75.3452863 91.3514109,75.3452863 Z" id="Shape"></path>
            </g>
        </g>
    </g>
</svg>