<?xml version="1.0" encoding="UTF-8"?>
<svg width="22px" height="22px" viewBox="0 0 22 22" version="1.1" xmlns="http://www.w3.org/2000/svg" xmlns:xlink="http://www.w3.org/1999/xlink">
    <!-- Generator: Sketch 54.1 (76490) - https://sketchapp.com -->
    <title>cms-icon</title>
    <desc>Created with Sketch.</desc>
    <g id="Symbols" stroke="none" stroke-width="1" fill="none" fill-rule="evenodd">
        <g id="admin\leftnav" transform="translate(1.000000, -237.000000)" fill="#FFFFFF" fill-rule="nonzero" stroke="#FFFFFF" stroke-width="0.2">
            <g id="cms-icon" transform="translate(0.000000, 238.000000)">
                <path d="M9.39298246,14.2296296 C9.29044834,14.2296296 9.18986355,14.271306 9.11734893,14.3438596 C9.04487329,14.4163743 9.00311891,14.5165692 9.00311891,14.6194932 C9.00311891,14.7220273 9.04483431,14.8226121 9.11734893,14.8950877 C9.18986355,14.9676023 9.29044834,15.0093567 9.39298246,15.0093567 C9.49551657,15.0093567 9.59610136,14.9676413 9.66861598,14.8950877 C9.74109162,14.8221832 9.782846,14.7220273 9.782846,14.6194932 C9.782846,14.5165302 9.7411306,14.4163743 9.66861598,14.3438596 C9.59610136,14.271345 9.49551657,14.2296296 9.39298246,14.2296296 Z" id="XMLID_710_"></path>
                <path d="M16.8331384,13.0651072 C16.7302144,13.0651072 16.6296296,13.1067836 16.557115,13.1793372 C16.4846394,13.2518519 16.4432749,13.3520468 16.4432749,13.4549708 C16.4432749,13.5575049 16.4846394,13.6580897 16.557115,13.7305653 C16.6296296,13.8030799 16.7302144,13.8448343 16.8331384,13.8448343 C16.9356725,13.8448343 17.0358674,13.8031189 17.1087719,13.7305653 C17.1812865,13.6576608 17.2230019,13.5575049 17.2230019,13.4549708 C17.2230019,13.3524366 17.1813255,13.2518519 17.1087719,13.1793372 C17.0358674,13.1067836 16.9356335,13.0651072 16.8331384,13.0651072 Z" id="XMLID_734_"></path>
                <path d="M5.29976608,11.1890838 C5.19723197,11.1890838 5.09664717,11.2307602 5.02417154,11.3033138 C4.95165692,11.3758285 4.90990253,11.4764133 4.90990253,11.5789474 C4.90990253,11.6814815 4.95161793,11.7820663 5.02417154,11.8545419 C5.09664717,11.9270565 5.19723197,11.9688109 5.29976608,11.9688109 C5.40230019,11.9688109 5.50288499,11.9270955 5.57539961,11.8545419 C5.64791423,11.7820663 5.68962963,11.6814815 5.68962963,11.5789474 C5.68962963,11.4764133 5.64795322,11.3758285 5.57539961,11.3033138 C5.502846,11.2307992 5.40230019,11.1890838 5.29976608,11.1890838 Z" id="XMLID_735_"></path>
                <path d="M19.9609747,4.23146199 C19.9609747,4.01614035 19.7863938,3.84159844 19.5711111,3.84159844 L18.9707602,3.84159844 C18.8887719,3.56779727 18.7794542,3.3037037 18.6438596,3.05192982 L19.0682651,2.62748538 C19.2205068,2.47524366 19.2205068,2.22838207 19.0682651,2.07614035 L17.8848733,0.892787524 C17.7325926,0.740545809 17.485809,0.740545809 17.3334893,0.892787524 L16.9090838,1.31719298 C16.657271,1.18159844 16.3932554,1.0722807 16.1194152,0.990253411 L16.1194152,0.389863548 C16.1194152,0.174580897 15.9448343,0 15.7295517,0 L14.0559844,0 C13.8407018,0 13.6661209,0.17454191 13.6661209,0.389863548 L13.6661209,0.991695906 C13.3928655,1.07387914 13.1293567,1.18327485 12.8781287,1.31883041 L12.4520468,0.892748538 C12.2997661,0.740506823 12.0529825,0.740506823 11.9006628,0.892748538 L10.717271,2.07614035 C10.6244834,2.16896686 10.588577,2.29688109 10.6088889,2.41711501 L1.56074074,2.41711501 C0.700155945,2.417154 9.9475983e-14,3.11730994 9.9475983e-14,3.97793372 L9.9475983e-14,14.7355556 C9.9475983e-14,15.5961404 0.700155945,16.2962963 1.56074074,16.2962963 L7.75547758,16.2962963 L7.75547758,17.6218324 L6.82120858,17.6218324 C6.04654971,17.6218324 5.4162963,18.2520858 5.4162963,19.0267446 L5.4162963,19.5711501 C5.4162963,19.7864327 5.59087719,19.9610136 5.80615984,19.9610136 L12.9796491,19.9610136 C13.1949318,19.9610136 13.3695127,19.7864327 13.3695127,19.5711501 L13.3695127,19.0267446 C13.3695127,18.2520858 12.7392982,17.6218324 11.9646394,17.6218324 L11.0303314,17.6218324 L11.0303314,16.2962963 L17.2215205,16.2962963 C18.0821442,16.2962963 18.7823002,15.5961404 18.7823002,14.7355556 L18.7823002,8.34623782 L19.0682651,8.0602729 C19.1413645,7.98717349 19.1824561,7.8879922 19.1824561,7.78460039 C19.1824561,7.68120858 19.1413645,7.58202729 19.0682651,7.50892788 L18.6421832,7.08288499 C18.7777778,6.83161793 18.8871345,6.56814815 18.9693567,6.29489279 L19.5711891,6.29489279 C19.6745809,6.29489279 19.7737622,6.25380117 19.8468616,6.18070175 C19.919961,6.10760234 19.9610526,6.00842105 19.9610526,5.90502924 L19.9609747,4.23146199 Z M12.5897856,19.0267446 L12.5897856,19.1812865 L6.19602339,19.1812865 L6.19602339,19.0267446 C6.19602339,18.6819883 6.47645224,18.4015595 6.82120858,18.4015595 L11.9646394,18.4015595 C12.3093177,18.4015595 12.5897856,18.6819883 12.5897856,19.0267446 Z M10.2506043,17.6218324 L8.53520468,17.6218324 L8.53520468,16.2962963 L10.2506043,16.2962963 L10.2506043,17.6218324 Z M18.0025731,14.7355556 C18.0025731,15.1661988 17.6522027,15.5165692 17.2215205,15.5165692 L1.56074074,15.5165692 C1.13009747,15.5165692 0.779727096,15.1661988 0.779727096,14.7355556 L0.779727096,13.8447173 L15.2737232,13.8447173 C15.4890058,13.8447173 15.6635867,13.6701365 15.6635867,13.4548538 C15.6635867,13.2395712 15.4890058,13.0649903 15.2737232,13.0649903 L0.779727096,13.0649903 L0.779727096,11.9688109 L3.75567251,11.9688109 C3.97095517,11.9688109 4.14553606,11.79423 4.14553606,11.5789474 C4.14553606,11.3636647 3.97095517,11.1890838 3.75567251,11.1890838 L0.779727096,11.1890838 L0.779727096,3.97793372 C0.779727096,3.54725146 1.13009747,3.19688109 1.56074074,3.19688109 L11.0724756,3.19688109 C10.9707602,3.4045614 10.8860819,3.61984405 10.8196491,3.84159844 L10.2144639,3.84159844 C10.1110721,3.84159844 10.0118908,3.88269006 9.93879142,3.95578947 C9.86569201,4.02888889 9.8245614,4.12807018 9.8245614,4.23146199 L9.82460039,5.90499025 C9.82460039,6.12031189 9.99918129,6.2948538 10.2144639,6.2948538 L10.8210916,6.2948538 C10.902963,6.56693957 11.0118129,6.82935673 11.1465887,7.07968811 L10.7173489,7.50896686 C10.5651072,7.66120858 10.5651072,7.90807018 10.7173489,8.06031189 L11.9007407,9.24366472 C12.0530214,9.39590643 12.2998051,9.39590643 12.4521248,9.24366472 L12.8813645,8.81442495 C13.1316959,8.94923977 13.394152,9.05808967 13.6661988,9.13992203 L13.6661598,9.74658869 C13.6661598,9.96187135 13.8407407,10.1364522 14.0560234,10.1364522 L15.7295906,10.1364133 C15.9448733,10.1364133 16.1194542,9.96187135 16.1194542,9.74654971 L16.1194542,9.14132554 C16.3920858,9.05968811 16.6550877,8.95091618 16.9059649,8.81610136 L17.3335283,9.24366472 C17.4066667,9.31676413 17.505809,9.35785575 17.6092008,9.35785575 C17.7125926,9.35785575 17.8117349,9.31676413 17.8848733,9.24366472 L18.0025731,9.12596491 L18.0025731,14.7355556 Z M19.1812865,5.51512671 L18.6683431,5.51512671 C18.4855361,5.51512671 18.3272515,5.64218324 18.2876803,5.82070175 C18.1998441,6.21730994 18.0442495,6.59220273 17.8251462,6.9348538 C17.7264327,7.08881092 17.7479532,7.29134503 17.8776998,7.42109162 L18.2412476,7.78463938 L17.6092008,8.41664717 L17.2445614,8.0520078 C17.125848,7.93337232 16.9445224,7.90389864 16.794386,7.97894737 C16.7823002,7.98495127 16.7706043,7.99161793 16.7592593,7.99883041 C16.4166472,8.21711501 16.0420273,8.37196881 15.64577,8.45922027 C15.4670175,8.4985575 15.3396881,8.65692008 15.3396881,8.83996101 L15.3396881,9.35672515 L14.445848,9.35672515 L14.445848,8.83894737 C14.445848,8.65610136 14.3187914,8.49781676 14.1402729,8.4582846 C13.7446394,8.37068226 13.3705263,8.21551657 13.0283821,7.997154 C12.96577,7.957154 12.8929435,7.93590643 12.8186355,7.93590643 C12.7152437,7.93590643 12.6159844,7.97703704 12.542846,8.05013645 L12.1763743,8.41664717 L11.5443665,7.78460039 L11.9108382,7.41812865 C12.0405848,7.28838207 12.0621053,7.08588694 11.9634308,6.93192982 C11.7452632,6.58998051 11.5902924,6.21614035 11.502729,5.82070175 C11.4631969,5.64218324 11.3049123,5.51512671 11.1220663,5.51512671 L10.6042885,5.51512671 L10.6043275,4.62132554 L11.1210136,4.62132554 C11.3040156,4.62132554 11.4624172,4.4939961 11.5017934,4.31524366 C11.5888889,3.9194152 11.7435867,3.5451462 11.9615984,3.20265107 C12.0602339,3.04873294 12.0387524,2.84619883 11.9090058,2.71649123 L11.5443275,2.35181287 L12.1763743,1.71980507 L12.539883,2.08331384 C12.6735673,2.21695906 12.8801949,2.23321637 13.0316179,2.13235867 C13.3727485,1.91512671 13.745692,1.76070175 14.1402729,1.67337232 C14.3187524,1.63384016 14.445848,1.47555556 14.445848,1.29274854 L14.4458869,0.779727096 L15.3397271,0.779727096 L15.3397271,1.29161793 C15.3397271,1.47461988 15.4670565,1.63302144 15.645809,1.67235867 C16.0431189,1.75984405 16.4186745,1.91528265 16.7619493,2.13442495 C16.7734113,2.14175439 16.7852632,2.14842105 16.7973879,2.15450292 C16.9473684,2.22951267 17.1288889,2.20011696 17.2475634,2.0814425 L17.6092008,1.71976608 L18.2412086,2.35181287 L17.8795712,2.71345029 C17.8614035,2.73161793 17.8451072,2.75150097 17.8308772,2.7728655 C17.7448343,2.90191033 17.7435867,3.06955166 17.8270565,3.1997271 C18.0459649,3.542846 18.2012865,3.91812865 18.288616,4.31516569 C18.3279532,4.49391813 18.4863158,4.62124756 18.6693957,4.62124756 L19.1813255,4.62124756 L19.1813255,5.51512671 L19.1812865,5.51512671 Z" id="XMLID_744_"></path>
                <path d="M14.8927875,2.65107212 C13.559961,2.65107212 12.4756335,3.73539961 12.4756335,5.06822612 C12.4756335,6.40105263 13.559961,7.48538012 14.8927875,7.48538012 C16.225614,7.48538012 17.3099415,6.40105263 17.3099415,5.06822612 C17.3099415,3.73539961 16.225614,2.65107212 14.8927875,2.65107212 Z M14.8927875,6.70565302 C13.9899025,6.70565302 13.2553606,5.97111111 13.2553606,5.06822612 C13.2553606,4.16534113 13.9899025,3.43079922 14.8927875,3.43079922 C15.7956725,3.43079922 16.5302144,4.16534113 16.5302144,5.06822612 C16.5302144,5.97111111 15.7956725,6.70565302 14.8927875,6.70565302 Z" id="XMLID_999_"></path>
                <path d="M6.38089669,7.29902534 C6.27793372,7.29902534 6.17777778,7.34074074 6.10526316,7.41325536 C6.03235867,7.48576998 5.99103314,7.58635478 5.99103314,7.68927875 C5.99103314,7.79181287 6.03235867,7.89239766 6.10526316,7.96491228 C6.17777778,8.0374269 6.27797271,8.07875244 6.38089669,8.07875244 C6.4834308,8.07875244 6.58401559,8.0374269 6.65653021,7.96491228 C6.72900585,7.89239766 6.77076023,7.79181287 6.77076023,7.68927875 C6.77076023,7.58635478 6.72904483,7.48576998 6.65653021,7.41325536 C6.58401559,7.34074074 6.4834308,7.29902534 6.38089669,7.29902534 Z" id="XMLID_1012_"></path>
                <path d="M9.42374269,7.01060429 C9.45052632,6.91072125 9.43649123,6.80432749 9.38479532,6.71477583 L8.72651072,5.57465887 C8.6188694,5.38822612 8.38042885,5.3242885 8.19395712,5.43196881 L7.81898635,5.64846004 C7.69582846,5.56136452 7.56553606,5.4860039 7.42888889,5.42288499 L7.42888889,4.99025341 C7.42888889,4.77493177 7.25430799,4.60038986 7.03902534,4.60038986 L5.72249513,4.60038986 C5.50721248,4.60038986 5.33263158,4.77493177 5.33263158,4.99025341 L5.33263158,5.42288499 C5.19598441,5.48604288 5.06569201,5.56136452 4.94253411,5.64846004 L4.56756335,5.43196881 C4.4780117,5.3802729 4.37157895,5.36631579 4.27173489,5.39302144 C4.17181287,5.41980507 4.08670565,5.48510721 4.03500975,5.57465887 L3.37676413,6.71477583 C3.26908382,6.90124756 3.33298246,7.13964912 3.51945419,7.24732943 L3.8945809,7.46393762 C3.88787524,7.53871345 3.88448343,7.61391813 3.88448343,7.68904483 C3.88448343,7.76417154 3.88787524,7.83937622 3.8945809,7.91415205 L3.51945419,8.13076023 C3.33298246,8.23840156 3.26908382,8.47684211 3.37676413,8.66331384 L4.03500975,9.8034308 C4.08670565,9.89298246 4.17185185,9.95832359 4.27173489,9.98506823 C4.37157895,10.0118129 4.4780117,9.99785575 4.56756335,9.94612086 L4.94253411,9.72962963 C5.06569201,9.81672515 5.19598441,9.89208577 5.33263158,9.95520468 L5.33263158,10.3878363 C5.33263158,10.6031189 5.50721248,10.7776998 5.72249513,10.7776998 L7.03902534,10.7776998 C7.25430799,10.7776998 7.42888889,10.6031189 7.42888889,10.3878363 L7.42888889,9.95520468 C7.56553606,9.89204678 7.69582846,9.81672515 7.81898635,9.72962963 L8.19395712,9.94612086 C8.38046784,10.0537622 8.61883041,9.98990253 8.72651072,9.8034308 L9.38479532,8.66331384 C9.43649123,8.57376218 9.45052632,8.46736842 9.42374269,8.36748538 C9.39695906,8.26760234 9.33165692,8.18245614 9.24210526,8.13076023 L8.86693957,7.91423002 C8.87368421,7.8394152 8.87707602,7.76421053 8.87707602,7.68912281 C8.87707602,7.61403509 8.87368421,7.53883041 8.86693957,7.46397661 L9.24210526,7.24736842 C9.33161793,7.19563353 9.39695906,7.11048733 9.42374269,7.01060429 Z M8.06132554,7.33773879 C8.08518519,7.45274854 8.09730994,7.57095517 8.09730994,7.68908382 C8.09730994,7.80721248 8.08518519,7.9254191 8.06132554,8.04042885 C8.0271345,8.2051462 8.10245614,8.37321637 8.24810916,8.45730994 L8.5145809,8.6111501 L8.24615984,9.07602339 L7.97925926,8.92194932 C7.83348928,8.83777778 7.65001949,8.85668616 7.52444444,8.96900585 C7.34666667,9.1279922 7.14237817,9.24612086 6.91723197,9.32011696 C6.75723197,9.37270955 6.64912281,9.52206628 6.64912281,9.69048733 L6.64912281,9.99808967 L6.11231969,9.99808967 L6.11231969,9.69048733 C6.11231969,9.52206628 6.00421053,9.37270955 5.84421053,9.32011696 C5.61906433,9.24612086 5.41473684,9.12795322 5.23699805,8.96900585 C5.11146199,8.85668616 4.92803119,8.83773879 4.78218324,8.92194932 L4.51528265,9.07602339 L4.24690058,8.6111501 L4.51333333,8.45730994 C4.65898635,8.37321637 4.73430799,8.2051462 4.70011696,8.04042885 C4.6762963,7.92553606 4.66417154,7.80732943 4.66417154,7.68908382 C4.66417154,7.57083821 4.6762963,7.45267057 4.70011696,7.33773879 C4.73430799,7.17302144 4.65902534,7.00499025 4.51333333,6.9208577 L4.24690058,6.76701754 L4.51528265,6.30218324 L4.78218324,6.45625731 C4.92795322,6.54046784 5.111423,6.52152047 5.23699805,6.40920078 C5.41477583,6.25021442 5.61906433,6.13208577 5.84421053,6.05808967 C6.00421053,6.00549708 6.11231969,5.85614035 6.11231969,5.6877193 L6.11231969,5.38011696 L6.64912281,5.38011696 L6.64912281,5.6877193 C6.64912281,5.85614035 6.75723197,6.00549708 6.91723197,6.05808967 C7.14237817,6.13208577 7.34670565,6.25025341 7.52444444,6.40920078 C7.64994152,6.5214425 7.83337232,6.54042885 7.97925926,6.45625731 L8.24615984,6.30214425 L8.5145809,6.76701754 L8.24810916,6.9208577 C8.10245614,7.00499025 8.0271345,7.17306043 8.06132554,7.33773879 Z" id="XMLID_1094_"></path>
            </g>
        </g>
    </g>
</svg>