<?xml version="1.0" encoding="UTF-8"?>
<svg width="16px" height="19px" viewBox="0 0 16 19" version="1.1" xmlns="http://www.w3.org/2000/svg" xmlns:xlink="http://www.w3.org/1999/xlink">
    <!-- Generator: sketchtool 54.1 (76490) - https://sketchapp.com -->
    <title>0AF3C1A9-F946-402A-969F-36F62112BD8C</title>
    <desc>Created with sketchtool.</desc>
    <g id="Admin" stroke="none" stroke-width="1" fill="none" fill-rule="evenodd">
        <g id="3.-Admin-Complaint-Detail-for-Reviewer" transform="translate(-321.000000, -556.000000)" fill="#2077F8" fill-rule="nonzero">
            <g id="doc-icon" transform="translate(321.000000, 556.000000)">
                <path d="M14.9860082,6.4567572 L14.5526255,6.4567572 L14.5526255,4.36510288 C14.5526255,4.35206584 14.5505185,4.33893004 14.5488066,4.3257284 C14.5481152,4.24266667 14.521679,4.16111934 14.464823,4.09649383 L10.9845597,0.121053498 C10.9835391,0.120032922 10.9824527,0.119670782 10.9817613,0.118584362 C10.9610535,0.0954074074 10.936856,0.0761152263 10.9112757,0.0594567901 C10.9036708,0.0543868313 10.8960658,0.0501399177 10.8880988,0.0456954733 C10.8659753,0.0336460905 10.8424691,0.0236049383 10.8182716,0.0163292181 C10.8117202,0.0145185185 10.8058601,0.0119176955 10.7993086,0.0101399177 C10.7729712,0.00388477366 10.745679,0 10.7180905,0 L2.16483951,0 C1.77425514,0 1.45698765,0.317662551 1.45698765,0.707884774 L1.45698765,6.45655967 L1.02363786,6.45655967 C0.464888889,6.45655967 0.0118518519,6.90933333 0.0118518519,7.46824691 L0.0118518519,12.7295473 C0.0118518519,13.2879342 0.464888889,13.7412675 1.02363786,13.7412675 L1.45698765,13.7412675 L1.45698765,17.3428807 C1.45698765,17.7331358 1.77425514,18.0507325 2.16483951,18.0507325 L13.8447407,18.0507325 C14.234963,18.0507325 14.5526255,17.7331358 14.5526255,17.3428807 L14.5526255,13.7413004 L14.9860082,13.7413004 C15.5445597,13.7413004 15.9976626,13.2881646 15.9976626,12.7295802 L15.9976626,7.46844444 C15.9976955,6.90936626 15.5445597,6.4567572 14.9860082,6.4567572 Z M2.16483951,0.707884774 L10.3641152,0.707884774 L10.3641152,4.32948148 C10.3641152,4.5251358 10.5227325,4.68342387 10.7180576,4.68342387 L13.8447407,4.68342387 L13.8447407,6.45672428 L2.16483951,6.45672428 L2.16483951,0.707884774 Z M10.6580741,9.81135802 C10.6580741,11.4204774 9.68246914,12.3958848 8.24793416,12.3958848 C6.79183539,12.3958848 5.9399177,11.2965597 5.9399177,9.89879835 C5.9399177,8.42795062 6.87911111,7.32862551 8.32796708,7.32862551 C9.83493004,7.32862551 10.6580741,8.45695473 10.6580741,9.81135802 Z M1.09777778,12.2940576 L1.09777778,7.47446914 C1.50548148,7.40879012 2.03687243,7.37234568 2.59776132,7.37234568 C3.52961317,7.37234568 4.13379424,7.53988477 4.60707819,7.89649383 C5.11670782,8.27519342 5.43723457,8.87957202 5.43723457,9.74584362 C5.43723457,10.6851029 5.09511111,11.3330041 4.62195885,11.7334321 C4.10495473,12.1630617 3.31855144,12.3667819 2.35739918,12.3667819 C1.781893,12.3668148 1.37435391,12.3304033 1.09777778,12.2940576 Z M13.8447407,17.1510123 L2.16483951,17.1510123 L2.16483951,13.7413004 L13.8447407,13.7413004 L13.8447407,17.1510123 Z M13.8982716,11.4715062 C14.2332181,11.4715062 14.6046091,11.398321 14.8228807,11.3112757 L14.9905514,12.1776132 C14.7865679,12.2799342 14.3279342,12.3886091 13.7310288,12.3886091 C12.0346337,12.3886091 11.160856,11.333037 11.160856,9.93507819 C11.160856,8.26090535 12.3548313,7.32862551 13.8398683,7.32862551 C14.4150123,7.32862551 14.8522469,7.44510288 15.0489547,7.54716049 L14.8230782,8.42795062 C14.5975309,8.33339918 14.2844115,8.24586008 13.8910947,8.24586008 C13.0101728,8.24586008 12.3256626,8.77744856 12.3256626,9.8694321 C12.3254979,10.8524115 12.9080494,11.4715062 13.8982716,11.4715062 Z" id="Shape"></path>
                <path d="M4.2575144,9.78228807 C4.26479012,8.76276543 3.66765432,8.22406584 2.71413992,8.22406584 C2.4665679,8.22406584 2.30604115,8.24582716 2.21158848,8.26781893 L2.21158848,11.478749 C2.30600823,11.500642 2.45916049,11.500642 2.59756379,11.500642 C3.60220576,11.5077531 4.2575144,10.9543704 4.2575144,9.78228807 Z" id="Path"></path>
                <path d="M7.11216461,9.8766749 C7.11216461,10.8380576 7.56365432,11.5150288 8.30620576,11.5150288 C9.05623045,11.5150288 9.48569547,10.801284 9.48569547,9.84767078 C9.48569547,8.96641975 9.06350617,8.20954733 8.29893004,8.20954733 C7.54933333,8.20974486 7.11216461,8.92322634 7.11216461,9.8766749 Z" id="Path"></path>
            </g>
        </g>
    </g>
</svg>