<?xml version="1.0" encoding="UTF-8"?>
<svg width="23px" height="26px" viewBox="0 0 23 26" version="1.1" xmlns="http://www.w3.org/2000/svg" xmlns:xlink="http://www.w3.org/1999/xlink">
    <!-- Generator: Sketch 55.2 (78181) - https://sketchapp.com -->
    <title>doc-file-format</title>
    <desc>Created with Sketch.</desc>
    <g id="Index" stroke="none" stroke-width="1" fill="none" fill-rule="evenodd">
        <g id="9.-Fee-Schedule" transform="translate(-282.000000, -431.000000)" fill="#686868" fill-rule="nonzero">
            <g id="doc-file-format" transform="translate(282.000000, 431.000000)">
                <path d="M21.5423868,9.17539181 L20.9193992,9.17539181 L20.9193992,6.20304094 C20.9193992,6.18451462 20.9163704,6.16584795 20.9139095,6.14708772 C20.9129156,6.02905263 20.8749136,5.91316959 20.7931831,5.82133333 L15.7903045,0.172023392 C15.7888374,0.170573099 15.7872757,0.17005848 15.7862819,0.16851462 C15.7565144,0.135578947 15.7217305,0.108163743 15.6849588,0.0844912281 C15.6740267,0.0772865497 15.6630947,0.071251462 15.651642,0.0649356725 C15.6198395,0.0478128655 15.5860494,0.0335438596 15.5512654,0.0232046784 C15.5418477,0.0206315789 15.5334239,0.0169356725 15.5240062,0.0144093567 C15.4861461,0.00552046784 15.4469136,0 15.4072551,0 L3.11195679,0 C2.55049177,0 2.09441975,0.451415205 2.09441975,1.00594152 L2.09441975,9.17511111 L1.47147942,9.17511111 C0.668277778,9.17511111 0.017037037,9.81852632 0.017037037,10.6127719 L0.017037037,18.0893567 C0.017037037,18.8828538 0.668277778,19.5270643 1.47147942,19.5270643 L2.09441975,19.5270643 L2.09441975,24.6451462 C2.09441975,25.1997193 2.55049177,25.6510409 3.11195679,25.6510409 L19.9018148,25.6510409 C20.4627593,25.6510409 20.9193992,25.1997193 20.9193992,24.6451462 L20.9193992,19.5271111 L21.5423868,19.5271111 C22.3453045,19.5271111 22.9966399,18.8831813 22.9966399,18.0894035 L22.9966399,10.6130526 C22.9966399,9.8185731 22.3453045,9.17539181 21.5423868,9.17539181 Z M3.11195679,1.00594152 L14.8984156,1.00594152 L14.8984156,6.15242105 C14.8984156,6.43045614 15.126428,6.65539181 15.4072078,6.65539181 L19.9018148,6.65539181 L19.9018148,9.17534503 L3.11195679,9.17534503 L3.11195679,1.00594152 Z M15.3209815,13.9424561 C15.3209815,16.2290994 13.9185494,17.6152047 11.8564053,17.6152047 C9.76326337,17.6152047 8.53863169,16.0530058 8.53863169,14.0667135 C8.53863169,11.9765614 9.88872222,10.4143626 11.9714527,10.4143626 C14.1377119,10.4143626 15.3209815,12.0177778 15.3209815,13.9424561 Z M1.57805556,17.4705029 L1.57805556,10.621614 C2.16412963,10.5282807 2.92800412,10.4764912 3.73428189,10.4764912 C5.07381893,10.4764912 5.94232922,10.7145731 6.6226749,11.2213333 C7.35526749,11.7594854 7.81602469,12.6183392 7.81602469,13.8493567 C7.81602469,15.1840936 7.32422222,16.1047953 6.64406584,16.6738246 C5.90087243,17.2843509 4.7704177,17.573848 3.38876132,17.573848 C2.56147119,17.573848 1.97563374,17.522152 1.57805556,17.4705029 Z M19.9018148,24.3724912 L3.11195679,24.3724912 L3.11195679,19.5271111 L19.9018148,19.5271111 L19.9018148,24.3724912 Z M19.9787654,16.301614 C20.460251,16.301614 20.9941255,16.197614 21.3078909,16.0739181 L21.5489177,17.3050292 C21.2556914,17.4504327 20.5964053,17.6048655 19.7383539,17.6048655 C17.299786,17.6048655 16.0437305,16.1048421 16.0437305,14.118269 C16.0437305,11.7391813 17.76007,10.4143626 19.8948107,10.4143626 C20.7215802,10.4143626 21.3501049,10.579883 21.6328724,10.7249123 L21.3081749,11.9765614 C20.9839506,11.8421988 20.5338416,11.7178012 19.9684486,11.7178012 C18.7021235,11.7178012 17.7181399,12.4732164 17.7181399,14.0249825 C17.7179033,15.421848 18.555321,16.301614 19.9787654,16.301614 Z" id="Shape"></path>
                <path d="M6.12017695,13.9011462 C6.1306358,12.4523509 5.27225309,11.6868304 3.90157613,11.6868304 C3.54569136,11.6868304 3.31493416,11.7177544 3.17915844,11.7490058 L3.17915844,16.3119064 C3.31488683,16.3430175 3.53504321,16.3430175 3.73399794,16.3430175 C5.17817078,16.3531228 6.12017695,15.5667368 6.12017695,13.9011462 Z" id="Path"></path>
                <path d="M10.2237366,14.0352749 C10.2237366,15.4014503 10.8727531,16.363462 11.9401708,16.363462 C13.0183313,16.363462 13.6356872,15.349193 13.6356872,13.9940585 C13.6356872,12.7417544 13.0287901,11.6661988 11.9297119,11.6661988 C10.8521667,11.6664795 10.2237366,12.6803743 10.2237366,14.0352749 Z" id="Path"></path>
            </g>
        </g>
    </g>
</svg>