<?xml version="1.0" encoding="UTF-8"?>
<svg width="16px" height="14px" viewBox="0 0 16 14" version="1.1" xmlns="http://www.w3.org/2000/svg" xmlns:xlink="http://www.w3.org/1999/xlink">
    <!-- Generator: sketchtool 54.1 (76490) - https://sketchapp.com -->
    <title>2D0652C2-1C95-4EB1-A110-01498341DF2E</title>
    <desc>Created with sketchtool.</desc>
    <g id="Admin" stroke="none" stroke-width="1" fill="none" fill-rule="evenodd">
        <g id="3.-Admin-Complaint-Detail-for-Reviewer" transform="translate(-319.000000, -611.000000)" fill="#95006D" fill-rule="nonzero">
            <g id="image-icon" transform="translate(319.000000, 611.000000)">
                <path d="M15.7332764,13.333374 L1.86669922,13.333374 C1.71948244,13.333374 1.59997559,13.2141113 1.59997559,13.0666504 L1.59997559,1.86669922 C1.59997559,1.71923828 1.71948244,1.59997559 1.86669922,1.59997559 L15.7332764,1.59997559 C15.8804932,1.59997559 16,1.71923828 16,1.86669922 L16,13.0666504 C16,13.2141113 15.8804932,13.333374 15.7332764,13.333374 Z M2.13330078,12.8000488 L15.4666748,12.8000488 L15.4666748,2.13330078 L2.13330078,2.13330078 L2.13330078,12.8000488 Z" id="Shape"></path>
                <path d="M1.86669922,11.7332764 L0.266723625,11.7332764 C0.119506844,11.7332764 0,11.6141358 0,11.4666748 L0,0.266723625 C0,0.119140625 0.119506844,2.84217094e-14 0.266723625,2.84217094e-14 L14.1333008,2.84217094e-14 C14.2805176,2.84217094e-14 14.4000244,0.119140625 14.4000244,0.266723625 L14.4000244,1.86669922 C14.4000244,2.01416016 14.2805176,2.13330078 14.1333008,2.13330078 L2.13330078,2.13330078 L2.13330078,11.4666748 C2.13330078,11.6141358 2.013916,11.7332764 1.86669922,11.7332764 L1.86669922,11.7332764 Z M0.533325187,11.1999512 L1.59997559,11.1999512 L1.59997559,1.86669922 C1.59997559,1.71923828 1.71948244,1.59997559 1.86669922,1.59997559 L13.8666992,1.59997559 L13.8666992,0.533325188 L0.533325187,0.533325188 L0.533325187,11.1999512 Z" id="Shape"></path>
                <path d="M15.7332764,13.333374 L8.59252931,13.333374 C8.48742675,13.333374 8.39221191,13.2717285 8.34936525,13.1757812 C8.3063965,13.0803222 8.32348631,12.9680176 8.39331056,12.8896484 L12.6008301,8.15625 C12.7019043,8.04211425 12.8981934,8.04211425 12.9995117,8.15625 L15.9327393,11.4562988 C15.9763184,11.5051269 16,11.5679932 16,11.6333008 L16,13.0666504 C16,13.2141113 15.8804932,13.333374 15.7332764,13.333374 L15.7332764,13.333374 Z M9.18640138,12.8000488 L15.4666748,12.8000488 L15.4666748,11.7346191 L12.8000488,8.73461913 L9.18640138,12.8000488 Z" id="Shape"></path>
                <path d="M8.59252931,13.333374 L1.86669922,13.333374 C1.71948244,13.333374 1.59997559,13.2141113 1.59997559,13.0666504 L1.59997559,8.63330078 C1.59997559,8.56799316 1.62402344,8.50512694 1.66748047,8.45629881 L5.13415528,4.55627441 C5.2352295,4.44213869 5.43151856,4.44213869 5.53283691,4.55627441 L10.8660889,10.5562744 C10.9560547,10.6573486 10.9560547,10.8093262 10.8660889,10.9104004 L8.79199219,13.2437744 C8.741333,13.3007813 8.66882325,13.333374 8.59252931,13.333374 Z M2.13330078,12.8000488 L8.47277831,12.8000488 L10.3098144,10.7332764 L5.33337403,5.13464356 L2.13330078,8.73461912 L2.13330078,12.8000488 Z" id="Shape"></path>
                <path d="M10.9333496,6.66666667 C10.1981201,6.66666667 9.59997559,6.06851301 9.59997559,5.33339438 C9.59997559,4.59815366 10.1981201,4 10.9333496,4 C11.6685791,4 12.2667236,4.59815366 12.2667236,5.33339438 C12.2667236,6.06851301 11.6685791,6.66666667 10.9333496,6.66666667 L10.9333496,6.66666667 Z M10.9333496,4.53333333 C10.4923096,4.53333333 10.1333008,4.89222552 10.1333008,5.33339438 C10.1333008,5.77444114 10.4923096,6.13333334 10.9333496,6.13333334 C11.3743897,6.13333334 11.7332764,5.77444114 11.7332764,5.33339438 C11.7332764,4.89222552 11.3743897,4.53333333 10.9333496,4.53333333 L10.9333496,4.53333333 Z" id="Shape"></path>
            </g>
        </g>
    </g>
</svg>