<?xml version="1.0" encoding="UTF-8"?>
<svg width="30px" height="30px" viewBox="0 0 30 30" version="1.1" xmlns="http://www.w3.org/2000/svg" xmlns:xlink="http://www.w3.org/1999/xlink">
    <!-- Generator: Sketch 55.2 (78181) - https://sketchapp.com -->
    <title>location-contact-icon</title>
    <desc>Created with Sketch.</desc>
    <defs>
        <path d="M3.46153846,6.92307692 C1.55273077,6.92307692 0,5.36982692 0,3.46153846 C0,1.55325 1.55273077,0 3.46153846,0 C5.37034615,0 6.92307692,1.55325 6.92307692,3.46153846 C6.92307692,5.36982692 5.37034615,6.92307692 3.46153846,6.92307692 Z M3.46153846,0.989019231 C2.09821154,0.989019231 0.989019231,2.09821154 0.989019231,3.46153846 C0.989019231,4.82486538 2.09821154,5.93405769 3.46153846,5.93405769 C4.82486538,5.93405769 5.93405769,4.82486538 5.93405769,3.46153846 C5.93405769,2.09821154 4.82486538,0.989019231 3.46153846,0.989019231 Z" id="path-1"></path>
        <path d="M9.52021154,27.1153846 L1.89294231,16.128 C-0.952153846,12.3441923 -0.539134615,6.10032692 2.7885,2.78151923 C4.58659615,0.987923077 6.97742308,0 9.52021154,0 C12.0629423,0 14.4537692,0.987923077 16.2518654,2.78198077 C19.5795,6.10078846 19.9925192,12.3447115 17.1360577,16.1433462 L9.52021154,27.1153846 Z M3.49044231,3.48173077 C0.4875,6.47717308 0.117173077,12.1164231 2.69867308,15.5491154 L9.52021154,25.3752692 L16.3307885,15.564 C18.9231923,12.1164231 18.5533846,6.47717308 15.5499231,3.48173077 C13.9389808,1.87528846 11.7978462,0.990403846 9.52021154,0.990403846 C7.24251923,0.990403846 5.10138462,1.87528846 3.49044231,3.48173077 Z" id="path-3"></path>
        <path d="M21.0585,0.00398076923 C26.3229808,0.635192308 30,2.41269231 30,4.32715385 C30,6.47723077 24.8475,8.65384615 15,8.65384615 C5.1525,8.65384615 0,6.47723077 0,4.32715385 C0,2.41269231 3.67701923,0.635192308 8.9415,0.00398076923 C9.216,-0.0311538462 9.46401923,0.170423077 9.4965,0.449884615 C9.52851923,0.728826923 9.33248077,0.982326923 9.0585,1.01492308 C3.80048077,1.64509615 0.999980769,3.34321154 0.999980769,4.32715385 C0.999980769,5.70859615 6.32601923,7.63580769 15,7.63580769 C23.6739808,7.63580769 29.0000192,5.70859615 29.0000192,4.32715385 C29.0000192,3.34321154 26.1995192,1.64509615 20.9415,1.01492308 C20.6675192,0.982326923 20.4714808,0.729346154 20.5035,0.449884615 C20.5355192,0.170423077 20.7834808,-0.0301153846 21.0585,0.00398076923 Z" id="path-5"></path>
    </defs>
    <g id="Index" stroke="none" stroke-width="1" fill="none" fill-rule="evenodd">
        <g id="18.-Contact-Us" transform="translate(-290.000000, -367.000000)">
            <g id="location-contact-icon" transform="translate(290.000000, 367.000000)">
                <g id="Group-54" transform="translate(11.538462, 5.769231)">
                    <mask id="mask-2" fill="white">
                        <use xlink:href="#path-1"></use>
                    </mask>
                    <g id="Clip-53"></g>
                    <polygon id="Fill-52" fill="#004545" mask="url(#mask-2)" points="-2.88461538 -2.88461538 9.80769231 -2.88461538 9.80769231 9.80769231 -2.88461538 9.80769231"></polygon>
                </g>
                <g id="Group-57" transform="translate(5.192308, 0.000000)">
                    <mask id="mask-4" fill="white">
                        <use xlink:href="#path-3"></use>
                    </mask>
                    <g id="Clip-56"></g>
                    <polygon id="Fill-55" fill="#004545" mask="url(#mask-4)" points="-2.88461538 -2.88461538 21.9230769 -2.88461538 21.9230769 30 -2.88461538 30"></polygon>
                </g>
                <g id="Group-60" transform="translate(0.000000, 21.346154)">
                    <mask id="mask-6" fill="white">
                        <use xlink:href="#path-5"></use>
                    </mask>
                    <g id="Clip-59"></g>
                    <polygon id="Fill-58" fill="#004545" mask="url(#mask-6)" points="-2.88461538 -2.88461538 32.8846154 -2.88461538 32.8846154 11.5384615 -2.88461538 11.5384615"></polygon>
                </g>
            </g>
        </g>
    </g>
</svg>