<?xml version="1.0" encoding="UTF-8"?>
<svg width="259px" height="53px" viewBox="0 0 259 53" version="1.1" xmlns="http://www.w3.org/2000/svg" xmlns:xlink="http://www.w3.org/1999/xlink">
    <!-- Generator: sketchtool 54.1 (76490) - https://sketchapp.com -->
    <title>DCDDF1CF-7309-4FEA-8187-D9365CA703E9</title>
    <desc>Created with sketchtool.</desc>
    <defs>
        <polygon id="path-1" points="0 59 68 59 68 0 0 0"></polygon>
    </defs>
    <g id="Admin" stroke="none" stroke-width="1" fill="none" fill-rule="evenodd">
        <g id="0.-Admin-Login" transform="translate(-444.000000, -154.000000)">
            <g id="logo-login" transform="translate(442.000000, 144.000000)">
                <g id="Coat_of_arms_of_Balochistan" transform="translate(0.000000, 6.000000)">
                    <mask id="mask-2" fill="white">
                        <use xlink:href="#path-1"></use>
                    </mask>
                    <g id="path7"></g>
                    <g id="g10" mask="url(#mask-2)">
                        <g transform="translate(3.000000, 4.000000)">
                            <path d="M30.790822,0.0726667167 C42.2733489,0.0726667167 51.6384456,9.43428377 51.6384456,20.9130692 C51.6384456,23.3157745 51.2266754,25.6252956 50.4728325,27.7758042 L44.9654614,23.5089832 L37.9905983,32.9676321 L30.7998013,21.995804 L24.2029291,33.4002126 L16.7961994,22.752393 L11.5778793,28.9923317 C10.5260061,26.5058464 9.94319958,23.7752851 9.94319958,20.9130692 C9.94319958,9.43428377 19.3082951,0.0726667167 30.790822,0.0726667167 L30.790822,0.0726667167 Z M28.3522714,4.92851685 C28.0841718,4.98750523 27.8408721,5.04050922 27.5727725,5.09949749 L28.1025583,4.50320259 L27.6980576,3.81457805 L28.4305201,4.13431184 L28.9611609,3.53758941 L28.8824842,4.33179453 L29.6136649,4.65238317 C29.3541165,4.70880679 29.0941413,4.76608535 28.834166,4.82250886 L28.7563441,5.6171414 L28.3522714,4.92851685 Z M27.1588645,7.35815183 C27.6771052,8.50158477 28.8298903,9.29920962 30.1631191,9.29920962 C31.9786693,9.29920962 33.4598443,7.81851718 33.4598443,6.00398518 C33.4598443,4.53483396 32.4896406,3.28539302 31.1576948,2.86178846 C31.8760475,3.41491078 32.3404115,4.28221004 32.3404115,5.25508998 C32.3404115,6.91702179 30.9836657,8.27332567 29.3207642,8.27332567 C28.4745627,8.27332567 27.7083198,7.92238794 27.1588645,7.35815183 Z M25.3621277,12.7855043 C26.5679346,12.734638 29.3382958,15.6968772 29.2762947,16.2666701 C28.9363609,17.3310254 28.6755296,18.7262274 28.6827991,19.2220712 C28.6802376,20.1782803 28.9461951,20.662155 28.9119878,21.0028338 C28.4245336,21.9162982 28.1705449,22.678444 27.8006794,23.8022141 C27.5821798,23.9338698 27.0203256,23.9449833 26.8582685,23.8338464 C26.9283939,23.6115716 26.9985183,23.6077241 27.3042459,23.4880376 C27.7592027,22.7472642 28.0191779,21.9479294 28.2641874,21.1648381 C28.2723096,20.1842638 27.7634783,19.8423026 27.6497394,18.8053053 C27.4778481,19.5866873 27.6377663,20.4274842 27.503503,20.7121667 C27.2914179,21.5615131 26.7355503,22.4801065 26.4922506,23.4290496 C26.236979,23.5491628 25.7969881,23.531638 25.5194811,23.4093865 C25.7542284,23.0157032 25.8906306,23.1358175 26.2104681,22.9135427 C26.5174786,22.0825768 26.738543,21.327697 26.9596074,20.6638653 C27.1695546,19.6738869 26.7432466,18.9523486 26.5097823,18.1025754 C26.198923,18.2017441 25.8085332,18.2996304 25.4818531,18.3073243 C25.0170622,18.3171509 24.5822018,18.0794927 24.1246793,17.997422 C24.2230255,18.9852622 24.6164091,19.4601616 24.617264,20.206064 C24.1020171,21.3640302 23.9433807,23.1328258 23.8369113,23.4140886 C23.5786458,23.514112 23.3473193,23.5448886 23.1737171,23.4756417 C23.1266829,23.5577124 23.0796476,23.6402109 23.0009709,23.706465 C22.5195032,23.7539128 22.1932512,23.8441052 22.0910574,23.6414923 C22.4416814,23.1029039 22.1132916,23.4888923 22.648636,23.1507785 C22.7183334,21.3041876 22.7833272,19.3032862 22.7683614,17.3720607 C22.7401407,17.2365576 22.5699592,17.0536089 22.2877487,17.0450593 C22.1252647,17.1232836 22.0470159,17.2374133 21.7998676,17.2314288 C20.841209,17.1070402 20.4315766,15.9627524 20.4174668,15.6789246 C20.4161861,15.1899199 20.6971104,14.3157815 20.5675508,12.9714459 C20.3909559,12.8709946 20.2994512,12.7128378 20.038621,12.6547044 C19.6764519,12.6568382 19.3749999,12.6508525 19.1616319,12.4542297 C19.3878279,11.6762684 19.8350871,11.7083263 20.5675508,11.6865272 C20.6552068,11.6159967 20.7432908,11.5454673 20.8313748,11.474938 C21.0575697,11.5018681 21.1725916,11.6390794 21.2717926,11.7916795 C21.5595617,11.8211735 21.6416592,11.8352798 21.9294283,11.864346 C21.9024894,12.0225039 21.8597308,12.1652719 21.7545432,12.3238566 C21.7481287,12.7354926 21.7002396,13.1650813 21.4830228,13.5348273 C21.4898643,14.2606399 21.3402072,15.1446103 21.9756076,15.2424966 C22.8000029,15.1612805 24.6223957,12.6671003 25.3621277,12.7855043 L25.3621277,12.7855043 Z M23.3550156,18.6787796 C23.6620262,18.674501 24.015216,19.6627734 24.0400171,20.1859742 C23.9869953,21.0797756 23.6744262,22.0120474 23.5884811,22.7652168 C23.4619142,22.8130914 23.2784778,22.9387625 23.1925316,23.0097197 C23.0206403,22.3860677 23.1797036,21.3759994 23.1587523,20.8040695 C23.3562985,20.5946174 23.3404778,19.3849302 23.3550156,18.6787796 L23.3550156,18.6787796 Z M37.1845895,12.7855043 C38.3903954,12.734638 41.1607576,15.6968772 41.0987565,16.2666701 C40.7588216,17.3310254 40.4975634,18.7262274 40.5048329,19.2220712 C40.5022714,20.1782803 40.7678009,20.662155 40.7340216,21.0028338 C40.2461405,21.9162982 39.9925787,22.678444 39.6231401,23.8022141 C39.4037867,23.9338698 38.8423594,23.9449833 38.6807303,23.8338464 C38.7499997,23.6115716 38.8209801,23.6077241 39.1258517,23.4880376 C39.5812365,22.7472642 39.8412118,21.9479294 40.0866492,21.1648381 C40.0943445,20.1842638 39.5850852,19.8423026 39.4717732,18.8053053 C39.2998819,19.5866873 39.4598001,20.4274842 39.3259648,20.7121667 C39.1134517,21.5615131 38.5575841,22.4801065 38.3147124,23.4290496 C38.0590128,23.5491628 37.6185939,23.531638 37.341943,23.4093865 C37.5758353,23.0157032 37.7122364,23.1358175 38.0325019,22.9135427 C38.3395124,22.0825768 38.5610048,21.327697 38.7812143,20.6638653 C38.9920165,19.6738869 38.5657085,18.9523486 38.332243,18.1025754 C38.0213848,18.2017441 37.630567,18.2996304 37.303887,18.3073243 C36.838668,18.3171509 36.4042357,18.0794927 35.9462862,17.997422 C36.0446324,18.9852622 36.438016,19.4601616 36.4397258,20.206064 C35.923624,21.3640302 35.7654145,23.1328258 35.659372,23.4140886 C35.4011076,23.514112 35.1693531,23.5448886 34.995324,23.4756417 C34.9482887,23.5577124 34.9012534,23.6402109 34.8230047,23.706465 C34.341537,23.7539128 34.015285,23.8441052 33.9135192,23.6414923 C34.2641432,23.1029039 33.9353254,23.4888923 34.4706698,23.1507785 C34.5407941,21.3041876 34.6053611,19.3032862 34.5903952,17.3720607 C34.5626014,17.2365576 34.3919931,17.0536089 34.1102105,17.0450593 C33.9472985,17.1232836 33.8686218,17.2374133 33.6219014,17.2314288 C32.6636708,17.1070402 32.2536104,15.9627524 32.2390726,15.6789246 C32.2377919,15.1899199 32.5191443,14.3157815 32.3891566,12.9714459 C32.2134177,12.8709946 32.121485,12.7128378 31.8610828,12.6547044 C31.4980577,12.6568382 31.1974617,12.6508525 30.9836657,12.4542297 C31.2102886,11.6762684 31.657549,11.7083263 32.3891566,11.6865272 C32.4772406,11.6159967 32.5657526,11.5454673 32.6534086,11.474938 C32.8791766,11.5018681 32.9941985,11.6390794 33.0938265,11.7916795 C33.3811676,11.8211735 33.463693,11.8352798 33.7510341,11.864346 C33.7245232,12.0225039 33.6821916,12.1652719 33.576149,12.3238566 C33.5705883,12.7354926 33.5218454,13.1650813 33.3050567,13.5348273 C33.312325,14.2606399 33.162241,15.1446103 33.7980694,15.2424966 C34.6220367,15.1612805 36.4448575,12.6671003 37.1845895,12.7855043 L37.1845895,12.7855043 Z M35.1766225,18.6787796 C35.48406,18.674501 35.8372498,19.6627734 35.8624778,20.1859742 C35.8090291,21.0797756 35.496888,22.0120474 35.4100869,22.7652168 C35.283948,22.8130914 35.1009385,22.9387625 35.0141374,23.0097197 C34.8431011,22.3860677 35.0013105,21.3759994 34.9803582,20.8040695 C35.1783323,20.5946174 35.1620847,19.3849302 35.1766225,18.6787796 L35.1766225,18.6787796 Z" id="path12" stroke="none" fill="#01923F" fill-rule="evenodd"></path>
                            <path d="M30.9969211,38.8929425 C46.9422135,38.9305582 57.8658795,48.3780934 57.9389969,50.1314998 C57.8970929,50.9496422 57.0307937,51.0757397 57.0149736,51.409152 C57.0175459,51.7977061 57.3074458,51.9994633 57.7337532,51.9366272 C58.3888225,52.0097221 60.7341594,47.4159005 61.9604902,44.6344723 C53.3453883,37.550317 43.383375,33.2980285 31.4668429,33.1522675 L31.4672534,33.1484211 C31.3470996,33.1479971 31.2273742,33.1484211 31.1076487,33.1484211 C31.070449,33.1484211 31.0336762,33.1484211 30.9969033,33.1484211 C30.9601305,33.1484211 30.9233577,33.1484211 30.8861566,33.1484211 C30.7664311,33.1484211 30.647134,33.1479971 30.5269802,33.1484211 L30.5269802,33.1522675 C18.6113225,33.2980285 8.64845399,37.550317 0.0342072738,44.6344723 C1.26011045,47.4159005 3.60544666,52.0097221 4.26051595,51.9366272 C4.6868241,51.9994633 4.97715833,51.7977061 4.97972388,51.409152 C4.96347542,51.0757397 4.09717622,50.9496422 4.05527231,50.1314998 C4.12881794,48.3780934 15.0516287,38.9305582 30.9969211,38.8929425 Z" id="path14" stroke="#01923F" stroke-width="1" fill="none" transform="translate(30.997349, 42.548093) scale(-1, 1) rotate(-180.000000) translate(-30.997349, -42.548093) "></path>
                            <path d="M4.41402109,41.1917987 L11.7390812,41.2114614 C12.6344566,41.2131713 13.4011278,40.0342598 13.3776096,38.3590763 C13.3476782,36.1863405 12.4086886,34.6359742 11.4500297,33.1369008" id="path16" stroke="#01923F" stroke-width="1" fill="none" transform="translate(8.896079, 37.174182) scale(-1, 1) rotate(-180.000000) translate(-8.896079, -37.174182) "></path>
                            <path d="M5.14648434,33.6767744 C5.41330107,33.4703152 5.72458727,33.4728791 6.01363873,33.5032288 C7.38535041,33.6472793 7.53415205,34.5902378 7.57520078,35.5648274 C7.61539427,36.4996642 6.5823346,36.7480135 6.93894548,37.434501 C7.20918295,37.9538543 7.85185213,37.9213685 8.11482047,37.9354737 C8.88533936,37.9773648 9.47370447,38.7690046 10.1775189,38.6292283 C10.427232,38.5796434 10.6461585,38.4364475 10.8526851,38.4172124 C11.1780822,38.3868626 11.4598647,38.6629966 11.4111185,39.1109659 C11.3884563,39.3212726 11.105392,39.4512179 11.1417371,39.8816613 C11.1571298,40.0684575 11.267448,40.271925 11.430788,40.3638267 C11.6159353,40.4676975 12.2196931,40.2548269 12.0670433,40.402297 C11.894724,40.5685756 11.6279073,41.1841059 11.5077549,41.1533293 C6.43866405,38.5501494 4.03474794,36.16497 4.04757561,34.678721 C4.05227925,34.1833039 4.75481105,33.9802642 5.14648434,33.6767744" id="path18" stroke="none" fill="#01923F" fill-rule="evenodd"></path>
                            <path d="M57.6503737,41.1917987 L50.324886,41.2114614 C49.4299375,41.2131713 48.6632677,40.0342598 48.6863576,38.3590763 C48.7167158,36.1863405 49.6561338,34.6359742 50.6143644,33.1369008" id="path20" stroke="#01923F" stroke-width="1" fill="none" transform="translate(53.168111, 37.174182) scale(-1, 1) rotate(-180.000000) translate(-53.168111, -37.174182) "></path>
                            <path d="M56.9179108,33.6767744 C56.651521,33.4703152 56.3398079,33.4728791 56.0503279,33.5032288 C54.6786162,33.6472793 54.53067,34.5902378 54.4887664,35.5648274 C54.4494275,36.4996642 55.4816322,36.7480135 55.1250217,37.434501 C54.8556391,37.9538543 54.2125424,37.9213685 53.9491464,37.9354737 C53.1786278,37.9773648 52.5906907,38.7690046 51.8864478,38.6292283 C51.6367347,38.5796434 51.4182361,38.4364475 51.2117096,38.4172124 C50.8863125,38.3868626 50.6045299,38.6629966 50.6528481,39.1109659 C50.6755103,39.3212726 50.9585757,39.4512179 50.9226576,39.8816613 C50.9072648,40.0684575 50.7965186,40.271925 50.6336066,40.3638267 C50.4484594,40.4676975 49.8447015,40.2548269 49.9973513,40.402297 C50.1696706,40.5685756 50.4360594,41.1841059 50.5566397,41.1533293 C55.6257308,38.5501494 58.0296472,36.16497 58.0163912,34.678721 C58.0121112,34.1833039 57.3100116,33.9802642 56.9179108,33.6767744" id="path22" stroke="none" fill="#01923F" fill-rule="evenodd"></path>
                            <path d="M3.53532174,50.756702 C5.0259037,50.5592193 6.07050832,49.5961709 7.25664554,49.4841786 C8.22941489,49.3914216 9.0294375,49.7282534 9.88162621,49.4841786 C10.2339611,49.4055275 10.6239241,48.7220324 10.5862961,48.2501258 C10.5461025,47.7427408 10.181795,47.2909244 9.6464512,47.2319361 C8.921257,47.1994498 7.61453914,47.8966233 6.51263734,48.0351177 C5.42912194,48.1706198 4.02491335,47.9761293 2.86956268,48.0740158" id="path24" stroke="#01923F" stroke-width="1" fill="none" transform="translate(6.729192, 48.993769) scale(-1, 1) rotate(-180.000000) translate(-6.729192, -48.993769) "></path>
                            <path d="M3.64991611,49.8827643 C4.1262524,49.726317 4.31866831,49.0005042 4.07665185,48.2682796 C3.83591816,47.5356276 3.25097378,47.0662857 2.7742099,47.222733 C2.29744602,47.3796077 2.1054577,48.1049931 2.34661898,48.8376451 C2.58778026,49.5694422 3.17315223,50.0392116 3.64991611,49.8827643 Z" id="path26" stroke="#01923F" stroke-width="1" fill="none" transform="translate(3.211873, 48.552740) scale(-1, 1) rotate(-180.000000) translate(-3.211873, -48.552740) "></path>
                            <path d="M2.94738423,49.7961085 C1.98530465,48.6578049 1.03519762,47.0693948 0.989017803,45.0578076 C0.951817393,43.4454601 1.88610356,42.7162277 2.94738423,42.7277689" id="path28" stroke="#01923F" stroke-width="1" fill="none" transform="translate(1.967664, 46.261871) scale(-1, 1) rotate(-180.000000) translate(-1.967664, -46.261871) "></path>
                            <path d="M2.55571091,47.7399314 C2.76138212,47.4317384 2.92899776,48.2588579 3.33948505,48.2686889 C3.6926752,48.2772352 4.16217009,48.0310263 4.20150835,48.2883519 C4.32978573,49.1458201 3.75895182,49.8912957 2.86956271,49.9524209 C2.12512683,50.0041429 1.77792311,48.9064472 2.55571091,47.7399314" id="path30" stroke="none" fill="#01923F" fill-rule="evenodd"></path>
                            <path d="M8.39446498,46.2117924 C8.44834149,46.9688093 7.52004158,47.2244245 7.58546296,47.9562216 C7.60983561,48.2276535 8.2148768,48.2998933 8.458176,48.4794224 C7.80481707,48.5508075 7.03814658,48.4926741 6.42754674,48.3528967 C6.99410469,48.0673596 7.16685142,47.7873781 7.17326531,47.4962843 C7.18780335,46.7713264 6.88036556,46.4058546 6.57036216,46.4178237 C6.23256528,46.4315022 6.07649462,46.9175151 5.68182817,46.878189 C5.03146241,46.8127885 4.9951171,46.0711604 4.38109664,45.5300069 C4.02363052,45.2154025 3.21890446,45.2346377 3.17529013,44.7687158 C3.13595188,44.348958 3.47759694,44.2198674 3.47674182,43.9599768 C3.47545891,43.693247 3.42243774,43.6509292 3.20735948,43.6111763 C2.67329845,43.5137179 1.71934307,45.078618 1.06555658,46.3545604 C1.47647143,45.152567 2.09947148,43.5333798 2.93754969,42.6759127 C4.73642462,43.9933183 6.55325853,45.1901828 8.39446498,46.2117924" id="path32" stroke="none" fill="#01923F" fill-rule="evenodd"></path>
                            <path d="M58.4799001,50.756702 C56.9893181,50.5592193 55.9442859,49.5961709 54.7581487,49.4841786 C53.7853786,49.3914216 52.9853567,49.7282534 52.1331673,49.4841786 C51.7812607,49.4055275 51.3908695,48.7220324 51.4280706,48.2501258 C51.4682641,47.7427408 51.8329985,47.2909244 52.3683423,47.2319361 C53.0931096,47.1994498 54.3998275,47.8966233 55.5025838,48.0351177 C56.5860992,48.1706198 57.9903078,47.9761293 59.1456584,48.0740158" id="path34" stroke="#01923F" stroke-width="1" fill="none" transform="translate(55.285631, 48.993769) scale(-1, 1) rotate(-180.000000) translate(-55.285631, -48.993769) "></path>
                            <path d="M58.3648774,49.8827643 C57.8885411,49.726317 57.6965535,49.0005042 57.9377148,48.2682796 C58.178876,47.5356276 58.7642473,47.0662857 59.2401567,47.222733 C59.7173482,47.3796077 59.9089089,48.1049931 59.6677476,48.8376451 C59.4270133,49.5694422 58.841642,50.0392116 58.3648774,49.8827643 Z" id="path36" stroke="#01923F" stroke-width="1" fill="none" transform="translate(58.802765, 48.552740) scale(-1, 1) rotate(-180.000000) translate(-58.802765, -48.552740) "></path>
                            <path d="M59.06741,49.7961085 C60.0299165,48.6578049 60.9795966,47.0693948 61.0262033,45.0578076 C61.0629761,43.4454601 60.1291176,42.7162277 59.06741,42.7277689" id="path38" stroke="#01923F" stroke-width="1" fill="none" transform="translate(60.047332, 46.261871) scale(-1, 1) rotate(-180.000000) translate(-60.047332, -46.261871) "></path>
                            <path d="M59.4590833,47.7399314 C59.2529847,47.4317384 59.085796,48.2588579 58.6753087,48.2686889 C58.3221189,48.2772352 57.8521963,48.0310263 57.8137134,48.2883519 C57.6850087,49.1458201 58.2562701,49.8912957 59.1456593,49.9524209 C59.8896669,50.0041429 60.2372982,48.9064472 59.4590833,47.7399314" id="path40" stroke="none" fill="#01923F" fill-rule="evenodd"></path>
                            <path d="M53.6207565,46.2117924 C53.5668798,46.9688093 54.4947529,47.2244245 54.4293311,47.9562216 C54.405386,48.2276535 53.8003453,48.2998933 53.5570456,48.4794224 C54.2104046,48.5508075 54.9766475,48.4926741 55.5876748,48.3528967 C55.020689,48.0673596 54.8479428,47.7873781 54.8419562,47.4962843 C54.8269904,46.7713264 55.134429,46.4058546 55.4448591,46.4178237 C55.7822293,46.4315022 55.9387268,46.9175151 56.3333934,46.878189 C56.9833316,46.8127885 57.0196766,46.0711604 57.6341247,45.5300069 C57.9911632,45.2154025 58.7954622,45.2346377 58.8395036,44.7687158 C58.8792694,44.348958 58.5371967,44.2198674 58.5380527,43.9599768 C58.5389284,43.693247 58.5927843,43.6509292 58.8078622,43.6111763 C59.3414956,43.5137179 60.2958786,45.078618 60.9496655,46.3545604 C60.5383222,45.152567 59.9157498,43.5333798 59.0772447,42.6759127 C57.278369,43.9933183 55.4619628,45.1901828 53.6207565,46.2117924" id="path42" stroke="none" fill="#01923F" fill-rule="evenodd"></path>
                            <polyline id="path44" stroke="none" fill="#01923F" fill-rule="evenodd" points="43.1576064 46.020294 43.5488522 45.6287478 43.9405261 46.020294 43.5488522 46.412267"></polyline>
                            <polyline id="path46" stroke="none" fill="#01923F" fill-rule="evenodd" points="42.3580122 46.1310041 42.7496849 45.7394579 43.1413588 46.1310041 42.7496849 46.5229771"></polyline>
                            <polyline id="path48" stroke="none" fill="#01923F" fill-rule="evenodd" points="30.1028289 50.2298374 30.4945017 49.8382911 30.8861755 50.2298374 30.4945017 50.6213825"></polyline>
                            <polyline id="path50" stroke="none" fill="#01923F" fill-rule="evenodd" points="22.259101 49.6061853 22.6507738 49.2146391 23.0428745 49.6061853 22.6507738 49.9973037"></polyline>
                            <polyline id="path52" stroke="none" fill="#01923F" fill-rule="evenodd" points="21.292317 49.5886594 21.6839908 49.1971143 22.0756636 49.5886594 21.6839908 49.9797778"></polyline>
                            <polyline id="path54" stroke="none" fill="#01923F" fill-rule="evenodd" points="21.7780603 50.0862136 22.1697341 49.6946674 22.5614069 50.0862136 22.1697341 50.4777587"></polyline>
                            <polyline id="path56" stroke="none" fill="#01923F" fill-rule="evenodd" points="6.73327428 40.4907802 7.12494756 40.099234 7.51704841 40.4907802 7.12494756 40.8823253"></polyline>
                            <polyline id="path58" stroke="none" fill="#01923F" fill-rule="evenodd" points="6.15901964 40.0453748 6.55112049 39.6538297 6.94236621 40.0453748 6.55112049 40.4364932"></polyline>
                            <polyline id="path60" stroke="none" fill="#01923F" fill-rule="evenodd" points="3.05556467 38.5381813 3.44723807 38.1462083 3.83891124 38.5381813 3.44723807 38.9297264"></polyline>
                            <path d="M57.7316159,39.359743 C57.8650243,39.0913028 57.9522523,38.8745858 58.4119127,38.5822084 C58.9186083,38.2603369 59.56256,38.859197 60.1056007,38.9019427 C60.1663189,39.1511466 60.2308847,39.4430962 60.064124,39.6239078 C58.8467731,40.4330735 57.6435319,41.2426671 56.426181,42.0526875 C56.4685126,42.5989709 56.4086494,43.1956939 56.1204534,43.4410503 C55.9425755,43.5949329 55.5030115,43.6462271 55.648393,43.1076386 C55.9750719,42.8413367 55.9656657,42.5502417 55.8848512,42.2471787 C55.6000748,42.4758649 54.8560671,43.0448031 54.5101457,42.7190852 C54.2647082,42.4882608 54.2446118,41.5675303 54.5379395,41.3448277 C54.8227148,41.1276828 55.5513297,41.0832278 56.0926595,41.3862909 C56.4539737,41.1687181 56.8982414,40.8126506 57.2595556,40.5950778 C56.639121,40.3471565 55.6710552,40.5634467 55.3986799,40.3864815 C55.3144446,40.3321955 55.3247068,40.2206308 55.4260457,40.0539244 C55.9588243,39.359743 56.4077945,38.7489148 56.939717,38.0551602 C57.0650021,38.0551602 57.2206447,37.9730895 57.3151421,38.0551602 C57.4066468,38.1338113 57.3425079,38.2953888 57.3561908,38.415502 C56.9628072,38.9754639 56.4723603,39.4798573 56.0789766,40.0398181 C56.5236712,40.0727317 56.9953047,40.077007 57.4395712,40.1094928 C57.5327858,40.0817091 57.592649,40.2206308 57.5370625,40.414693 C58.0741167,40.0308417 58.721916,39.5909942 59.2589702,39.206715 C59.0319203,39.0173539 58.7864829,38.9754639 58.6338331,39.0818997 C58.4260236,39.0767676 58.2541323,39.2451854 58.119868,39.6098026 C57.9231767,39.5768879 57.6683319,39.527304 57.7316159,39.359743 L57.7316159,39.359743 Z M54.9403024,41.7611658 C55.0985108,41.6487464 55.3961141,41.6141224 55.5235359,41.7611658 C55.6394137,41.8949585 55.4816322,42.0103707 55.3375348,42.1129591 C55.1788984,42.2258064 54.9287573,42.4220057 54.8013355,42.2749623 C54.6854577,42.1407428 54.7962017,41.864182 54.9403024,41.7611658 L54.9403024,41.7611658 Z" id="path62" stroke="none" fill="#01923F" fill-rule="evenodd"></path>
                            <path d="M31.8093439,48.4883987 L31.7802672,49.6767147 C30.3187617,49.6745809 28.97185,49.6506403 27.5094896,49.6485032 C27.2418179,50.1263933 26.638059,50.5752182 26.2626339,50.6183907 C26.0287426,50.6478847 25.634503,50.4469822 26.0543975,50.0793744 C26.4738641,50.0391937 26.6277968,49.7916991 26.7291357,49.4946206 C26.3652557,49.6950953 24.9785793,49.4924868 24.9973928,48.8726779 C25.0140684,48.3370811 25.7585052,47.9737476 26.1095572,47.9968302 C26.6307906,48.0305985 27.3602605,48.2182493 27.4393641,48.9090111 L28.6413223,48.9132897 L28.621654,47.1769811 C28.6178009,46.8465611 29.2489289,46.9017017 29.2690263,47.1727024 L29.2839922,48.9308102 L31.194041,48.9265316 L31.1790751,48.4524879 C31.2509104,47.904922 31.8072061,48.1002678 31.8093439,48.4883933 L31.8093439,48.4883987 Z M26.2130339,48.5666231 C26.4080154,48.5606374 26.6744041,48.697423 26.6987772,48.8902038 C26.7205845,49.0663133 26.4640299,49.0714433 26.287007,49.0765721 C26.0924535,49.0825578 25.8367539,49.1094869 25.8128088,48.9167061 C25.7910015,48.7405955 26.036439,48.5717519 26.2130339,48.5666231 L26.2130339,48.5666231 Z" id="path64" stroke="none" fill="#01923F" fill-rule="evenodd"></path>
                            <path d="M33.6415708,48.6781878 C39.210087,48.3875207 44.7093348,47.0128364 50.2791339,44.6994678 C50.1829255,44.4113657 50.0969804,44.1634443 50.0007721,43.8744865 C50.0995452,43.634259 50.253051,43.4846506 50.5254263,43.5333798 C50.6656761,43.7958354 50.7550419,44.0941963 50.8948648,44.3566519 C51.1574059,44.2344004 51.4708299,44.075389 51.7333699,43.9531376 C51.8753307,43.165772 52.1643816,42.5737511 52.7313674,42.404053 C53.2910838,42.2373466 53.7109784,42.4951 53.8606355,42.7716619 C54.1941558,43.3914664 53.6682198,44.0694044 53.2508911,44.1963579 C52.7035747,44.1681464 53.0725853,43.7646321 53.1157718,43.7244514 C53.3838714,43.5530429 53.3855813,43.3799251 53.3351264,43.2709254 C53.2803947,43.1508111 53.0315365,43.1345676 52.8729002,43.210227 C52.323446,43.4696897 52.5697383,44.5182283 52.1797754,44.7148566 C46.3393109,47.7159941 40.163615,49.0825567 33.7993523,49.7019345 C33.5158588,49.3894672 33.463265,49.0483606 33.6415708,48.6781878" id="path66" stroke="none" fill="#01923F" fill-rule="evenodd"></path>
                            <path d="M22.2381487,47.3496677 C22.8679905,47.5026956 23.1018818,47.8993707 23.6945236,48.5033597 C23.8262211,48.5461054 24.0263342,48.5820108 24.1571767,48.6294586 C24.2580876,48.6516855 24.0143611,49.3616825 23.9326916,49.3514236 L21.0614185,48.78847 C20.8608785,48.5367012 20.7428628,48.7217881 20.2053817,48.6003913 C19.9573784,48.5439683 19.7581213,48.4576222 19.6478031,48.2627043 C19.4840351,48.4217168 19.2048184,48.4875441 18.8345249,48.4020538 C18.4616657,48.3157088 18.1905733,48.0472687 18.0071369,47.7959277 C17.8831347,47.925873 17.7339056,48.0092262 17.4140682,47.9626341 C12.3731989,46.3220746 8.05581297,43.9651068 4.21647406,41.181542 C4.10957638,41.0849371 4.16302522,40.9430237 4.21647406,40.7857215 L5.21276096,38.4270433 C5.26535456,38.2911135 5.73527701,38.4740633 5.69465596,38.556134 L4.85572251,40.4433324 C4.8232256,40.589949 4.84631524,40.7917061 5.01692426,40.8977141 C5.41030791,41.1422159 5.94821735,41.4931535 6.34160099,41.7380831 L6.61312115,40.9310545 C6.680253,40.8506942 7.11211978,41.0806628 7.08860225,41.1593139 L6.80040603,42.0766248 C10.0941385,44.2536367 13.6119291,45.9501914 17.4187718,47.2141657 L17.5312278,46.2955723 C17.5273747,46.1822983 18.1828758,46.2378668 18.1567929,46.3519965 L18.0759784,47.4834604 C18.3932511,47.6711113 18.6728958,47.684363 18.9303053,47.6557236 L19.0021406,46.7508087 C18.9978606,46.6383882 19.5939264,46.7452498 19.611885,46.8512599 L19.5550155,47.7467706 C19.5763948,47.9053553 20.2665268,48.1267755 20.377701,48.0164922 L20.4439766,47.1940758 C20.4444145,47.0991813 21.0212246,47.1590251 21.016521,47.2487897 L20.941693,48.0942886 L23.0197843,48.5264423 C22.9321283,48.1319044 22.5417385,47.7057353 22.1380927,47.6599978 C21.8729858,47.6300759 21.794309,47.7587398 21.5578519,47.7762646 C21.4565119,47.7831039 21.3812559,47.5847663 21.5026923,47.5163741 C21.7122116,47.4167785 22.0286294,47.3060684 22.2381487,47.3496677" id="path68" stroke="none" fill="#01923F" fill-rule="evenodd"></path>
                            <path d="M3.93725721,39.0271859 C4.0351755,38.8168792 4.52391196,38.9985465 4.43540061,39.2208214 C4.23742609,39.6670803 4.15789413,40.2680775 3.59048095,40.9203689 C3.41345836,41.0738236 3.21548373,41.2080431 2.95037736,41.1593139 C1.7629574,40.9413133 1.76252973,40.0975247 2.04687777,39.5170452 C2.22689352,39.1494363 2.24057643,39.0955782 2.40434378,38.8886911 C2.5659731,38.6852246 3.03760591,38.8621888 2.85203151,39.1648251 C2.74684408,39.3563234 2.75111994,39.3315315 2.64678786,39.5230298 C2.28590102,39.9577474 2.47446869,40.2492702 3.03888871,40.3565596 C3.43954138,40.5215567 3.63965393,39.7230766 3.93725721,39.0271859" id="path70" stroke="none" fill="#01923F" fill-rule="evenodd"></path>
                        </g>
                    </g>
                </g>
                <g id="Group" transform="translate(77.000000, 24.000000)" fill="#FFFFFF" font-family="Poppins-SemiBold, Poppins SemiBold" font-size="17" font-weight="500">
                    <text id="BALOCHISTAN.GOV.PK">
                        <tspan x="0" y="18">BALOCHISTAN.GOV.PK</tspan>
                    </text>
                </g>
            </g>
        </g>
    </g>
</svg>