<?xml version="1.0" encoding="UTF-8"?>
<svg width="30px" height="22px" viewBox="0 0 30 22" version="1.1" xmlns="http://www.w3.org/2000/svg" xmlns:xlink="http://www.w3.org/1999/xlink">
    <!-- Generator: Sketch 55.2 (78181) - https://sketchapp.com -->
    <title>mail-contact-icon</title>
    <desc>Created with Sketch.</desc>
    <g id="Index" stroke="none" stroke-width="1" fill="none" fill-rule="evenodd">
        <g id="18.-Contact-Us" transform="translate(-290.000000, -497.000000)" fill-rule="nonzero">
            <g id="mail-contact-icon" transform="translate(290.000000, 497.000000)">
                <g id="Group" transform="translate(4.390244, 9.862069)" fill="#1E5A5A">
                    <path d="M19.6185366,6.34965517 C19.4985366,6.34965517 19.3785366,6.30576355 19.284878,6.21700493 L13.6712195,0.951960591 C13.475122,0.768591133 13.4653659,0.459399015 13.6497561,0.263349754 C13.8341463,0.0653497537 14.1414634,0.0565714286 14.3395122,0.241891626 L19.9531707,5.50693596 C20.1492683,5.69030542 20.1590244,5.99949754 19.9746341,6.1955468 C19.8780488,6.29796059 19.7492683,6.34965517 19.6185366,6.34965517 Z" id="Path"></path>
                    <path d="M0.88,6.34965517 C0.750243902,6.34965517 0.620487805,6.29796059 0.523902439,6.1955468 C0.339512195,5.99949754 0.349268293,5.69030542 0.545365854,5.50693596 L6.16097561,0.241891626 C6.35804878,0.0585221675 6.66731707,0.0663251232 6.85073171,0.263349754 C7.03512195,0.459399015 7.02536585,0.768591133 6.82926829,0.951960591 L1.21365854,6.21700493 C1.12,6.30576355 1,6.34965517 0.88,6.34965517 Z" id="Path"></path>
                </g>
                <path d="M27.5815813,22 L2.41841868,22 C1.0853863,22 0,20.8813898 0,19.5053295 L0,2.49467048 C0,1.11861024 1.0853863,0 2.41841868,0 L27.5815813,0 C28.9146137,0 30,1.11861024 30,2.49467048 L30,19.5053295 C30,20.8813898 28.9146137,22 27.5815813,22 Z M2.41841868,0.997868191 C1.61840578,0.997868191 0.967367471,1.66943348 0.967367471,2.49467048 L0.967367471,19.5053295 C0.967367471,20.3305665 1.61840578,21.0021318 2.41841868,21.0021318 L27.5815813,21.0021318 C28.3815942,21.0021318 29.0326325,20.3305665 29.0326325,19.5053295 L29.0326325,2.49467048 C29.0326325,1.66943348 28.3815942,0.997868191 27.5815813,0.997868191 L2.41841868,0.997868191 Z" id="Shape" fill="#004545"></path>
                <path d="M15.0079648,12.8965517 C14.3685538,12.8965517 13.7291428,12.6728222 13.2426136,12.2263755 L0.896692935,0.887033676 C0.696696713,0.703798174 0.675543266,0.383895307 0.84957844,0.172313981 C1.02553665,-0.0382549941 1.32841555,-0.0574896601 1.52841177,0.123721141 L13.8743324,11.4620506 C14.4887439,12.02593 15.5271858,12.02593 16.1406357,11.4620506 L28.4711721,0.141943456 C28.6702068,-0.0412920467 28.9730857,-0.0210450298 29.1500054,0.190536296 C29.3240406,0.402117622 29.3038486,0.721008138 29.1038524,0.905255991 L16.7733161,12.2253631 C16.2858253,12.6728222 15.6473758,12.8965517 15.0079648,12.8965517 Z" id="Path" fill="#004545"></path>
            </g>
        </g>
    </g>
</svg>