<?xml version="1.0" encoding="UTF-8"?>
<svg width="24px" height="27px" viewBox="0 0 24 27" version="1.1" xmlns="http://www.w3.org/2000/svg" xmlns:xlink="http://www.w3.org/1999/xlink">
    <!-- Generator: Sketch 55.2 (78181) - https://sketchapp.com -->
    <title>pdf-file-format-symbol-1</title>
    <desc>Created with Sketch.</desc>
    <g id="Index" stroke="none" stroke-width="1" fill="none" fill-rule="evenodd">
        <g id="9.-Fee-Schedule" transform="translate(-566.000000, -430.000000)" fill="#686868" fill-rule="nonzero">
            <g id="pdf-file-format-symbol-1" transform="translate(566.000000, 430.000000)">
                <path d="M6.34998773,13.8295372 C6.34998773,13.1027423 5.84451534,12.6689782 4.9524908,12.6689782 C4.5886135,12.6689782 4.34208589,12.7040145 4.21280982,12.7391488 L4.21280982,15.0729583 C4.36564417,15.1076025 4.55352147,15.119461 4.81119018,15.119461 C5.76289571,15.119461 6.34998773,14.6388022 6.34998773,13.8295372 Z" id="Path"></path>
                <path d="M11.8711656,12.6924011 C11.471411,12.6924011 11.2136442,12.7275354 11.0604172,12.7627187 L11.0604172,17.9335372 C11.2133497,17.9692595 11.4600245,17.9692595 11.6832393,17.9692595 C13.3037055,17.9805789 14.3607362,17.089873 14.3607362,15.201931 C14.3726135,13.5597332 13.4093252,12.6924011 11.8711656,12.6924011 Z" id="Path"></path>
                <path d="M22.4503558,9.65428857 L21.801227,9.65428857 L21.801227,6.52718875 C21.801227,6.50768603 21.798135,6.4880363 21.7955337,6.46828857 C21.7945031,6.34411797 21.7549448,6.22215245 21.6697914,6.12552087 L16.4576687,0.181012704 C16.4560982,0.179493648 16.4545767,0.178954628 16.4534969,0.177288566 C16.4224294,0.142644283 16.3862086,0.113831216 16.3479264,0.0888892922 C16.336589,0.0812940109 16.3251534,0.074923775 16.3132761,0.0683575318 C16.2800982,0.0502758621 16.244908,0.0352813067 16.2086871,0.0244519056 C16.1988712,0.021707804 16.1900368,0.0176896552 16.1802209,0.0151415608 C16.1408589,0.00583121597 16.0999755,0 16.0585521,0 L3.24907975,0 C2.66414724,0 2.18895706,0.474974592 2.18895706,1.0584882 L2.18895706,9.65404356 L1.53997546,9.65404356 C0.703214724,9.65404356 0.0247361963,10.3311506 0.0247361963,11.1668766 L0.0247361963,19.033873 C0.0247361963,19.8690109 0.703214724,20.546559 1.53997546,20.546559 L2.18900613,20.546559 L2.18900613,25.9317604 C2.18900613,26.515225 2.66419632,26.9902486 3.24912883,26.9902486 L20.7411534,26.9902486 C21.325546,26.9902486 21.8012761,26.515274 21.8012761,25.9317604 L21.8012761,20.546559 L22.4504049,20.546559 C23.2869202,20.546559 23.965546,19.8690109 23.965546,19.033873 L23.965546,11.1671216 C23.965546,10.3314446 23.2868712,9.65428857 22.4503558,9.65428857 Z M3.24907975,1.05868421 L15.5284908,1.05868421 L15.5284908,6.47402178 C15.5284908,6.76641561 15.7660859,7.00324138 16.0585521,7.00324138 L20.7411043,7.00324138 L20.7411043,9.65463158 L3.24907975,9.65463158 L3.24907975,1.05868421 Z M16.2630184,15.1426878 C16.2630184,16.6556679 15.7112147,17.6988675 14.9466994,18.3441234 C14.1137669,19.035882 12.8451043,19.3640472 11.295362,19.3640472 C10.3677546,19.3640472 9.71023313,19.305392 9.26341104,19.2469819 L9.26341104,11.4843103 C9.92103067,11.3790054 10.7788957,11.3203503 11.6832393,11.3203503 C13.1856687,11.3203503 14.1606871,11.5902523 14.9244172,12.1644555 C15.7461595,12.7742831 16.2630184,13.7473122 16.2630184,15.1426878 Z M2.4392638,19.2821652 L2.4392638,11.4843103 C2.99096933,11.3910109 3.76647853,11.3203503 4.85869939,11.3203503 C5.96255215,11.3203503 6.74959509,11.5314501 7.27788957,11.9538457 C7.7830184,12.3522795 8.12279755,13.0090508 8.12279755,13.7829855 C8.12279755,14.5571652 7.86512883,15.2137405 7.39499387,15.65902 C6.78434356,16.2337132 5.88014724,16.4918548 4.82287117,16.4918548 C4.5883681,16.4918548 4.3762454,16.4799474 4.21256442,16.4564265 L4.21256442,19.2823612 L2.4392638,19.2823612 L2.4392638,19.2821652 Z M20.7411534,25.6452468 L3.24907975,25.6452468 L3.24907975,20.546559 L20.7411534,20.546559 L20.7411534,25.6452468 L20.7411534,25.6452468 Z M22.2772025,12.8446987 L19.2347975,12.8446987 L19.2347975,14.6504646 L22.0771534,14.6504646 L22.0771534,16.1045445 L19.2347975,16.1045445 L19.2347975,19.2822142 L17.4388221,19.2822142 L17.4388221,11.3790054 L22.2772025,11.3790054 L22.2772025,12.8446987 Z" id="Shape"></path>
            </g>
        </g>
    </g>
</svg>