<?xml version="1.0" encoding="UTF-8"?>
<svg width="30px" height="30px" viewBox="0 0 30 30" version="1.1" xmlns="http://www.w3.org/2000/svg" xmlns:xlink="http://www.w3.org/1999/xlink">
    <!-- Generator: sketchtool 55.2 (78181) - https://sketchapp.com -->
    <title>957A0233-BE16-4FEA-BDB8-3E2849FAE4CC</title>
    <desc>Created with sketchtool.</desc>
    <g id="Index" stroke="none" stroke-width="1" fill="none" fill-rule="evenodd">
        <g id="18.-Contact-Us" transform="translate(-290.000000, -439.000000)" fill="#004545" fill-rule="nonzero">
            <g id="phone-call-icon" transform="translate(290.000000, 439.000000)">
                <path d="M24.1116045,30 C22.8634046,30 21.3558777,29.6871948 19.6980018,29.0615843 C16.0633888,27.6912955 12.1089057,24.9830075 8.56308945,21.4372088 C5.01626418,17.890401 2.30796289,13.9349282 0.936658332,10.3003331 C-0.309523518,6.99569712 -0.312550681,4.28337296 0.929594953,3.04224248 C1.10819753,2.86364078 1.28982728,2.67192144 1.47751135,2.4741478 C2.61067913,1.28246074 3.89116882,-0.0585656025 5.58839787,0.00197734747 C6.75789161,0.0504117074 7.8910594,0.776927107 9.05147165,2.22087646 C12.4802376,6.48511824 10.9343667,8.00474628 9.14531368,9.76654613 L8.82947974,10.0793514 C8.53685404,10.3719756 7.98389238,11.7271287 13.1280503,16.8712613 C14.8071164,18.5503191 16.2389642,19.779341 17.3832316,20.5230102 C18.1036962,20.991209 19.3922584,21.6995616 19.9210027,21.1708198 L20.2388548,20.8499422 C21.9986452,19.0649342 23.5182807,17.5241161 27.7795163,20.949838 C29.2234728,22.1102446 29.9489827,23.2423977 29.9974173,24.4139038 C30.067042,26.1101155 28.7159185,27.393626 27.5232165,28.5257792 C27.326451,28.7134623 27.1347307,28.8950912 26.9561281,29.0726838 C26.3395961,29.6902219 25.3537502,30 24.1116045,30 Z M5.46731138,1.00900842 C4.26149169,1.00900842 3.17272228,2.15528827 2.20907559,3.16938268 C2.0153372,3.37321061 1.82765313,3.57098425 1.64299622,3.75564024 C0.717693586,4.67992928 0.81153562,7.10871062 1.881133,9.94514783 C3.20299391,13.4485665 5.82956181,17.2768991 9.27749977,20.7248201 C12.7244287,24.170723 16.5507619,26.7972779 20.0552069,28.1181233 C22.8916581,29.1897335 25.3204514,29.2805479 26.2437359,28.357268 C26.4283928,28.172612 26.6261674,27.9849288 26.8299964,27.7922004 C27.866295,26.8073684 29.041843,25.6913601 28.9903813,24.4532567 C28.9550644,23.6026283 28.3355051,22.6874207 27.1488575,21.7338692 C23.597996,18.8782601 22.6050867,19.8863002 20.9583104,21.5562766 L20.6354131,21.8821995 C19.8483508,22.6702669 18.5698793,22.4957014 16.8343061,21.3675844 C15.6305046,20.5845622 14.1431588,19.3111422 12.4156581,17.582641 C8.14635009,13.314363 6.78109985,10.7019347 8.11708752,9.36292646 L8.43897579,9.04507597 C10.1129966,7.39830773 11.1230598,6.4043943 8.26642753,2.85153219 C7.31085327,1.66589942 6.39665023,1.04634323 5.5460176,1.01001746 C5.51978219,1.00900842 5.49354678,1.00900842 5.46731138,1.00900842 Z" id="Shape"></path>
            </g>
        </g>
    </g>
</svg>