<?xml version="1.0" encoding="UTF-8"?>
<svg width="32px" height="27px" viewBox="0 0 32 27" version="1.1" xmlns="http://www.w3.org/2000/svg" xmlns:xlink="http://www.w3.org/1999/xlink">
    <!-- Generator: Sketch 55.2 (78181) - https://sketchapp.com -->
    <title>picture</title>
    <desc>Created with Sketch.</desc>
    <g id="Index" stroke="none" stroke-width="1" fill="none" fill-rule="evenodd">
        <g id="9.-Fee-Schedule" transform="translate(-1131.000000, -429.000000)" fill="#686868" fill-rule="nonzero" stroke="#686868" stroke-width="0.5">
            <g id="picture" transform="translate(1132.000000, 430.000000)">
                <path d="M29.4998932,25.7143642 L3.50006104,25.7143642 C3.22402957,25.7143642 2.99995424,25.4843575 2.99995424,25.1999686 L2.99995424,3.60006278 C2.99995424,3.31567383 3.22402957,3.08566722 3.50006104,3.08566722 L29.4998932,3.08566722 C29.7759247,3.08566722 30,3.31567383 30,3.60006278 L30,25.1999686 C30,25.4843575 29.7759247,25.7143642 29.4998932,25.7143642 Z M3.99993896,24.6858084 L29.0000153,24.6858084 L29.0000153,4.11422294 L3.99993896,4.11422294 L3.99993896,24.6858084 Z" id="Shape"></path>
                <path d="M3.50006104,22.6284616 L0.500106797,22.6284616 C0.224075332,22.6284616 0,22.3986904 0,22.1143014 L0,0.514395563 C0,0.229771205 0.224075332,2.84217094e-14 0.500106797,2.84217094e-14 L26.499939,2.84217094e-14 C26.7759704,2.84217094e-14 27.0000458,0.229771205 27.0000458,0.514395563 L27.0000458,3.60006278 C27.0000458,3.88445173 26.7759704,4.11422294 26.499939,4.11422294 L3.99993896,4.11422294 L3.99993896,22.1143014 C3.99993896,22.3986904 3.7760925,22.6284616 3.50006104,22.6284616 L3.50006104,22.6284616 Z M0.999984727,21.5999059 L2.99995424,21.5999059 L2.99995424,3.60006278 C2.99995424,3.31567383 3.22402957,3.08566722 3.50006104,3.08566722 L26.000061,3.08566722 L26.000061,1.02855572 L0.999984727,1.02855572 L0.999984727,21.5999059 Z" id="Shape"></path>
                <path d="M29.4998932,25.7143642 L16.1109925,25.7143642 C15.9139252,25.7143642 15.7353973,25.5954764 15.6550598,25.4104353 C15.5744934,25.2263358 15.6065368,25.0097482 15.7374573,24.8586077 L23.6265564,15.7299107 C23.8160706,15.5097918 24.1841126,15.5097918 24.3740845,15.7299107 L29.8738861,22.0942906 C29.955597,22.1884591 30,22.3097011 30,22.4356515 L30,25.1999686 C30,25.4843575 29.7759247,25.7143642 29.4998932,25.7143642 L29.4998932,25.7143642 Z M17.2245026,24.6858084 L29.0000153,24.6858084 L29.0000153,22.6310512 L24.0000915,16.8453369 L17.2245026,24.6858084 Z" id="Shape"></path>
                <path d="M16.1109925,25.7143642 L3.50006104,25.7143642 C3.22402957,25.7143642 2.99995424,25.4843575 2.99995424,25.1999686 L2.99995424,16.6499372 C2.99995424,16.5239868 3.04504395,16.4027448 3.12652588,16.3085763 L9.62654115,8.78710064 C9.81605531,8.56698175 10.1840973,8.56698175 10.3740692,8.78710064 L20.3739166,20.3585292 C20.5426025,20.5534581 20.5426025,20.8465576 20.3739166,21.0414864 L16.4849854,25.5415649 C16.3899994,25.6515067 16.2540436,25.7143642 16.1109925,25.7143642 Z M3.99993896,24.6858084 L15.8864593,24.6858084 L19.3309021,20.6998902 L10.0000763,9.90252687 L3.99993896,16.8453369 L3.99993896,24.6858084 Z" id="Shape"></path>
                <path d="M20.5000305,12.8571429 C19.1214752,12.8571429 17.9999542,11.7035608 17.9999542,10.285832 C17.9999542,8.86786777 19.1214752,7.71428571 20.5000305,7.71428571 C21.8785858,7.71428571 23.0001068,8.86786777 23.0001068,10.285832 C23.0001068,11.7035608 21.8785858,12.8571429 20.5000305,12.8571429 L20.5000305,12.8571429 Z M20.5000305,8.74285713 C19.6730804,8.74285713 18.999939,9.43500637 18.999939,10.285832 C18.999939,11.1364222 19.6730804,11.8285714 20.5000305,11.8285714 C21.3269806,11.8285714 21.9998932,11.1364222 21.9998932,10.285832 C21.9998932,9.43500637 21.3269806,8.74285713 20.5000305,8.74285713 L20.5000305,8.74285713 Z" id="Shape"></path>
            </g>
        </g>
    </g>
</svg>