<?xml version="1.0" encoding="UTF-8"?>
<svg width="105px" height="82px" viewBox="0 0 105 82" version="1.1" xmlns="http://www.w3.org/2000/svg" xmlns:xlink="http://www.w3.org/1999/xlink">
    <!-- Generator: Sketch 55.2 (78181) - https://sketchapp.com -->
    <title>search-results</title>
    <desc>Created with Sketch.</desc>
    <g id="Index" stroke="none" stroke-width="1" fill="none" fill-rule="evenodd">
        <g id="RecordNotFoiundMessageFrom" transform="translate(-668.000000, -226.000000)" fill-rule="nonzero">
            <g id="search-results" transform="translate(668.000000, 226.000000)">
                <path d="M102.857143,0.212513089 L2.14285714,0.212513089 C0.959357143,0.212513089 0,1.1735445 0,2.35910995 L0,79.6408901 C0,80.8264555 0.959357143,81.7874869 2.14285714,81.7874869 L102.857143,81.7874869 C104.040429,81.7874869 105,80.8264555 105,79.6408901 L105,2.35910995 C105,1.1735445 104.040429,0.212513089 102.857143,0.212513089 Z M100.714286,4.50570681 L100.714286,14.8259005 L4.28571429,14.8259005 L4.28571429,4.50570681 L100.714286,4.50570681 Z M4.28571429,77.4942932 L4.28571429,19.1190942 L100.714286,19.1190942 L100.714286,77.4942932 L4.28571429,77.4942932 Z" id="Shape" fill="#052323"></path>
                <g id="Group" transform="translate(7.142857, 6.513089)" fill="#052323">
                    <path d="M3,5.48691099 L4.17857143,5.48691099 C5.36185714,5.48691099 6.32142857,4.36791099 6.32142857,2.98691099 C6.32142857,1.60641099 5.36185714,0.486910995 4.17857143,0.486910995 L3,0.486910995 C1.81671429,0.486910995 0.857142857,1.60641099 0.857142857,2.98691099 C0.857142857,4.36791099 1.81671429,5.48691099 3,5.48691099 Z" id="Path"></path>
                    <path d="M11.8215,5.48691099 L13.0000714,5.48691099 C14.1833571,5.48691099 15.1429286,4.36791099 15.1429286,2.98691099 C15.1429286,1.60641099 14.1833571,0.486910995 13.0000714,0.486910995 L11.8215,0.486910995 C10.638,0.486910995 9.67864286,1.60641099 9.67864286,2.98691099 C9.67864286,4.36791099 10.6382143,5.48691099 11.8215,5.48691099 Z" id="Path"></path>
                    <path d="M20.643,5.48691099 L21.8215714,5.48691099 C23.0048571,5.48691099 23.9644286,4.36791099 23.9644286,2.98691099 C23.9644286,1.60641099 23.0048571,0.486910995 21.8215714,0.486910995 L20.643,0.486910995 C19.4595,0.486910995 18.5001429,1.60641099 18.5001429,2.98691099 C18.5001429,4.36791099 19.4597143,5.48691099 20.643,5.48691099 Z" id="Path"></path>
                </g>
                <path d="M85.4475,60.3091885 C88.0491429,57.0141623 89.6042143,52.8536283 89.6042143,48.3356859 C89.6042143,37.6739686 80.9453571,29 70.302,29 C59.6588571,29 51,37.6739686 51,48.3356859 C51,58.9976178 59.6588571,67.6715864 70.302,67.6715864 C74.8939286,67.6715864 79.1157857,66.0560576 82.4327143,63.3637958 L100.318714,80.0540157 C100.731643,80.4393298 101.255786,80.6299476 101.778857,80.6299476 C102.352714,80.6299476 102.925286,80.4004764 103.347214,79.9464712 C104.154,79.0790314 104.105786,77.7206649 103.239857,76.9126859 L85.4475,60.3091885 Z M55.2857143,48.3356859 C55.2857143,40.0410209 62.0222143,33.2931937 70.302,33.2931937 C78.5822143,33.2931937 85.3185,40.0412356 85.3185,48.3356859 C85.3185,56.6303508 78.5822143,63.3783927 70.302,63.3783927 C62.0222143,63.3783927 55.2857143,56.6301361 55.2857143,48.3356859 Z" id="Shape" fill="#052323"></path>
                <path d="M69.0363855,49.6938047 L68.5728094,43.2457277 C68.4858884,41.9893112 68.4424286,41.0873972 68.4424286,40.5399585 C68.4424286,39.795083 68.6524844,39.2139991 69.0726024,38.7966893 C69.4927204,38.3793795 70.045626,38.1707277 70.7313359,38.1707277 C71.561914,38.1707277 72.117234,38.4377123 72.3973127,38.9716893 C72.6773913,39.5056663 72.8174286,40.2752099 72.8174286,41.2803431 C72.8174286,41.8726538 72.7836265,42.4739298 72.7160213,43.0841893 L72.0930908,49.7207277 C72.0254856,50.5104753 71.8806195,51.1162385 71.6584882,51.5380354 C71.4363568,51.9598324 71.0693627,52.1707277 70.5574948,52.1707277 C70.035969,52.1707277 69.6738038,51.9665631 69.4709882,51.5582277 C69.2681726,51.1498924 69.1233065,50.5284242 69.0363855,49.6938047 Z M70.6444153,58.1707277 C70.0552843,58.1707277 69.5410097,57.9780736 69.1015759,57.5927595 C68.6621422,57.2074454 68.4424286,56.6685016 68.4424286,55.9759117 C68.4424286,55.3711149 68.6524844,54.8565576 69.0726024,54.4322244 C69.4927204,54.0078912 70.0069951,53.7957277 70.6154418,53.7957277 C71.2238886,53.7957277 71.7429921,54.0078912 72.172768,54.4322244 C72.6025439,54.8565576 72.8174286,55.3711149 72.8174286,55.9759117 C72.8174286,56.6587468 72.6001294,57.195252 72.1655246,57.5854435 C71.7309198,57.9756349 71.2238884,58.1707277 70.6444153,58.1707277 Z" id="!" stroke="#052323"></path>
            </g>
        </g>
    </g>
</svg>