<?xml version="1.0" encoding="UTF-8"?>
<svg width="23px" height="29px" viewBox="0 0 23 29" version="1.1" xmlns="http://www.w3.org/2000/svg" xmlns:xlink="http://www.w3.org/1999/xlink">
    <!-- Generator: Sketch 55.2 (78181) - https://sketchapp.com -->
    <title>file</title>
    <desc>Created with Sketch.</desc>
    <g id="Index" stroke="none" stroke-width="1" fill="none" fill-rule="evenodd">
        <g id="9.-Fee-Schedule" transform="translate(-281.000000, -679.000000)" fill="#686868" fill-rule="nonzero" stroke="#686868" stroke-width="0.5">
            <g id="file" transform="translate(282.000000, 680.000000)">
                <path d="M17.0625,11.25 L6.125,11.25 C5.8835,11.25 5.6875,11.45115 5.6875,11.7 C5.6875,11.94885 5.8835,12.15 6.125,12.15 L17.0625,12.15 C17.304,12.15 17.5,11.94885 17.5,11.7 C17.5,11.45115 17.304,11.25 17.0625,11.25 Z" id="Path"></path>
                <path d="M6.125,8.55 L10.5,8.55 C10.7415,8.55 10.9375,8.34885 10.9375,8.1 C10.9375,7.85115 10.7415,7.65 10.5,7.65 L6.125,7.65 C5.8835,7.65 5.6875,7.85115 5.6875,8.1 C5.6875,8.34885 5.8835,8.55 6.125,8.55 Z" id="Path"></path>
                <path d="M17.0625,14.85 L6.125,14.85 C5.8835,14.85 5.6875,15.05115 5.6875,15.3 C5.6875,15.54885 5.8835,15.75 6.125,15.75 L17.0625,15.75 C17.304,15.75 17.5,15.54885 17.5,15.3 C17.5,15.05115 17.304,14.85 17.0625,14.85 Z" id="Path"></path>
                <path d="M17.0625,18.45 L6.125,18.45 C5.8835,18.45 5.6875,18.65115 5.6875,18.9 C5.6875,19.14885 5.8835,19.35 6.125,19.35 L17.0625,19.35 C17.304,19.35 17.5,19.14885 17.5,18.9 C17.5,18.65115 17.304,18.45 17.0625,18.45 Z" id="Path"></path>
                <path d="M17.0625,22.05 L6.125,22.05 C5.8835,22.05 5.6875,22.25115 5.6875,22.5 C5.6875,22.74885 5.8835,22.95 6.125,22.95 L17.0625,22.95 C17.304,22.95 17.5,22.74885 17.5,22.5 C17.5,22.25115 17.304,22.05 17.0625,22.05 Z" id="Path"></path>
                <path d="M18.8125,6.5637 L18.8125,0 L0,0 L0,24.75 L2.1875,24.75 L2.1875,27 L21,27 L21,8.8137 L18.8125,6.5637 Z M14.875,3.7863 L18.8125,7.8363 L19.506375,8.55 L14.875,8.55 L14.875,3.7863 Z M0.875,23.85 L0.875,0.9 L17.9375,0.9 L17.9375,5.6637 L14.618625,2.25 L2.1875,2.25 L2.1875,23.85 L0.875,23.85 Z M3.0625,26.1 L3.0625,24.75 L3.0625,3.15 L14,3.15 L14,9.45 L20.125,9.45 L20.125,26.1 L3.0625,26.1 Z" id="Shape"></path>
            </g>
        </g>
    </g>
</svg>