<?xml version="1.0" encoding="UTF-8"?>
<svg width="16px" height="19px" viewBox="0 0 16 19" version="1.1" xmlns="http://www.w3.org/2000/svg" xmlns:xlink="http://www.w3.org/1999/xlink">
    <!-- Generator: sketchtool 54.1 (76490) - https://sketchapp.com -->
    <title>BAF2147F-5008-4F83-994E-5A0A0FAE4DB1</title>
    <desc>Created with sketchtool.</desc>
    <g id="Admin" stroke="none" stroke-width="1" fill="none" fill-rule="evenodd">
        <g id="3.-Admin-Complaint-Detail-for-Reviewer" transform="translate(-727.000000, -609.000000)" fill="#10C621" fill-rule="nonzero">
            <g id="xls-icon" transform="translate(727.000000, 609.000000)">
                <path d="M14.9862058,6.45665844 L14.5527572,6.45665844 L14.5527572,4.36530041 C14.5527572,4.35226337 14.550716,4.33912757 14.5491687,4.32579424 C14.5484774,4.24283128 14.5218765,4.16128395 14.4650206,4.09665844 L10.9845926,0.121053498 C10.9835062,0.120032922 10.9824856,0.119670782 10.9817942,0.118584362 C10.9610535,0.0954074074 10.9368889,0.0761152263 10.9112428,0.0594567901 C10.9037037,0.0543868313 10.8960658,0.0501399177 10.8881317,0.0456625514 C10.8660082,0.0336460905 10.8424691,0.0235390947 10.8183045,0.0162633745 C10.8117202,0.0145514403 10.8058272,0.0118518519 10.7993086,0.0101399177 C10.7730041,0.00388477366 10.7457119,0 10.7180905,0 L2.16483951,0 C1.77428807,0 1.45698765,0.317662551 1.45698765,0.707884774 L1.45698765,6.45646091 L1.02360494,6.45646091 C0.464888889,6.45646091 0.0118518519,6.90933333 0.0118518519,7.46824691 L0.0118518519,12.7295473 C0.0118518519,13.2879342 0.464888889,13.7412675 1.02360494,13.7412675 L1.45698765,13.7412675 L1.45698765,17.3428807 C1.45698765,17.7331358 1.77428807,18.0507325 2.16483951,18.0507325 L13.8447078,18.0507325 C14.23493,18.0507325 14.5525597,17.7331358 14.5525597,17.3428807 L14.5525597,13.7413004 L14.9860082,13.7413004 C15.5445597,13.7413004 15.9976626,13.2881646 15.9976626,12.7295802 L15.9976626,7.46844444 C15.9976955,6.90936626 15.5448889,6.45665844 14.9862058,6.45665844 Z M2.16483951,0.707884774 L10.3641481,0.707884774 L10.3641481,4.32948148 C10.3641481,4.52503704 10.5227325,4.68342387 10.7180905,4.68342387 L13.8447407,4.68342387 L13.8447407,6.45662551 L2.16483951,6.45662551 L2.16483951,0.707884774 Z M9.33583539,10.3592099 C8.64039506,10.1169383 8.18660082,9.73221399 8.18660082,9.12319342 C8.18660082,8.40885597 8.78281481,7.86238683 9.77066667,7.86238683 C10.2424691,7.86238683 10.5905185,7.96161317 10.838716,8.0735144 L10.6276543,8.83730041 C10.4600494,8.75677366 10.1619424,8.63855144 9.752,8.63855144 C9.34205761,8.63855144 9.14334156,8.82495473 9.14334156,9.04237037 C9.14334156,9.30953086 9.37942387,9.42742387 9.91963786,9.63236214 C10.6586008,9.90577778 11.0064856,10.2907984 11.0064856,10.8807901 C11.0064856,11.5827819 10.4660741,12.1790617 9.31700412,12.1790617 C8.83884774,12.1790617 8.36684774,12.0549794 8.13079835,11.9243457 L8.32316049,11.1417942 C8.57790947,11.2720988 8.96931687,11.4027654 9.37287243,11.4027654 C9.80803292,11.4027654 10.0374979,11.2226831 10.0374979,10.9493004 C10.0376626,10.6886255 9.8389465,10.5392593 9.33583539,10.3592099 Z M7.733893,11.3218107 L7.733893,12.1171029 L5.11861728,12.1171029 L5.11861728,7.9302716 L6.06930041,7.9302716 L6.06930041,11.3218107 L7.733893,11.3218107 Z M2.08187654,12.1171029 L1.00118519,12.1171029 L2.21231276,9.9984856 L1.04447737,7.930107 L2.13158848,7.930107 L2.49784362,8.69422222 C2.62209053,8.94890535 2.7153251,9.15361317 2.81481481,9.39002469 L2.82689712,9.39002469 C2.92655144,9.1228642 3.00720988,8.93652675 3.11249383,8.69422222 L3.46660082,7.930107 L4.5473251,7.930107 L3.36714403,9.9734321 L4.60961317,12.1167407 L3.51654321,12.1167407 L3.13744856,11.3588148 C2.98241975,11.0672922 2.88296296,10.849679 2.76490535,10.6074074 L2.75255967,10.6074074 C2.66548148,10.849679 2.56013169,11.0672922 2.42956379,11.3588148 L2.08187654,12.1171029 Z M13.8447407,17.1512099 L2.16483951,17.1512099 L2.16483951,13.7413004 L13.8447407,13.7413004 L13.8447407,17.1512099 L13.8447407,17.1512099 Z M13.8511276,12.1171029 L13.4721317,11.359177 C13.3169053,11.0673909 13.2175473,10.8500412 13.0994897,10.6077366 L13.0874403,10.6077366 C13.0003292,10.8500412 12.8945844,11.0673909 12.7639177,11.359177 L12.4165597,12.1171029 L11.3355391,12.1171029 L12.5466667,9.9984856 L11.3788971,7.930107 L12.4659753,7.930107 L12.8326914,8.69422222 C12.9568066,8.94890535 13.0497449,9.15361317 13.1493333,9.39002469 L13.1617449,9.39002469 C13.2609383,9.1228642 13.341465,8.93652675 13.4472099,8.69422222 L13.8011852,7.930107 L14.8821728,7.930107 L13.7019588,9.9734321 L14.9441975,12.1167407 L13.8511276,12.1167407 L13.8511276,12.1171029 Z" id="Shape"></path>
            </g>
        </g>
    </g>
</svg>