<?xml version="1.0" encoding="UTF-8"?>
<svg width="23px" height="26px" viewBox="0 0 23 26" version="1.1" xmlns="http://www.w3.org/2000/svg" xmlns:xlink="http://www.w3.org/1999/xlink">
    <!-- Generator: Sketch 55.2 (78181) - https://sketchapp.com -->
    <title>xlsx-file-format-extension</title>
    <desc>Created with Sketch.</desc>
    <g id="Index" stroke="none" stroke-width="1" fill="none" fill-rule="evenodd">
        <g id="9.-Fee-Schedule" transform="translate(-853.000000, -430.000000)" fill="#686868" fill-rule="nonzero">
            <g id="xlsx-file-format-extension" transform="translate(853.000000, 430.000000)">
                <path d="M21.2961871,9.17525146 L20.6802339,9.17525146 L20.6802339,6.20332164 C20.6802339,6.18479532 20.6773333,6.16612865 20.6751345,6.14718129 C20.674152,6.02928655 20.6363509,5.91340351 20.5555556,5.82156725 L15.6096842,0.172023392 C15.6081404,0.170573099 15.6066901,0.17005848 15.6057076,0.16851462 C15.5762339,0.135578947 15.5418947,0.108163743 15.5054503,0.0844912281 C15.4947368,0.0772865497 15.483883,0.071251462 15.4726082,0.0648888889 C15.4411696,0.0478128655 15.4077193,0.0334502924 15.3733801,0.0231111111 C15.3640234,0.0206783626 15.3556491,0.0168421053 15.346386,0.0144093567 C15.3090058,0.00552046784 15.2702222,0 15.2309708,0 L3.07635088,0 C2.52135673,0 2.07045614,0.451415205 2.07045614,1.00594152 L2.07045614,9.17497076 L1.45459649,9.17497076 C0.660631579,9.17497076 0.0168421053,9.81852632 0.0168421053,10.6127719 L0.0168421053,18.0893567 C0.0168421053,18.8828538 0.660631579,19.5270643 1.45459649,19.5270643 L2.07045614,19.5270643 L2.07045614,24.6451462 C2.07045614,25.1997193 2.52135673,25.6510409 3.07635088,25.6510409 L19.6740585,25.6510409 C20.2285848,25.6510409 20.6799532,25.1997193 20.6799532,24.6451462 L20.6799532,19.5271111 L21.2959064,19.5271111 C22.0896374,19.5271111 22.7335205,18.8831813 22.7335205,18.0894035 L22.7335205,10.6130526 C22.7335205,9.8185731 22.0901053,9.17525146 21.2961871,9.17525146 Z M3.07635088,1.00594152 L14.728,1.00594152 L14.728,6.15242105 C14.728,6.43031579 14.9533567,6.65539181 15.2309708,6.65539181 L19.6741053,6.65539181 L19.6741053,9.17520468 L3.07635088,9.17520468 L3.07635088,1.00594152 Z M13.2667135,14.7209825 C12.2784561,14.3767018 11.6335906,13.8299883 11.6335906,12.964538 C11.6335906,11.9494269 12.4808421,11.1728655 13.8846316,11.1728655 C14.5550877,11.1728655 15.0496842,11.3138713 15.402386,11.4728889 L15.1024561,12.558269 C14.8642807,12.4438363 14.440655,12.2758363 13.8581053,12.2758363 C13.2755556,12.2758363 12.9931696,12.5407251 12.9931696,12.8496842 C12.9931696,13.2293333 13.328655,13.3968655 14.0963275,13.6880936 C15.1464327,14.0766316 15.6407953,14.6237661 15.6407953,15.4621754 C15.6407953,16.4597427 14.8728421,17.3070877 13.2399532,17.3070877 C12.5604678,17.3070877 11.889731,17.1307602 11.5542924,16.9451228 L11.8276491,15.833076 C12.1896608,16.0182456 12.7458713,16.2039298 13.319345,16.2039298 C13.937731,16.2039298 14.2638129,15.9480234 14.2638129,15.5595322 C14.2640468,15.1890994 13.9816608,14.9768421 13.2667135,14.7209825 Z M10.990269,16.0888889 L10.990269,17.2190409 L7.27382456,17.2190409 L7.27382456,11.2693333 L8.62479532,11.2693333 L8.62479532,16.0888889 L10.990269,16.0888889 Z M2.95845614,17.2190409 L1.42273684,17.2190409 L3.14381287,14.2083743 L1.48425731,11.2690994 L3.02909942,11.2690994 L3.54956725,12.3549474 C3.72612865,12.7168655 3.85861988,13.0077661 4,13.3437193 L4.01716959,13.3437193 C4.15878363,12.9640702 4.27340351,12.6992749 4.42301754,12.3549474 L4.92622222,11.2690994 L6.4619883,11.2690994 L4.78488889,14.1727719 L6.55050292,17.2185263 L4.99719298,17.2185263 L4.45847953,16.1414737 C4.23817544,15.7272047 4.09684211,15.4179649 3.92907602,15.0736842 L3.91153216,15.0736842 C3.78778947,15.4179649 3.63808187,15.7272047 3.45253801,16.1414737 L2.95845614,17.2190409 Z M19.6741053,24.3727719 L3.07635088,24.3727719 L3.07635088,19.5271111 L19.6741053,19.5271111 L19.6741053,24.3727719 L19.6741053,24.3727719 Z M19.6831813,17.2190409 L19.1446082,16.1419883 C18.9240234,15.727345 18.7828304,15.4184795 18.6150643,15.074152 L18.5979415,15.074152 C18.474152,15.4184795 18.323883,15.727345 18.1381988,16.1419883 L17.6445848,17.2190409 L16.1083977,17.2190409 L17.8294737,14.2083743 L16.1700117,11.2690994 L17.714807,11.2690994 L18.2359298,12.3549474 C18.4123041,12.7168655 18.5443743,13.0077661 18.6858947,13.3437193 L18.7035322,13.3437193 C18.8444912,12.9640702 18.958924,12.6992749 19.109193,12.3549474 L19.6122105,11.2690994 L21.1483509,11.2690994 L19.4712047,14.1727719 L21.2364912,17.2185263 L19.6831813,17.2185263 L19.6831813,17.2190409 Z" id="Shape"></path>
            </g>
        </g>
    </g>
</svg>