<?xml version="1.0" encoding="UTF-8"?>
<svg width="18px" height="18px" viewBox="0 0 18 18" version="1.1" xmlns="http://www.w3.org/2000/svg" xmlns:xlink="http://www.w3.org/1999/xlink">
    <!-- Generator: Sketch 54.1 (76490) - https://sketchapp.com -->
    <title>categories-icon</title>
    <desc>Created with Sketch.</desc>
    <defs>
        <rect id="path-1" x="0" y="0" width="20" height="20"></rect>
    </defs>
    <g id="Symbols" stroke="none" stroke-width="1" fill="none" fill-rule="evenodd">
        <g id="admin\leftnav" transform="translate(-1.000000, -283.000000)">
            <g id="categories-icon" transform="translate(-0.000000, 282.000000)">
                <mask id="mask-2" fill="white">
                    <use xlink:href="#path-1"></use>
                </mask>
                <g id="Mask"></g>
                <path d="M4.85714286,14.5 L4.85714286,15.3181818 C4.85714286,15.4289778 4.82533514,15.5248575 4.76171875,15.6058239 C4.69810236,15.6867902 4.62276829,15.7272727 4.53571429,15.7272727 L3.89285714,15.7272727 C3.80580314,15.7272727 3.73046907,15.6867902 3.66685268,15.6058239 C3.60323629,15.5248575 3.57142857,15.4289778 3.57142857,15.3181818 L3.57142857,14.5 C3.57142857,14.389204 3.60323629,14.2933243 3.66685268,14.212358 C3.73046907,14.1313916 3.80580314,14.0909091 3.89285714,14.0909091 L4.53571429,14.0909091 C4.62276829,14.0909091 4.69810236,14.1313916 4.76171875,14.212358 C4.82533514,14.2933243 4.85714286,14.389204 4.85714286,14.5 Z M4.85714286,11.2272727 L4.85714286,12.0454545 C4.85714286,12.1562506 4.82533514,12.2521303 4.76171875,12.3330966 C4.69810236,12.4140629 4.62276829,12.4545455 4.53571429,12.4545455 L3.89285714,12.4545455 C3.80580314,12.4545455 3.73046907,12.4140629 3.66685268,12.3330966 C3.60323629,12.2521303 3.57142857,12.1562506 3.57142857,12.0454545 L3.57142857,11.2272727 C3.57142857,11.1164767 3.60323629,11.020597 3.66685268,10.9396307 C3.73046907,10.8586644 3.80580314,10.8181818 3.89285714,10.8181818 L4.53571429,10.8181818 C4.62276829,10.8181818 4.69810236,10.8586644 4.76171875,10.9396307 C4.82533514,11.020597 4.85714286,11.1164767 4.85714286,11.2272727 Z M4.85714286,7.95454545 L4.85714286,8.77272727 C4.85714286,8.88352328 4.82533514,8.979403 4.76171875,9.06036932 C4.69810236,9.14133563 4.62276829,9.18181818 4.53571429,9.18181818 L3.89285714,9.18181818 C3.80580314,9.18181818 3.73046907,9.14133563 3.66685268,9.06036932 C3.60323629,8.979403 3.57142857,8.88352328 3.57142857,8.77272727 L3.57142857,7.95454545 C3.57142857,7.84374945 3.60323629,7.74786972 3.66685268,7.66690341 C3.73046907,7.5859371 3.80580314,7.54545455 3.89285714,7.54545455 L4.53571429,7.54545455 C4.62276829,7.54545455 4.69810236,7.5859371 4.76171875,7.66690341 C4.82533514,7.74786972 4.85714286,7.84374945 4.85714286,7.95454545 Z M16.4285714,14.5 L16.4285714,15.3181818 C16.4285714,15.4289778 16.3967637,15.5248575 16.3331473,15.6058239 C16.2695309,15.6867902 16.1941969,15.7272727 16.1071429,15.7272727 L6.46428571,15.7272727 C6.37723171,15.7272727 6.30189764,15.6867902 6.23828125,15.6058239 C6.17466486,15.5248575 6.14285714,15.4289778 6.14285714,15.3181818 L6.14285714,14.5 C6.14285714,14.389204 6.17466486,14.2933243 6.23828125,14.212358 C6.30189764,14.1313916 6.37723171,14.0909091 6.46428571,14.0909091 L16.1071429,14.0909091 C16.1941969,14.0909091 16.2695309,14.1313916 16.3331473,14.212358 C16.3967637,14.2933243 16.4285714,14.389204 16.4285714,14.5 Z M16.4285714,11.2272727 L16.4285714,12.0454545 C16.4285714,12.1562506 16.3967637,12.2521303 16.3331473,12.3330966 C16.2695309,12.4140629 16.1941969,12.4545455 16.1071429,12.4545455 L6.46428571,12.4545455 C6.37723171,12.4545455 6.30189764,12.4140629 6.23828125,12.3330966 C6.17466486,12.2521303 6.14285714,12.1562506 6.14285714,12.0454545 L6.14285714,11.2272727 C6.14285714,11.1164767 6.17466486,11.020597 6.23828125,10.9396307 C6.30189764,10.8586644 6.37723171,10.8181818 6.46428571,10.8181818 L16.1071429,10.8181818 C16.1941969,10.8181818 16.2695309,10.8586644 16.3331473,10.9396307 C16.3967637,11.020597 16.4285714,11.1164767 16.4285714,11.2272727 Z M16.4285714,7.95454545 L16.4285714,8.77272727 C16.4285714,8.88352328 16.3967637,8.979403 16.3331473,9.06036932 C16.2695309,9.14133563 16.1941969,9.18181818 16.1071429,9.18181818 L6.46428571,9.18181818 C6.37723171,9.18181818 6.30189764,9.14133563 6.23828125,9.06036932 C6.17466486,8.979403 6.14285714,8.88352328 6.14285714,8.77272727 L6.14285714,7.95454545 C6.14285714,7.84374945 6.17466486,7.74786972 6.23828125,7.66690341 C6.30189764,7.5859371 6.37723171,7.54545455 6.46428571,7.54545455 L16.1071429,7.54545455 C16.1941969,7.54545455 16.2695309,7.5859371 16.3331473,7.66690341 C16.3967637,7.74786972 16.4285714,7.84374945 16.4285714,7.95454545 Z M17.7142857,16.9545455 L17.7142857,6.31818182 C17.7142857,6.20738581 17.682478,6.11150609 17.6188616,6.03053977 C17.5552452,5.94957346 17.4799111,5.90909091 17.3928571,5.90909091 L2.60714286,5.90909091 C2.52008885,5.90909091 2.44475478,5.94957346 2.38113839,6.03053977 C2.317522,6.11150609 2.28571429,6.20738581 2.28571429,6.31818182 L2.28571429,16.9545455 C2.28571429,17.0653415 2.317522,17.1612212 2.38113839,17.2421875 C2.44475478,17.3231538 2.52008885,17.3636364 2.60714286,17.3636364 L17.3928571,17.3636364 C17.4799111,17.3636364 17.5552452,17.3231538 17.6188616,17.2421875 C17.682478,17.1612212 17.7142857,17.0653415 17.7142857,16.9545455 Z M19,3.04545455 L19,16.9545455 C19,17.5170483 18.8426355,17.9985775 18.5279018,18.3991477 C18.2131681,18.7997179 17.8348236,19 17.3928571,19 L2.60714286,19 C2.16517636,19 1.78683193,18.7997179 1.47209821,18.3991477 C1.1573645,17.9985775 1,17.5170483 1,16.9545455 L1,3.04545455 C1,2.48295173 1.1573645,2.00142246 1.47209821,1.60085227 C1.78683193,1.20028209 2.16517636,1 2.60714286,1 L17.3928571,1 C17.8348236,1 18.2131681,1.20028209 18.5279018,1.60085227 C18.8426355,2.00142246 19,2.48295173 19,3.04545455 Z M2.3,2 C2.13431458,2 2,2.13431458 2,2.3 L2,4.7 C2,4.86568542 2.13431458,5 2.3,5 L17.4,5 C17.5656854,5 17.7,4.86568542 17.7,4.7 L17.7,2.3 C17.7,2.13431458 17.5656854,2 17.4,2 L2.3,2 Z" fill="#FFFFFF" fill-rule="nonzero" mask="url(#mask-2)"></path>
            </g>
        </g>
    </g>
</svg>