<?xml version="1.0" encoding="UTF-8"?>
<svg width="60px" height="57px" viewBox="0 0 60 57" version="1.1" xmlns="http://www.w3.org/2000/svg" xmlns:xlink="http://www.w3.org/1999/xlink">
    <!-- Generator: sketchtool 55.1 (78136) - https://sketchapp.com -->
    <title>A77242DB-1DD9-417C-B7F4-61927CC982D7</title>
    <desc>Created with sketchtool.</desc>
    <g id="Admin" stroke="none" stroke-width="1" fill="none" fill-rule="evenodd">
        <g id="0.-Admin-Reset-Password-Sent" transform="translate(-540.000000, -310.000000)" fill="#FFFFFF" fill-rule="nonzero">
            <g id="Group-2" transform="translate(385.000000, 202.000000)">
                <g id="check" transform="translate(155.000000, 108.000000)">
                    <path d="M54.8533215,23.4933237 C53.5170449,23.4933237 52.4339157,24.5628926 52.4339157,25.8821816 L52.4339157,28.2882496 C52.4302893,34.564517 49.9514571,40.4637786 45.4541138,44.8991399 C40.9600459,49.3312672 34.9881542,51.77164 28.6367754,51.77164 C28.6320962,51.77164 28.6274169,51.77164 28.6227377,51.77164 C15.5007193,51.7642477 4.83132944,41.2176745 4.83881624,28.2612216 C4.84244266,21.9850698 7.32127489,16.0858082 11.8187352,11.6502158 C16.312803,7.21808859 22.2848117,4.77771581 28.6360735,4.77771581 C28.6407528,4.77771581 28.645432,4.77771581 28.6501113,4.77771581 C32.0041971,4.77956388 35.2583809,5.46404178 38.3221192,6.81186032 C39.5429353,7.34895486 40.9727969,6.80712464 41.5167596,5.6020693 C42.0604884,4.39701396 41.5120804,2.98485959 40.2914982,2.44776505 C36.6047178,0.82573954 32.6890052,0.00219457984 28.6528019,0 C28.6467188,0 28.6420396,0 28.6359566,0 C20.9936899,0 13.8065972,2.93704085 8.39902294,8.27010087 C2.98723736,13.607319 0.00445000394,20.7060918 0,28.2586806 C-0.00432358818,35.8110383 2.97004112,42.9131607 8.37574368,48.2566161 C13.7814462,53.6000715 20.9708786,56.5451976 28.6199301,56.5495868 C28.6258962,56.5495868 28.6306924,56.5495868 28.6367754,56.5495868 C36.2790421,56.5495868 43.4661348,53.6126614 48.873709,48.2794859 C54.2854946,42.9421522 57.268282,35.8433795 57.2727273,28.2896357 L57.2727273,25.8822971 C57.2727273,24.5628926 56.1895981,23.4933237 54.8533215,23.4933237 Z" id="Path"></path>
                    <path d="M59.29053,3.38687307 C58.3445701,2.46149226 56.8109133,2.46149226 55.8649534,3.38687307 L28.7054674,29.9586855 L22.5440204,23.9305332 C21.5981776,23.0050378 20.0644037,23.0050378 19.1185609,23.9305332 C18.1726009,24.8560285 18.1726009,26.3565067 19.1185609,27.2820021 L26.9928548,34.9859462 C27.4657762,35.4487512 28.0857975,35.6800964 28.7057017,35.6800964 C29.3256058,35.6800964 29.94551,35.4487512 30.4185486,34.9859462 L59.29053,6.738342 C60.23649,5.81284662 60.23649,4.31236846 59.29053,3.38687307 Z" id="Path"></path>
                </g>
            </g>
        </g>
    </g>
</svg>