<?xml version="1.0" encoding="UTF-8"?>
<svg width="18px" height="18px" viewBox="0 0 18 18" version="1.1" xmlns="http://www.w3.org/2000/svg" xmlns:xlink="http://www.w3.org/1999/xlink">
    <!-- Generator: Sketch 54.1 (76490) - https://sketchapp.com -->
    <title>complaints-icon</title>
    <desc>Created with Sketch.</desc>
    <defs>
        <rect id="path-1" x="0" y="0" width="20" height="20"></rect>
    </defs>
    <g id="Symbols" stroke="none" stroke-width="1" fill="none" fill-rule="evenodd">
        <g id="admin\leftnav" transform="translate(-1.000000, -60.000000)">
            <g id="complaints-icon" transform="translate(0.000000, 59.000000)">
                <mask id="mask-2" fill="white">
                    <use xlink:href="#path-1"></use>
                </mask>
                <g id="Mask"></g>
                <path d="M14.2890625,13.9023438 C14.3515628,14.0976572 14.335938,14.2871085 14.2421875,14.4707031 C14.148437,14.6542978 14.0039072,14.7773434 13.8085938,14.8398438 C13.6132803,14.9023441 13.4218759,14.8867192 13.234375,14.7929688 C13.0468741,14.6992183 12.9218753,14.5507823 12.859375,14.3476563 C12.6640615,13.7226531 12.302737,13.2167988 11.7753906,12.8300781 C11.2480442,12.4433574 10.6562533,12.25 10,12.25 C9.34374672,12.25 8.75195576,12.4433574 8.22460938,12.8300781 C7.69726299,13.2167988 7.33593848,13.7226531 7.140625,14.3476563 C7.07812469,14.5507823 6.95507904,14.6992183 6.77148438,14.7929688 C6.58788971,14.8867192 6.39843848,14.9023441 6.203125,14.8398438 C5.99999898,14.7773434 5.85156297,14.6542978 5.7578125,14.4707031 C5.66406203,14.2871085 5.64843719,14.0976572 5.7109375,13.9023438 C6.00000145,12.9570265 6.53905855,12.1953154 7.328125,11.6171875 C8.11719145,11.0390596 9.00780754,10.75 10,10.75 C10.9921925,10.75 11.8828086,11.0390596 12.671875,11.6171875 C13.4609414,12.1953154 13.9999986,12.9570265 14.2890625,13.9023438 Z M8.0546875,5.9453125 C8.35156398,6.23437645 8.5,6.58593543 8.5,7 C8.5,7.41406457 8.35351709,7.76757666 8.06054688,8.06054688 C7.76757666,8.35351709 7.41406457,8.5 7,8.5 C6.58593543,8.5 6.23242334,8.35351709 5.93945312,8.06054688 C5.64648291,7.76757666 5.5,7.41406457 5.5,7 C5.5,6.58593543 5.64648291,6.23242334 5.93945312,5.93945312 C6.23242334,5.64648291 6.58593543,5.5 7,5.5 C7.41406457,5.5 7.76562355,5.64843602 8.0546875,5.9453125 Z M14.0546875,5.9453125 C14.351564,6.23437645 14.5,6.58593543 14.5,7 C14.5,7.41406457 14.3535171,7.76757666 14.0605469,8.06054688 C13.7675767,8.35351709 13.4140646,8.5 13,8.5 C12.5859354,8.5 12.2324233,8.35351709 11.9394531,8.06054688 C11.6464829,7.76757666 11.5,7.41406457 11.5,7 C11.5,6.58593543 11.6464829,6.23242334 11.9394531,5.93945312 C12.2324233,5.64648291 12.5859354,5.5 13,5.5 C13.4140646,5.5 13.7656236,5.64843602 14.0546875,5.9453125 Z M16.9023438,12.9179688 C17.3007832,11.9882766 17.5,11.0156301 17.5,10 C17.5,8.98436992 17.3007832,8.0136765 16.9023438,7.08789062 C16.5039043,6.16210475 15.9707065,5.36523771 15.3027344,4.69726563 C14.6347623,4.02929354 13.8378953,3.49609574 12.9121094,3.09765625 C11.9863235,2.69921676 11.0156301,2.5 10,2.5 C8.98436992,2.5 8.0136765,2.69921676 7.08789062,3.09765625 C6.16210475,3.49609574 5.36523771,4.02929354 4.69726562,4.69726563 C4.02929354,5.36523771 3.49609574,6.16210475 3.09765625,7.08789062 C2.69921676,8.0136765 2.5,8.98436992 2.5,10 C2.5,11.0156301 2.69921676,11.9863235 3.09765625,12.9121094 C3.49609574,13.8378953 4.02929354,14.6347623 4.69726562,15.3027344 C5.36523771,15.9707065 6.16210475,16.5039043 7.08789062,16.9023438 C8.0136765,17.3007832 8.98436992,17.5 10,17.5 C11.0156301,17.5 11.9863235,17.3007832 12.9121094,16.9023438 C13.8378953,16.5039043 14.6347623,15.9707065 15.3027344,15.3027344 C15.9707065,14.6347623 16.5039043,13.8398484 16.9023438,12.9179688 Z M17.7929688,5.48828125 C18.5976603,6.86328813 19,8.36717934 19,10 C19,11.6328207 18.5976603,13.138665 17.7929688,14.5175781 C16.9882772,15.8964913 15.8964913,16.9882772 14.5175781,17.7929688 C13.138665,18.5976603 11.6328207,19 10,19 C8.36717934,19 6.86133502,18.5976603 5.48242187,17.7929688 C4.10350873,16.9882772 3.01172277,15.8964913 2.20703125,14.5175781 C1.40233973,13.138665 1,11.6328207 1,10 C1,8.36717934 1.40233973,6.86133502 2.20703125,5.48242187 C3.01172277,4.10350873 4.10350873,3.01172277 5.48242187,2.20703125 C6.86133502,1.40233973 8.36717934,1 10,1 C11.6328207,1 13.138665,1.40233973 14.5175781,2.20703125 C15.8964913,3.01172277 16.9882772,4.10546184 17.7929688,5.48828125 Z" fill="#FFFFFF" fill-rule="nonzero" mask="url(#mask-2)"></path>
            </g>
        </g>
    </g>
</svg>