<?xml version="1.0" encoding="UTF-8"?>
<svg width="34px" height="35px" viewBox="0 0 34 35" version="1.1" xmlns="http://www.w3.org/2000/svg" xmlns:xlink="http://www.w3.org/1999/xlink">
    <!-- Generator: sketchtool 55.2 (78181) - https://sketchapp.com -->
    <title>45CE233C-AE2E-4C3A-AE92-0E84CBFCEB42</title>
    <desc>Created with sketchtool.</desc>
    <g id="Admin" stroke="none" stroke-width="1" fill="none" fill-rule="evenodd">
        <g id="1.-Admin-BORB-Dashboard" transform="translate(-371.000000, -1534.000000)">
            <g id="cusotmer-visit-icon" transform="translate(371.000000, 1534.000000)">
                <polygon id="Path-3" fill="#D5EBEB" points="1.5 35 0.111033963 21.2402858 5.18722546 21.0923332 9.49635202 34.8204182"></polygon>
                <path d="M30.186337,21.0427449 L30.0116946,21.1373653 C29.3062042,20.2777977 28.0839286,19.9447042 27.152699,20.4185456 C27.1493858,20.4201719 27.1460726,20.421946 27.142833,20.4236462 L26.7305239,20.6465217 C25.7231024,19.7900734 24.2889065,19.6599749 23.1449072,20.321264 L20.9246962,21.5335884 L17.9703542,21.5335884 C17.3306479,21.5327325 16.6993175,21.3874918 16.1230621,21.1086096 L15.7166431,20.9112372 C13.3573012,19.7586663 10.5532397,20.0336222 8.46059169,21.6227386 C8.4509466,21.6301309 8.44152239,21.6375231 8.43253995,21.6458763 L7.45131788,22.5228896 C7.08050047,22.8535584 6.64218402,23.0988637 6.16704862,23.2416353 L5.60976867,21.4049638 C5.55308487,21.2183231 5.38156991,21.0907982 5.18722546,21.0907943 L0.441768431,21.0907943 C0.315292506,21.0907925 0.194881589,21.1452181 0.111033963,21.2402858 C0.0271863358,21.3353535 -0.0120553499,21.4619445 0.00324823699,21.5879952 L1.5850427,34.6101342 C1.61206284,34.8326903 1.80025595,35 2.0235629,35 L9.14134349,35 C9.28133572,35 9.4130411,34.9333738 9.49635202,34.8204182 C9.57966293,34.7074627 9.60471777,34.5615457 9.56388671,34.4271028 L8.62882854,31.346468 L11.5410562,29.4984124 C11.9307253,29.2819386 12.387868,29.2225477 12.8195825,29.3323092 C12.8287123,29.3346007 12.8379156,29.3366706 12.8471925,29.3382969 L18.7711174,30.4335285 C20.3810085,30.7227516 22.0408332,30.4874533 23.5080337,29.762019 C23.5267838,29.7527388 23.5448444,29.7421159 23.5620756,29.7302325 L33.8082516,22.6668161 C34.0009313,22.5339837 34.0572122,22.2734499 33.9366565,22.0724075 C33.1621247,20.7772444 31.509513,20.3235143 30.186337,21.0427449 L30.186337,21.0427449 Z M27.5566147,21.2074436 C28.0951935,20.9366665 28.7732211,21.1586549 29.2062929,21.5735804 L25.3208685,23.6781461 L25.092626,23.7988611 C24.9695888,23.4481308 24.7897853,23.1201731 24.5604527,22.8281883 L27.5566147,21.2074436 Z M23.572457,21.0976691 C23.5759174,21.0956732 23.5798197,21.0937512 23.582912,21.0916814 C24.2916637,20.6803624 25.1671432,20.6886321 25.8680616,21.1132667 L23.8925856,22.1811471 C23.5159837,21.9051735 23.0862507,21.7109946 22.6307724,21.610985 L23.572457,21.0976691 Z M2.41437304,34.1129333 L0.940736086,21.977861 L4.85980784,21.977861 L8.54482055,34.1129333 L2.41437304,34.1129333 Z M23.087552,28.9804394 C21.7975521,29.6109194 20.3415313,29.814052 18.9291937,29.560581 L13.019847,28.4680105 C12.3698504,28.3069003 11.683141,28.4003358 11.0992964,28.7293256 C11.0924491,28.7330956 11.0856018,28.7372353 11.0789018,28.7415227 L8.36097486,30.4666457 L6.42459456,24.0907799 C7.02168638,23.9101098 7.5723659,23.6009079 8.03826936,23.1847152 L9.00564962,22.3198252 C10.8330117,20.9404825 13.275759,20.7045557 15.3315022,21.708858 L15.7378476,21.9062304 C16.4341136,22.243173 17.1969161,22.4186537 17.9698388,22.4196941 L21.910704,22.4196941 C23.1052615,22.4213942 24.1306377,23.2738266 24.355108,24.4518161 L21.498763,24.3220826 C20.4603787,24.2752256 19.4199018,24.3234994 18.3902468,24.4663048 C18.1505758,24.5020227 17.9842873,24.7249023 18.017524,24.9658723 C18.0507606,25.2068423 18.2711172,25.3759635 18.5114362,25.3449444 C19.4876995,25.2094702 20.4742411,25.1637445 21.4587838,25.2083361 L24.8202811,25.3609855 C24.8269811,25.3609855 24.8336811,25.361429 24.8403075,25.361429 C25.0842847,25.361429 25.2820673,25.1628524 25.2820673,24.9178957 C25.2820673,24.8461172 25.2790486,24.775004 25.2747046,24.7042605 L25.7356809,24.4603171 L30.6060087,21.8230679 C31.3750915,21.4049321 32.3280925,21.5582962 32.9284871,22.1968186 L23.087552,28.9804394 Z" id="Shape" fill="#004545" fill-rule="nonzero"></path>
                <path d="M13.6,9.60784314 C14.3563968,9.21403947 15.5689736,10.3816675 17.0274248,10.4089189 C17.5369184,10.4184389 18.3624945,10.0402251 19.5041532,9.27427744 C20.6034772,9.27427744 21.4137745,9.73038916 21.9350452,10.6426126 C22.4563158,11.5548361 22.6135445,13.8406319 22.4067312,17.5 L11.56,17.5 L11.56,12.5822781 C11.767245,11.1994815 12.447245,10.2080032 13.6,9.60784314 Z" id="Rectangle" fill="#D5EBEB"></path>
                <rect id="Rectangle" fill="#D5EBEB" x="14" y="0" width="6" height="8" rx="3"></rect>
                <path d="M4.08,32.2548819 C4.08,32.810018 4.41134852,33.3104919 4.91953826,33.5229333 C5.427728,33.7353747 6.0126797,33.617947 6.40163129,33.2254064 C6.79058288,32.8328659 6.90693701,32.2425167 6.69643793,31.7296378 C6.48593884,31.2167589 5.99004074,30.8823529 5.43998012,30.8823529 C4.68922924,30.8831939 4.08083322,31.4972037 4.08,32.2548819 Z M5.43998012,31.7542612 C5.71393742,31.7542612 5.93602369,31.9783967 5.93602369,32.2548819 C5.93602369,32.5313671 5.71393742,32.7555026 5.43998012,32.7555026 C5.16602282,32.7555026 4.94393655,32.5313671 4.94393655,32.2548819 C4.94441233,31.9786194 5.16624334,31.7548065 5.43998012,31.7544065 L5.43998012,31.7542612 Z" id="Shape" fill="#004545" fill-rule="nonzero"></path>
                <path d="M20.4,4.85487221 L20.4,3.38042191 C20.3912302,1.51090964 18.87157,0 17,0 C15.12843,0 13.6087698,1.51090964 13.6,3.38042191 L13.6,4.85487221 C13.6087698,6.72438448 15.12843,8.23529412 17,8.23529412 C18.87157,8.23529412 20.3912302,6.72438448 20.4,4.85487221 Z M14.4958468,4.85487221 L14.4958468,3.38042191 C14.503369,2.00425238 15.6223104,0.892615124 17,0.892615124 C18.3776896,0.892615124 19.496631,2.00425238 19.5041532,3.38042191 L19.5041532,4.85487221 C19.496631,6.23104174 18.3776896,7.34267899 17,7.34267899 C15.6223104,7.34267899 14.503369,6.23104174 14.4958468,4.85487221 Z" id="Shape" fill="#004545" fill-rule="nonzero"></path>
                <path d="M22.3734624,17.8431373 C22.615755,17.8431373 22.812172,17.6446569 22.812172,17.3998189 L22.812172,16.3822555 L30.1612903,16.3822555 C30.403583,16.3822555 30.6,16.1837751 30.6,15.9389371 L30.6,13.0615054 C30.599011,11.3092414 29.2516612,9.85888481 27.5211355,9.7472573 C27.287157,9.72989399 27.1668774,9.87958783 27.0693376,9.99980099 C26.6760286,10.4853975 26.0829716,10.7604181 25.4621747,10.7450968 C24.8413778,10.7297756 24.2623142,10.4258272 23.8929333,9.92140753 C23.8079341,9.80514006 23.6721761,9.7380508 23.5291699,9.74164193 C22.9592744,9.7545738 22.402752,9.9186394 21.9153763,10.2173964 C21.2652899,9.45351372 20.3368244,8.98816239 19.3416129,8.92741387 C19.1149462,8.91810418 19.0002968,9.05715838 18.8892301,9.19340489 C18.4277485,9.76330659 17.7318071,10.0860884 17.0033026,10.0681093 C16.274798,10.0501303 15.5952796,9.69340312 15.1618796,9.10141633 C15.0770122,8.98499772 14.9411582,8.91788861 14.7981161,8.92172462 C13.8360138,8.94420972 12.9211073,9.34750057 12.2503097,10.0447978 C12.194886,10.1020598 12.142314,10.1613905 12.0910581,10.2216079 C11.6380514,9.9429181 11.12463,9.7800482 10.5952774,9.74710952 C10.3621032,9.72974622 10.2409462,9.87944006 10.1434796,9.99965322 C9.75018507,10.4852481 9.15713924,10.7602693 8.5363528,10.744948 C7.91556636,10.7296267 7.33651426,10.4256775 6.96714839,9.92125975 C6.88202694,9.80514056 6.74635032,9.73809152 6.60338495,9.74149416 C4.82135181,9.78733397 3.4,11.2601685 3.4,13.0615054 L3.4,15.9389371 C3.4,16.1837751 3.59641701,16.3822555 3.83870968,16.3822555 L11.1993806,16.3822555 L11.1993806,17.3998189 C11.1993806,17.6446569 11.3957977,17.8431373 11.6380903,17.8431373 L22.3734624,17.8431373 Z M23.3418409,10.6423171 C23.888957,11.269829 24.6759693,11.6303216 25.5035912,11.6325112 C26.331213,11.6347009 27.1200826,11.2783777 27.670443,10.6537695 C28.8493772,10.8335011 29.7214645,11.8567053 29.7225806,13.0615054 L29.7225806,15.4956187 L22.812172,15.4956187 L22.812172,12.6516576 C22.8126365,12.0612934 22.6736378,11.4793451 22.4067312,10.9541915 C22.693406,10.7852621 23.0119763,10.6790136 23.3418409,10.6423171 L23.3418409,10.6423171 Z M14.6090323,9.82180867 C15.2227761,10.5397941 16.1145385,10.9534664 17.05343,10.9557202 C17.9923214,10.9579739 18.8860186,10.5485875 19.5031312,9.83355661 C20.8960312,10.0282242 21.933746,11.2307277 21.9350452,12.6516576 L21.9350452,16.9565005 L12.0768,16.9565005 L12.0768,12.6516576 C12.0858127,11.194876 13.1755742,9.97703346 14.6090323,9.82180867 L14.6090323,9.82180867 Z M4.27741935,15.4956187 L4.27741935,13.0615054 C4.28509037,11.8256345 5.20195966,10.7887919 6.41642151,10.6426126 C6.96353395,11.2699263 7.75043653,11.6302629 8.57790888,11.632396 C9.40538123,11.6345291 10.1940929,11.2782542 10.7443656,10.6537695 C11.0464327,10.6994014 11.3370659,10.8030318 11.6005806,10.959068 C11.3360772,11.4831937 11.1985691,12.0633152 11.1993806,12.6516576 L11.1993806,15.4956187 L4.27741935,15.4956187 Z" id="Shape" fill="#004545" fill-rule="nonzero"></path>
                <path d="M28.56,6.49632712 L28.56,5.17033954 C28.56,3.4518967 27.1899913,2.05882353 25.5,2.05882353 C23.8100087,2.05882353 22.44,3.4518967 22.44,5.17033954 L22.44,6.49632712 C22.44,8.21476997 23.8100087,9.60784314 25.5,9.60784314 C27.1899913,9.60784314 28.56,8.21476997 28.56,6.49632712 L28.56,6.49632712 Z M23.3441663,6.49632712 L23.3441663,5.17033954 C23.3441663,3.95966076 24.3093659,2.97821169 25.5,2.97821169 C26.6906341,2.97821169 27.6558337,3.95966076 27.6558337,5.17033954 L27.6558337,6.49632712 C27.6558337,7.7070059 26.6906341,8.68845497 25.5,8.68845497 C24.3093659,8.68845497 23.3441663,7.7070059 23.3441663,6.49632712 L23.3441663,6.49632712 Z" id="Shape" fill="#004545" fill-rule="nonzero"></path>
                <path d="M11.56,6.49632715 L11.56,5.17033958 C11.56,4.05870197 10.9767673,3.03150645 10.03,2.47568764 C9.08323271,1.91986883 7.91676729,1.91986883 6.96999998,2.47568764 C6.02323268,3.03150645 5.44,4.05870197 5.44,5.17033958 L5.44,6.49632715 C5.44,8.21476998 6.81000867,9.60784314 8.5,9.60784314 C10.1899913,9.60784314 11.56,8.21476998 11.56,6.49632715 L11.56,6.49632715 Z M6.34416626,6.49632715 L6.34416626,5.17033958 C6.34416626,3.95966081 7.3093659,2.97821175 8.5,2.97821175 C9.6906341,2.97821175 10.6558337,3.95966081 10.6558337,5.17033958 L10.6558337,6.49632715 C10.6558337,7.279499 10.2449342,8.00317965 9.57791688,8.39476558 C8.9108996,8.78635151 8.0891004,8.78635151 7.42208312,8.39476558 C6.75506583,8.00317965 6.34416626,7.279499 6.34416626,6.49632715 L6.34416626,6.49632715 Z" id="Shape" fill="#004545" fill-rule="nonzero"></path>
            </g>
        </g>
    </g>
</svg>