<?xml version="1.0" encoding="UTF-8"?>
<svg width="20px" height="16px" viewBox="0 0 20 16" version="1.1" xmlns="http://www.w3.org/2000/svg" xmlns:xlink="http://www.w3.org/1999/xlink">
    <!-- Generator: Sketch 54.1 (76490) - https://sketchapp.com -->
    <title>dashboard-icon</title>
    <desc>Created with Sketch.</desc>
    <defs>
        <rect id="path-1" x="0" y="0" width="20" height="20"></rect>
    </defs>
    <g id="Symbols" stroke="none" stroke-width="1" fill="none" fill-rule="evenodd">
        <g id="admin\leftnav" transform="translate(0.000000, -13.000000)">
            <g id="dashboard-icon" transform="translate(0.000000, 11.000000)">
                <mask id="mask-2" fill="white">
                    <use xlink:href="#path-1"></use>
                </mask>
                <g id="Mask"></g>
                <g id="dashboard" mask="url(#mask-2)" fill="#FFFFFF" fill-rule="nonzero" stroke="#FFFFFF" stroke-width="0.5">
                    <g transform="translate(1.000000, 2.000000)" id="Shape">
                        <path d="M11.8500117,6.464 L10.4100117,7.2889 C9.9,7.57333333 9.36,7.82933333 8.85002344,8.0569 C8.70001172,8.1138 8.52001172,8.19913333 8.34001172,8.28446667 C7.71001172,8.59736667 7.38,9.25156667 7.53001172,9.9058 C7.65,10.4178 8.1,10.8444667 8.64,10.9582333 C8.75998828,10.9866667 8.88001172,10.9866667 9,10.9866667 C9.56998828,10.9866667 10.08,10.6737667 10.35,10.1902333 C10.4100117,10.048 10.5000117,9.87733333 10.5900117,9.70666667 C10.8600117,9.2231 11.1000234,8.7111 11.4000117,8.22756667 L12.2700234,6.86223333 C12.3300352,6.74846667 12.3000117,6.63466667 12.2100117,6.5209 C12.1200117,6.4071 11.97,6.4071 11.8500117,6.464 Z M10.89,7.91466667 C10.5599883,8.42666667 10.2899883,8.93866667 10.0500117,9.45066667 C9.99,9.62133333 9.9,9.76356667 9.81,9.93423333 C9.63,10.304 9.20998828,10.4746667 8.79001172,10.3893333 C8.46,10.3324333 8.19,10.0764333 8.13002344,9.76356667 C8.04002344,9.36533333 8.22002344,8.96713333 8.61001172,8.79646667 C8.76002344,8.71113333 8.94002344,8.65423333 9.12002344,8.5689 C9.66002344,8.3129 10.2300117,8.0569 10.7400234,7.77246667 L11.1300117,7.5449 L10.89,7.91466667 Z"></path>
                        <path d="M17.3573086,6.40693333 C17.3535117,6.38776667 17.3478164,6.36873333 17.3400117,6.3502 C17.3321719,6.3316 17.3221875,6.31456667 17.3105859,6.29896667 C16.861043,5.27843333 16.2079102,4.3568 15.3999141,3.58013333 C15.3885234,3.56406667 15.3752695,3.54866667 15.3600117,3.5342 C15.3447539,3.51973333 15.3285117,3.50716667 15.3115664,3.49636667 C13.6839727,1.9742 11.4526406,1.0311 9,1.0311 C7.82514844,1.0311 6.70116797,1.24776667 5.66982422,1.64046667 C5.64960938,1.64406667 5.62953516,1.64946667 5.61002344,1.65686667 C5.59044141,1.6643 5.57244141,1.67376667 5.55598828,1.68476667 C4.47964453,2.111 3.50760938,2.73026667 2.68846875,3.49636667 C2.67152344,3.50716667 2.65528125,3.51973333 2.64002344,3.5342 C2.62476563,3.54866667 2.61147656,3.56406667 2.60012109,3.58013333 C0.994675781,5.12333333 0,7.23896667 0,9.56443333 C0,11.4986667 0.659988281,13.3475333 1.95001172,14.8551 C2.01002344,14.9404333 2.10002344,14.9688667 2.19002344,14.9688667 L15.8100117,14.9688667 C15.9000117,14.9688667 15.9900117,14.9404333 16.0500234,14.8551 C17.3400117,13.3475667 18,11.4986667 18,9.56443333 C18,8.4505 17.7714844,7.3848 17.3573086,6.40693333 Z M15.6899883,14.4 L2.34,14.4 C1.93433203,13.904 1.59742969,13.3718667 1.33119141,12.8128 L2.16,12.4942333 C2.31001172,12.4373333 2.36998828,12.2666667 2.31001172,12.1244667 C2.25,11.9822333 2.07,11.9253667 1.92002344,11.9822333 L1.1075625,12.2945333 C0.806132813,11.5164667 0.636679688,10.6938333 0.605601563,9.8489 L2.7,9.8489 C2.88,9.8489 2.99998828,9.73513333 2.99998828,9.56446667 C2.99998828,9.3938 2.88,9.28 2.7,9.28 L0.605988281,9.28 C0.639632813,8.3831 0.831550781,7.52283333 1.15611328,6.72353333 L1.98,7.06133333 C2.00998828,7.08976667 2.07,7.08976667 2.09998828,7.08976667 C2.21997656,7.08976667 2.30997656,7.03286667 2.36998828,6.9191 C2.43,6.77686667 2.36998828,6.6062 2.21997656,6.54933333 L1.38775781,6.2081 C1.76389453,5.44706667 2.26335938,4.75073333 2.86157812,4.14253333 L3.47997656,4.72886667 C3.53998828,4.78576667 3.59996484,4.8142 3.68996484,4.8142 C3.77996484,4.8142 3.83997656,4.78576667 3.89995313,4.72886667 C4.01994141,4.6151 4.01994141,4.44443333 3.89995313,4.33063333 L3.28155469,3.7443 C3.95363672,3.15003333 4.72756641,2.65826667 5.57528906,2.29636667 L5.90997656,3.0791 C5.93996484,3.19286667 6.05998828,3.24976667 6.17997656,3.24976667 C6.20996484,3.24976667 6.23998828,3.24976667 6.29996484,3.22133333 C6.44997656,3.16443333 6.50995313,2.99376667 6.44997656,2.85156667 L6.12200391,2.0845 C6.93133594,1.8024 7.79821875,1.6361 8.69997656,1.6057 L8.69997656,3.59113333 C8.69997656,3.7618 8.81996484,3.87556667 8.99996484,3.87556667 C9.17996484,3.87556667 9.29995313,3.7618 9.29995313,3.59113333 L9.29995313,1.60566667 C10.2459023,1.63756667 11.1532148,1.81953333 11.9962266,2.12726667 L11.6399531,2.90846667 C11.5799414,3.0507 11.6399531,3.22136667 11.7899648,3.27823333 C11.8199531,3.30666667 11.8799648,3.30666667 11.9099531,3.30666667 C12.0299414,3.30666667 12.1499648,3.22133333 12.1799531,3.136 L12.5398477,2.34693333 C13.3425,2.70356667 14.0769141,3.17713333 14.718375,3.74433333 L14.0999766,4.33066667 C13.9799883,4.44443333 13.9799883,4.6151 14.0999766,4.7289 C14.1599883,4.7858 14.2199648,4.81423333 14.3099648,4.81423333 C14.3699766,4.81423333 14.4599766,4.7858 14.5199531,4.7289 L15.1383516,4.14256667 C15.7651172,4.7798 16.2837773,5.5136 16.6654688,6.31736667 L15.8399297,6.6347 C15.689918,6.6916 15.6299414,6.86226667 15.689918,7.00446667 C15.7199063,7.11823333 15.8399297,7.17513333 15.959918,7.17513333 C15.9899063,7.17513333 16.0199297,7.1467 16.0799063,7.1467 L16.888957,6.83573333 C17.1864844,7.6031 17.3618789,8.42503333 17.3939414,9.28003333 L15.3,9.28003333 C15.12,9.28003333 15.0000117,9.3938 15.0000117,9.56446667 C15.0000117,9.73513333 15.12,9.8489 15.3,9.8489 L17.3944336,9.8489 C17.3618437,10.7353333 17.1774492,11.5972333 16.8523945,12.4088667 L16.02,12.0675667 C15.8699883,12.0106667 15.6899883,12.0675667 15.6300117,12.2098 C15.57,12.3520333 15.6300117,12.5227 15.7800234,12.5795667 L16.6231055,12.9252333 C16.3702969,13.4432667 16.0584258,13.9373667 15.6899883,14.4 Z"></path>
                    </g>
                </g>
            </g>
        </g>
    </g>
</svg>