<?xml version="1.0" encoding="UTF-8"?>
<svg width="14px" height="15px" viewBox="0 0 14 15" version="1.1" xmlns="http://www.w3.org/2000/svg" xmlns:xlink="http://www.w3.org/1999/xlink">
    <!-- Generator: Sketch 54.1 (76490) - https://sketchapp.com -->
    <title>del-icon-news</title>
    <desc>Created with Sketch.</desc>
    <defs>
        <rect id="path-1" x="0" y="0" width="18" height="18"></rect>
    </defs>
    <g id="Admin" stroke="none" stroke-width="1" fill="none" fill-rule="evenodd">
        <g id="25.-CMS-News" transform="translate(-942.000000, -284.000000)">
            <g id="del-icon-news" transform="translate(940.000000, 282.000000)">
                <mask id="mask-2" fill="white">
                    <use xlink:href="#path-1"></use>
                </mask>
                <g id="Mask"></g>
                <path d="M7.09090909,7.9375 L7.09090909,13.5625 C7.09090909,13.6536463 7.06107984,13.7285153 7.00142045,13.7871094 C6.94176107,13.8457034 6.86553077,13.875 6.77272727,13.875 L6.13636364,13.875 C6.04356014,13.875 5.96732984,13.8457034 5.90767045,13.7871094 C5.84801107,13.7285153 5.81818182,13.6536463 5.81818182,13.5625 L5.81818182,7.9375 C5.81818182,7.84635371 5.84801107,7.77148467 5.90767045,7.71289063 C5.96732984,7.65429658 6.04356014,7.625 6.13636364,7.625 L6.77272727,7.625 C6.86553077,7.625 6.94176107,7.65429658 7.00142045,7.71289063 C7.06107984,7.77148467 7.09090909,7.84635371 7.09090909,7.9375 Z M9.63636364,7.9375 L9.63636364,13.5625 C9.63636364,13.6536463 9.60653439,13.7285153 9.546875,13.7871094 C9.48721561,13.8457034 9.41098531,13.875 9.31818182,13.875 L8.68181818,13.875 C8.58901469,13.875 8.51278439,13.8457034 8.453125,13.7871094 C8.39346561,13.7285153 8.36363636,13.6536463 8.36363636,13.5625 L8.36363636,7.9375 C8.36363636,7.84635371 8.39346561,7.77148467 8.453125,7.71289063 C8.51278439,7.65429658 8.58901469,7.625 8.68181818,7.625 L9.31818182,7.625 C9.41098531,7.625 9.48721561,7.65429658 9.546875,7.71289063 C9.60653439,7.77148467 9.63636364,7.84635371 9.63636364,7.9375 Z M12.1818182,7.9375 L12.1818182,13.5625 C12.1818182,13.6536463 12.1519889,13.7285153 12.0923295,13.7871094 C12.0326702,13.8457034 11.9564399,13.875 11.8636364,13.875 L11.2272727,13.875 C11.1344692,13.875 11.0582389,13.8457034 10.9985795,13.7871094 C10.9389202,13.7285153 10.9090909,13.6536463 10.9090909,13.5625 L10.9090909,7.9375 C10.9090909,7.84635371 10.9389202,7.77148467 10.9985795,7.71289063 C11.0582389,7.65429658 11.1344692,7.625 11.2272727,7.625 L11.8636364,7.625 C11.9564399,7.625 12.0326702,7.65429658 12.0923295,7.71289063 C12.1519889,7.77148467 12.1818182,7.84635371 12.1818182,7.9375 Z M13.4545455,15.0078125 L13.4545455,5.75 L4.54545455,5.75 L4.54545455,15.0078125 C4.54545455,15.1510424 4.56865507,15.282877 4.61505682,15.4033203 C4.66145857,15.5237636 4.7095168,15.6116534 4.75923295,15.6669922 C4.80894911,15.722331 4.8437499,15.75 4.86363636,15.75 L13.1363636,15.75 C13.1562501,15.75 13.1910509,15.722331 13.240767,15.6669922 C13.2904832,15.6116534 13.3385414,15.5237636 13.3849432,15.4033203 C13.4313449,15.282877 13.4545455,15.1510424 13.4545455,15.0078125 Z M6.77272727,4.5 L11.2272727,4.5 L10.75,3.35742188 C10.7035983,3.29882783 10.6472541,3.2630209 10.5809659,3.25 L7.42897727,3.25 C7.36268906,3.2630209 7.30634493,3.29882783 7.25994318,3.35742188 L6.77272727,4.5 Z M16,4.8125 L16,5.4375 C16,5.52864629 15.9701708,5.60351533 15.9105114,5.66210938 C15.850852,5.72070342 15.7746217,5.75 15.6818182,5.75 L14.7272727,5.75 L14.7272727,15.0078125 C14.7272727,15.5481798 14.5714978,16.0152975 14.2599432,16.4091797 C13.9483886,16.8030619 13.5738658,17 13.1363636,17 L4.86363636,17 C4.42613418,17 4.05161141,16.8095722 3.74005682,16.4287109 C3.42850223,16.0478497 3.27272727,15.5872423 3.27272727,15.046875 L3.27272727,5.75 L2.31818182,5.75 C2.22537832,5.75 2.14914803,5.72070342 2.08948864,5.66210938 C2.02982925,5.60351533 2,5.52864629 2,5.4375 L2,4.8125 C2,4.72135371 2.02982925,4.64648467 2.08948864,4.58789063 C2.14914803,4.52929658 2.22537832,4.5 2.31818182,4.5 L5.390625,4.5 L6.08664773,2.86914063 C6.18608004,2.628254 6.36505553,2.42317793 6.62357955,2.25390625 C6.88210357,2.08463457 7.14393807,2 7.40909091,2 L10.5909091,2 C10.8560619,2 11.1178964,2.08463457 11.3764205,2.25390625 C11.6349445,2.42317793 11.81392,2.628254 11.9133523,2.86914063 L12.609375,4.5 L15.6818182,4.5 C15.7746217,4.5 15.850852,4.52929658 15.9105114,4.58789063 C15.9701708,4.64648467 16,4.72135371 16,4.8125 Z" fill="#FF0000" fill-rule="nonzero" mask="url(#mask-2)"></path>
            </g>
        </g>
    </g>
</svg>