<?xml version="1.0" encoding="UTF-8"?>
<svg width="19px" height="19px" viewBox="0 0 19 19" version="1.1" xmlns="http://www.w3.org/2000/svg" xmlns:xlink="http://www.w3.org/1999/xlink">
    <!-- Generator: Sketch 54.1 (76490) - https://sketchapp.com -->
    <title>deparment-icon</title>
    <desc>Created with Sketch.</desc>
    <defs>
        <rect id="path-1" x="0" y="0" width="20" height="20"></rect>
    </defs>
    <g id="Symbols" stroke="none" stroke-width="1" fill="none" fill-rule="evenodd">
        <g id="admin\leftnav" transform="translate(-1.000000, -192.000000)">
            <g id="deparment-icon" transform="translate(0.000000, 192.000000)">
                <mask id="mask-2" fill="white">
                    <use xlink:href="#path-1"></use>
                </mask>
                <g id="Mask"></g>
                <path d="M12.5,18.8662178 C12.3529133,18.9513029 12.1821436,19 12,19 L2,19 C1.44771525,19 1,18.5522847 1,18 L1,1 C1,0.44771525 1.44771525,1.01453063e-16 2,0 L12,0 C12.5522847,-1.01453063e-16 13,0.44771525 13,1 L13,9 L19,9 C19.5522847,9 20,9.44771525 20,10 L20,18 C20,18.5522847 19.5522847,19 19,19 L13,19 C12.8178564,19 12.6470867,18.9513029 12.5,18.8662178 Z M13.5,10.5 L13.5,17.5 L18.5,17.5 L18.5,10.5 L13.5,10.5 Z M2.5,1.5 L2.5,17.5 L11.5,17.5 L11.5,1.5 L2.5,1.5 Z M4.5,3 L5.5,3 C5.77614237,3 6,3.22385763 6,3.5 C6,3.77614237 5.77614237,4 5.5,4 L4.5,4 C4.22385763,4 4,3.77614237 4,3.5 C4,3.22385763 4.22385763,3 4.5,3 Z M4.5,7 L5.5,7 C5.77614237,7 6,7.22385763 6,7.5 C6,7.77614237 5.77614237,8 5.5,8 L4.5,8 C4.22385763,8 4,7.77614237 4,7.5 C4,7.22385763 4.22385763,7 4.5,7 Z M4.5,11 L5.5,11 C5.77614237,11 6,11.2238576 6,11.5 C6,11.7761424 5.77614237,12 5.5,12 L4.5,12 C4.22385763,12 4,11.7761424 4,11.5 C4,11.2238576 4.22385763,11 4.5,11 Z M8.5,3 L9.5,3 C9.77614237,3 10,3.22385763 10,3.5 C10,3.77614237 9.77614237,4 9.5,4 L8.5,4 C8.22385763,4 8,3.77614237 8,3.5 C8,3.22385763 8.22385763,3 8.5,3 Z M8.5,7 L9.5,7 C9.77614237,7 10,7.22385763 10,7.5 C10,7.77614237 9.77614237,8 9.5,8 L8.5,8 C8.22385763,8 8,7.77614237 8,7.5 C8,7.22385763 8.22385763,7 8.5,7 Z M8.5,11 L9.5,11 C9.77614237,11 10,11.2238576 10,11.5 C10,11.7761424 9.77614237,12 9.5,12 L8.5,12 C8.22385763,12 8,11.7761424 8,11.5 C8,11.2238576 8.22385763,11 8.5,11 Z M4.5,5 L5.5,5 C5.77614237,5 6,5.22385763 6,5.5 C6,5.77614237 5.77614237,6 5.5,6 L4.5,6 C4.22385763,6 4,5.77614237 4,5.5 C4,5.22385763 4.22385763,5 4.5,5 Z M4.5,9 L5.5,9 C5.77614237,9 6,9.22385763 6,9.5 C6,9.77614237 5.77614237,10 5.5,10 L4.5,10 C4.22385763,10 4,9.77614237 4,9.5 C4,9.22385763 4.22385763,9 4.5,9 Z M4.5,13 L5.5,13 C5.77614237,13 6,13.2238576 6,13.5 C6,13.7761424 5.77614237,14 5.5,14 L4.5,14 C4.22385763,14 4,13.7761424 4,13.5 C4,13.2238576 4.22385763,13 4.5,13 Z M4.5,15 L5.5,15 C5.77614237,15 6,15.2238576 6,15.5 C6,15.7761424 5.77614237,16 5.5,16 L4.5,16 C4.22385763,16 4,15.7761424 4,15.5 C4,15.2238576 4.22385763,15 4.5,15 Z M8.5,5 L9.5,5 C9.77614237,5 10,5.22385763 10,5.5 C10,5.77614237 9.77614237,6 9.5,6 L8.5,6 C8.22385763,6 8,5.77614237 8,5.5 C8,5.22385763 8.22385763,5 8.5,5 Z M8.5,9 L9.5,9 C9.77614237,9 10,9.22385763 10,9.5 C10,9.77614237 9.77614237,10 9.5,10 L8.5,10 C8.22385763,10 8,9.77614237 8,9.5 C8,9.22385763 8.22385763,9 8.5,9 Z M8.5,13 L9.5,13 C9.77614237,13 10,13.2238576 10,13.5 C10,13.7761424 9.77614237,14 9.5,14 L8.5,14 C8.22385763,14 8,13.7761424 8,13.5 C8,13.2238576 8.22385763,13 8.5,13 Z M8.5,15 L9.5,15 C9.77614237,15 10,15.2238576 10,15.5 C10,15.7761424 9.77614237,16 9.5,16 L8.5,16 C8.22385763,16 8,15.7761424 8,15.5 C8,15.2238576 8.22385763,15 8.5,15 Z M15.5,11 L16.5,11 C16.7761424,11 17,11.2238576 17,11.5 C17,11.7761424 16.7761424,12 16.5,12 L15.5,12 C15.2238576,12 15,11.7761424 15,11.5 C15,11.2238576 15.2238576,11 15.5,11 Z M15.5,13 L16.5,13 C16.7761424,13 17,13.2238576 17,13.5 C17,13.7761424 16.7761424,14 16.5,14 L15.5,14 C15.2238576,14 15,13.7761424 15,13.5 C15,13.2238576 15.2238576,13 15.5,13 Z M15.5,15 L16.5,15 C16.7761424,15 17,15.2238576 17,15.5 C17,15.7761424 16.7761424,16 16.5,16 L15.5,16 C15.2238576,16 15,15.7761424 15,15.5 C15,15.2238576 15.2238576,15 15.5,15 Z" fill="#FFFFFF" fill-rule="nonzero" mask="url(#mask-2)"></path>
            </g>
        </g>
    </g>
</svg>