<?xml version="1.0" encoding="UTF-8"?>
<svg width="17px" height="20px" viewBox="0 0 17 20" version="1.1" xmlns="http://www.w3.org/2000/svg" xmlns:xlink="http://www.w3.org/1999/xlink">
    <!-- Generator: Sketch 54.1 (76490) - https://sketchapp.com -->
    <title>designation-icon</title>
    <desc>Created with Sketch.</desc>
    <defs>
        <rect id="path-1" x="0" y="0" width="20" height="20"></rect>
    </defs>
    <g id="Symbols" stroke="none" stroke-width="1" fill="none" fill-rule="evenodd">
        <g id="admin\leftnav" transform="translate(-1.000000, -237.000000)">
            <g id="designation-icon" transform="translate(0.000000, 237.000000)">
                <mask id="mask-2" fill="white">
                    <use xlink:href="#path-1"></use>
                </mask>
                <g id="Mask"></g>
                <g mask="url(#mask-2)" fill="#FFFFFF" fill-rule="nonzero" stroke="#FFFFFF" stroke-width="0.3">
                    <g transform="translate(2.000000, 1.000000)">
                        <path d="M9.38252703,6.328125 C9.57358772,6.328125 9.72868088,6.17060851 9.72868088,5.9765625 C9.72868088,5.78251649 9.57358772,5.625 9.38252703,5.625 C9.19106069,5.625 9.03637319,5.78251649 9.03637319,5.9765625 C9.03637319,6.17060851 9.19106069,6.328125 9.38252703,6.328125 Z" id="Path"></path>
                        <path d="M5.92098857,6.328125 C6.11204926,6.328125 6.26714242,6.17060851 6.26714242,5.9765625 C6.26714242,5.78251649 6.11204926,5.625 5.92098857,5.625 C5.72952223,5.625 5.57483473,5.78251649 5.57483473,5.9765625 C5.57483473,6.17060851 5.72952223,6.328125 5.92098857,6.328125 Z" id="Path"></path>
                        <path d="M6.72633713,8.74456787 C7.01691708,8.88368224 7.3283203,8.95426942 7.6516226,8.95426942 C7.96789364,8.95426942 8.27321213,8.88656618 8.55919471,8.75308226 C8.73294771,8.67192079 8.80893931,8.46318055 8.72916165,8.28671266 C8.64924882,8.11038206 8.44371997,8.0330658 8.26996694,8.11422731 C8.07539061,8.20500184 7.86729268,8.25114442 7.6516226,8.25114442 C7.43108473,8.25114442 7.2190655,8.20321657 7.02151442,8.10859679 C6.84857271,8.02578734 6.64223258,8.10104372 6.56083232,8.27668761 C6.47929689,8.45233154 6.55339542,8.66175841 6.72633713,8.74456787 Z" id="Path"></path>
                        <path d="M15.2858023,14.2653351 C15.2858023,12.3321533 13.1180138,10.81604 11.2598708,10.7442169 L10.311869,9.87918089 C11.4664814,9.02362061 12.1673077,7.64868164 12.1673077,6.1875 L12.1673077,3.8671875 C12.1673077,1.73487853 10.4537109,-5.68434189e-14 8.34744593,-5.68434189e-14 L6.96283055,-5.68434189e-14 C4.85940503,-5.68434189e-14 3.16730769,1.72869873 3.16730769,3.8671875 L3.16730769,6.1875 C3.16730769,7.64620973 3.85880407,9.01853944 4.99840747,9.87258909 L4.0432392,10.7442169 C2.18915266,10.8159027 0.0173076923,12.3281708 0.0173076923,14.2653351 L0.0173076923,17.6484375 C0.0173076923,17.8426209 0.172265608,18 0.363461538,18 L14.9396484,18 C15.1308443,18 15.2858023,17.8426209 15.2858023,17.6484375 L15.2858023,14.2653351 Z M6.88481069,15.6796875 L8.41640625,15.6796875 L8.77932692,17.296875 L6.51134316,17.296875 L6.88481069,15.6796875 Z M8.44615385,14.9765625 L6.86290566,14.9765625 L6.59734075,14.1362457 L7.6517578,13.6007996 L8.72875599,14.1479187 L8.44615385,14.9765625 Z M7.6516226,12.5444641 L6.44873798,10.5901337 C6.839378,10.700409 7.24529748,10.7576752 7.65513824,10.7576752 C8.06105769,10.7576752 8.4640024,10.7015076 8.8526142,10.5930176 L7.6516226,12.5444641 Z M8.14705529,13.0663147 L9.80899941,10.3654633 L10.7053486,11.1833954 L9.56479867,13.7864685 L8.14705529,13.0663147 Z M6.96283055,0.703125 L8.34744593,0.703125 C10.0719952,0.703125 11.475,2.12242127 11.475,3.8671875 L11.475,4.15777588 L10.825015,3.20718382 C10.7661959,3.1210785 10.672491,3.06614686 10.5695913,3.0573578 C10.4665565,3.04856873 10.3654146,3.08688356 10.2932091,3.16186523 C9.58954327,3.8927307 8.77486479,4.21875 7.6517578,4.21875 C6.52878606,4.21875 5.71397234,3.8927307 5.00976561,3.16186523 C4.93728965,3.08647157 4.83520133,3.04829406 4.73203125,3.05749512 C4.62872596,3.06669618 4.5348858,3.12245177 4.47647234,3.20951844 L3.85961538,4.12756348 L3.85961538,3.8671875 C3.85961538,2.12242127 5.25166768,0.703125 6.96283055,0.703125 Z M3.85961538,6.1875 L3.85961538,5.37492371 L4.82100362,3.9440918 C5.59119593,4.60945129 6.50133713,4.921875 7.6517578,4.921875 C8.80339542,4.921875 9.71421272,4.60876465 10.4845403,3.94203185 L11.475,5.39057921 L11.475,6.1875 C11.475,8.29289246 9.78060396,10.0546875 7.65513824,10.0546875 C5.53656849,10.0546875 3.85961538,8.29838563 3.85961538,6.1875 Z M5.49411058,10.3656006 L7.15632511,13.0663147 L5.73831132,13.7864685 L4.59776143,11.1833954 L5.49411058,10.3656006 Z M0.709615385,14.2653351 C0.709615385,12.8170624 2.44308894,11.5665436 3.95791768,11.4528351 L5.25301982,14.4082947 C5.29142127,14.4959106 5.36349157,14.5638886 5.45246394,14.5962982 C5.54143632,14.6287079 5.63946816,14.6226654 5.72411357,14.5798187 L5.97074819,14.4544373 L6.25159253,15.3426819 L5.80024038,17.296875 L0.709615385,17.296875 L0.709615385,14.2653351 Z M14.5934946,17.296875 L9.48934797,17.296875 L9.05205828,15.3480377 L9.3531851,14.4650116 L9.57899638,14.5798187 C9.66418269,14.6230774 9.76248498,14.6284332 9.85064604,14.5962982 C9.93961838,14.5638886 10.0116887,14.4959106 10.0500902,14.4082947 L11.3451923,11.4528351 C12.860021,11.5666809 14.5934946,12.8170624 14.5934946,14.2653351 L14.5934946,17.296875 Z" id="Shape"></path>
                        <path d="M12.1517578,15.6796875 L10.7671424,15.6796875 C10.5759465,15.6796875 10.4209886,15.8370666 10.4209886,16.03125 C10.4209886,16.2254334 10.5759465,16.3828125 10.7671424,16.3828125 L12.1517578,16.3828125 C12.3429537,16.3828125 12.4979117,16.2254334 12.4979117,16.03125 C12.4979117,15.8370666 12.3429537,15.6796875 12.1517578,15.6796875 Z" id="Path"></path>
                        <path d="M13.5173077,15.6796875 C13.7083684,15.6796875 13.8634615,15.837204 13.8634615,16.03125 C13.8634615,16.225296 13.7083684,16.3828125 13.5173077,16.3828125 C13.326247,16.3828125 13.1711538,16.225296 13.1711538,16.03125 C13.1711538,15.837204 13.326247,15.6796875 13.5173077,15.6796875 Z" id="Path"></path>
                    </g>
                </g>
            </g>
        </g>
    </g>
</svg>