<?xml version="1.0" encoding="UTF-8"?>
<svg width="17px" height="14px" viewBox="0 0 17 14" version="1.1" xmlns="http://www.w3.org/2000/svg" xmlns:xlink="http://www.w3.org/1999/xlink">
    <!-- Generator: Sketch 54.1 (76490) - https://sketchapp.com -->
    <title>edit-icon-news</title>
    <desc>Created with Sketch.</desc>
    <defs>
        <rect id="path-1" x="0" y="0" width="18" height="18"></rect>
    </defs>
    <g id="Admin" stroke="none" stroke-width="1" fill="none" fill-rule="evenodd">
        <g id="25.-CMS-News" transform="translate(-921.000000, -284.000000)">
            <g id="edit-icon-news" transform="translate(920.000000, 282.000000)">
                <mask id="mask-2" fill="white">
                    <use xlink:href="#path-1"></use>
                </mask>
                <g id="Mask"></g>
                <path d="M9.46188341,11.9166667 L10.5672646,10.8273359 L9.11883408,9.39993687 L8.01345291,10.4892677 L8.01345291,11.0151515 L8.92825112,11.0151515 L8.92825112,11.9166667 L9.46188341,11.9166667 Z M13.6451794,5.46519886 C13.7531769,5.35876946 13.7563533,5.25547188 13.6547085,5.15530303 C13.5530638,5.05513418 13.4482442,5.05826441 13.3402466,5.16469381 L10.0050448,8.4514678 C9.89704729,8.55789721 9.89387094,8.66119479 9.9955157,8.76136364 C10.0971604,8.86153249 10.20198,8.85840226 10.3099776,8.75197285 L13.6451794,5.46519886 Z M14.4170404,10.733428 L14.4170404,12.5176768 C14.4170404,13.2626826 14.1486387,13.8996843 13.6118274,14.4287011 C13.075016,14.9577178 12.4286286,15.2222222 11.6726457,15.2222222 L3.74439462,15.2222222 C2.98841177,15.2222222 2.34202436,14.9577178 1.805213,14.4287011 C1.26840165,13.8996843 1,13.2626826 1,12.5176768 L1,4.70454545 C1,3.95953963 1.26840165,3.32253789 1.805213,2.79352115 C2.34202436,2.2645044 2.98841177,2 3.74439462,2 L11.6726457,2 C12.072872,2 12.444505,2.07825574 12.7875561,2.23476957 C12.882848,2.27859344 12.9400223,2.35058872 12.9590807,2.45075758 C12.9781391,2.55718698 12.949552,2.64796364 12.8733184,2.72309028 L12.4063901,3.18323864 C12.317451,3.27088638 12.2158077,3.29592822 12.1014574,3.2583649 C11.9553431,3.22080158 11.8124073,3.2020202 11.6726457,3.2020202 L3.74439462,3.2020202 C3.32511001,3.2020202 2.96618236,3.349141 2.6676009,3.64338699 C2.36901943,3.93763299 2.21973094,4.29134894 2.21973094,4.70454545 L2.21973094,12.5176768 C2.21973094,12.9308733 2.36901943,13.2845892 2.6676009,13.5788352 C2.96618236,13.8730812 3.32511001,14.020202 3.74439462,14.020202 L11.6726457,14.020202 C12.0919303,14.020202 12.450858,13.8730812 12.7494395,13.5788352 C13.0480209,13.2845892 13.1973094,12.9308733 13.1973094,12.5176768 L13.1973094,11.3344381 C13.1973094,11.2530509 13.2258966,11.1841859 13.2830717,11.1278409 L13.8929372,10.5268308 C13.9882292,10.4329225 14.0994015,10.4110109 14.2264574,10.4610953 C14.3535133,10.5111798 14.4170404,10.6019564 14.4170404,10.733428 Z M13.5022422,3.8030303 L16.2466368,6.50757576 L9.84304933,12.8181818 L7.09865471,12.8181818 L7.09865471,10.1136364 L13.5022422,3.8030303 Z M17.7331839,5.04261364 L16.8565022,5.90656566 L14.1121076,3.2020202 L14.9887892,2.33806818 C15.1666676,2.16277269 15.3826594,2.07512626 15.6367713,2.07512626 C15.8908832,2.07512626 16.106875,2.16277269 16.2847534,2.33806818 L17.7331839,3.76546717 C17.9110622,3.94076266 18,4.15361828 18,4.4040404 C18,4.65446253 17.9110622,4.86731815 17.7331839,5.04261364 Z" fill="#01923F" fill-rule="nonzero" mask="url(#mask-2)"></path>
            </g>
        </g>
    </g>
</svg>