<?xml version="1.0" encoding="UTF-8"?>
<svg width="16px" height="16px" viewBox="0 0 16 16" version="1.1" xmlns="http://www.w3.org/2000/svg" xmlns:xlink="http://www.w3.org/1999/xlink">
    <!-- Generator: sketchtool 55.1 (78136) - https://sketchapp.com -->
    <title>D5DE058A-7643-41C4-B319-1E11D9BD637F</title>
    <desc>Created with sketchtool.</desc>
    <g id="Index" stroke="none" stroke-width="1" fill="none" fill-rule="evenodd">
        <g id="10.-Complaint-Validation" transform="translate(-178.000000, -265.000000)" fill="#EC5B61" fill-rule="nonzero">
            <path d="M183.098214,270.696429 C183.157738,270.553571 183.157738,270.407739 183.098214,270.258929 C183.03869,270.110118 182.937501,270.005953 182.794643,269.946429 C182.651785,269.886904 182.505953,269.886904 182.357143,269.946429 C181.714282,270.208335 181.145836,270.586307 180.651786,271.080357 C180.157736,271.574407 179.779763,272.142854 179.517857,272.785714 C179.458333,272.934525 179.458333,273.080356 179.517857,273.223214 C179.577381,273.366072 179.681547,273.467262 179.830357,273.526786 C179.907738,273.556548 179.979166,273.571429 180.044643,273.571429 C180.294644,273.571429 180.473214,273.452382 180.580357,273.214286 C180.782739,272.714283 181.075891,272.272323 181.459821,271.888393 C181.843752,271.504462 182.285712,271.211311 182.785714,271.008929 C182.934525,270.943452 183.03869,270.839286 183.098214,270.696429 Z M191.508929,267.080357 L191.919643,267.491071 L189.741071,269.660714 L190.348214,270.267857 C190.46131,270.380953 190.517857,270.516368 190.517857,270.674107 C190.517857,270.831846 190.46131,270.967261 190.348214,271.080357 L189.776786,271.651786 C190.30655,272.610124 190.571429,273.630947 190.571429,274.714286 C190.571429,275.56548 190.406252,276.37946 190.075893,277.15625 C189.745534,277.93304 189.29911,278.602676 188.736607,279.165179 C188.174104,279.727681 187.504468,280.174105 186.727679,280.504464 C185.950889,280.834823 185.136909,281 184.285714,281 C183.43452,281 182.62054,280.834823 181.84375,280.504464 C181.06696,280.174105 180.397324,279.727681 179.834821,279.165179 C179.272319,278.602676 178.825895,277.93304 178.495536,277.15625 C178.165177,276.37946 178,275.56548 178,274.714286 C178,273.863091 178.165177,273.049111 178.495536,272.272321 C178.825895,271.495532 179.272319,270.825896 179.834821,270.263393 C180.397324,269.70089 181.06696,269.254466 181.84375,268.924107 C182.62054,268.593748 183.43452,268.428571 184.285714,268.428571 C185.369053,268.428571 186.389876,268.69345 187.348214,269.223214 L187.919643,268.651786 C188.032739,268.53869 188.168154,268.482143 188.325893,268.482143 C188.483632,268.482143 188.619047,268.53869 188.732143,268.651786 L189.339286,269.258929 L191.508929,267.080357 Z M191.580357,266.580357 C191.520833,266.639881 191.455357,266.669643 191.383929,266.669643 C191.306547,266.669643 191.238096,266.639881 191.178571,266.580357 L190.366071,265.776786 C190.3125,265.717262 190.285714,265.64881 190.285714,265.571429 C190.285714,265.494047 190.3125,265.425596 190.366071,265.366071 C190.425596,265.3125 190.494047,265.285714 190.571429,265.285714 C190.64881,265.285714 190.717262,265.3125 190.776786,265.366071 L191.580357,266.178571 C191.639881,266.232143 191.669643,266.299107 191.669643,266.379464 C191.669643,266.459822 191.639881,266.526785 191.580357,266.580357 Z M193.633929,268.633929 C193.568452,268.6875 193.5,268.714286 193.428571,268.714286 C193.357143,268.714286 193.288691,268.6875 193.223214,268.633929 L192.419643,267.821429 C192.360119,267.767857 192.330357,267.700893 192.330357,267.620536 C192.330357,267.540178 192.360119,267.473215 192.419643,267.419643 C192.473215,267.360119 192.540178,267.330357 192.620536,267.330357 C192.700893,267.330357 192.767857,267.360119 192.821429,267.419643 L193.633929,268.223214 C193.6875,268.282738 193.714286,268.35119 193.714286,268.428571 C193.714286,268.505953 193.6875,268.574404 193.633929,268.633929 Z M193.919643,266.794643 C193.973215,266.848215 194,266.916666 194,267 C194,267.083334 193.973215,267.151785 193.919643,267.205357 C193.866071,267.258929 193.797619,267.285714 193.714286,267.285714 L192.857143,267.285714 C192.773809,267.285714 192.705357,267.258929 192.651786,267.205357 C192.598214,267.151785 192.571429,267.083334 192.571429,267 C192.571429,266.916666 192.598214,266.848215 192.651786,266.794643 C192.705357,266.741071 192.773809,266.714286 192.857143,266.714286 L193.714286,266.714286 C193.797619,266.714286 193.866071,266.741071 193.919643,266.794643 Z M192.285714,265.285714 L192.285714,266.142857 C192.285714,266.226191 192.258929,266.294643 192.205357,266.348214 C192.151785,266.401786 192.083334,266.428571 192,266.428571 C191.916666,266.428571 191.848215,266.401786 191.794643,266.348214 C191.741071,266.294643 191.714286,266.226191 191.714286,266.142857 L191.714286,265.285714 C191.714286,265.202381 191.741071,265.133929 191.794643,265.080357 C191.848215,265.026785 191.916666,265 192,265 C192.083334,265 192.151785,265.026785 192.205357,265.080357 C192.258929,265.133929 192.285714,265.202381 192.285714,265.285714 Z M193.633929,265.776786 L192.821429,266.580357 C192.761904,266.639881 192.696429,266.669643 192.625,266.669643 C192.547619,266.669643 192.479167,266.639881 192.419643,266.580357 C192.360119,266.526785 192.330357,266.459822 192.330357,266.379464 C192.330357,266.299107 192.360119,266.232143 192.419643,266.178571 L193.223214,265.366071 C193.282738,265.3125 193.35119,265.285714 193.428571,265.285714 C193.505953,265.285714 193.574404,265.3125 193.633929,265.366071 C193.6875,265.425596 193.714286,265.494047 193.714286,265.571429 C193.714286,265.64881 193.6875,265.717262 193.633929,265.776786 Z" id=""></path>
        </g>
    </g>
</svg>