<?xml version="1.0" encoding="UTF-8"?>
<svg width="35px" height="35px" viewBox="0 0 35 35" version="1.1" xmlns="http://www.w3.org/2000/svg" xmlns:xlink="http://www.w3.org/1999/xlink">
    <!-- Generator: sketchtool 55.2 (78181) - https://sketchapp.com -->
    <title>17543C0A-B3D3-44DC-91F8-028A080E446C</title>
    <desc>Created with sketchtool.</desc>
    <g id="Admin" stroke="none" stroke-width="1" fill="none" fill-rule="evenodd">
        <g id="1.-Admin-BORB-Dashboard" transform="translate(-581.000000, -1534.000000)" fill-rule="nonzero">
            <g id="land-transfer-icon" transform="translate(581.000000, 1534.000000)">
                <rect id="Rectangle" fill="#D5EBEB" x="18.7275051" y="18.8312883" width="15.5173824" height="15.5173824"></rect>
                <path d="M6.74591002,32.3087935 L11.8062372,32.3087935 L10.2315951,33.8834356 C9.98108384,34.1339468 9.98108384,34.5490798 10.2315951,34.799591 C10.3604294,34.9284254 10.5250511,34.9928425 10.6896728,34.9928425 C10.8542945,34.9928425 11.0189162,34.9284254 11.1477505,34.799591 L13.8317996,32.1155419 C14.0823108,31.8650307 14.0823108,31.4498978 13.8317996,31.1993865 L11.1477505,28.5153374 C10.8972393,28.2648262 10.4821063,28.2648262 10.2315951,28.5153374 C9.98108384,28.7658487 9.98108384,29.1809816 10.2315951,29.4314928 L11.8062372,31.006135 L6.74591002,31.006135 C3.76124744,31.006135 1.33486708,28.5797546 1.33486708,25.595092 L1.33486708,22.4243354 C1.33486708,22.0664622 1.04141104,21.7730061 0.683537832,21.7730061 C0.325664622,21.7730061 0.032208589,22.0664622 0.032208589,22.4243354 L0.032208589,25.595092 C0.032208589,29.295501 3.03834356,32.3087935 6.74591002,32.3087935 Z" id="Path" fill="#004545"></path>
                <path d="M1.20603272,0.200408998 C1.08435583,0.0787321063 0.919734151,0.00715746421 0.74795501,0.00715746421 C0.576175869,0.00715746421 0.411554192,0.0787321063 0.289877301,0.200408998 C0.168200409,0.32208589 0.103783231,0.486707566 0.103783231,0.658486708 C0.103783231,0.830265849 0.175357873,0.994887526 0.289877301,1.11656442 C0.411554192,1.23824131 0.576175869,1.30981595 0.74795501,1.30981595 C0.919734151,1.30981595 1.08435583,1.23824131 1.20603272,1.11656442 C1.32770961,0.994887526 1.39928425,0.830265849 1.39928425,0.658486708 C1.39928425,0.486707566 1.32770961,0.32208589 1.20603272,0.200408998 Z" id="Path" fill="#004545"></path>
                <path d="M14.0465235,1.30265849 C14.4043967,1.30265849 14.6978528,1.01635992 14.6978528,0.651329243 C14.6978528,0.293456033 14.4115542,0 14.0465235,0 C13.6886503,0 13.3951943,0.293456033 13.3951943,0.651329243 C13.3951943,1.01635992 13.6886503,1.30265849 14.0465235,1.30265849 Z" id="Path" fill="#004545"></path>
                <path d="M11.8277096,0.00715746421 C11.4698364,0.00715746421 11.1763804,0.300613497 11.1763804,0.658486708 C11.1763804,1.01635992 11.4626789,1.30981595 11.8277096,1.30981595 C12.1855828,1.30981595 12.4790389,1.02351738 12.4790389,0.658486708 C12.4790389,0.300613497 12.1855828,0.00715746421 11.8277096,0.00715746421 Z" id="Path" fill="#004545"></path>
                <path d="M5.17842536,1.30265849 C5.53629857,1.30265849 5.8297546,1.01635992 5.8297546,0.651329243 C5.8297546,0.293456033 5.54345603,0 5.17842536,0 C4.82055215,0 4.52709611,0.293456033 4.52709611,0.651329243 C4.53425358,1.01635992 4.82055215,1.30265849 5.17842536,1.30265849 Z" id="Path" fill="#004545"></path>
                <path d="M2.96676892,0.00715746421 C2.60889571,0.00715746421 2.31543967,0.300613497 2.31543967,0.658486708 C2.31543967,1.01635992 2.60173824,1.30981595 2.96676892,1.30981595 C3.33179959,1.30981595 3.61809816,1.02351738 3.61809816,0.658486708 C3.6109407,0.300613497 3.32464213,0.00715746421 2.96676892,0.00715746421 Z" id="Path" fill="#004545"></path>
                <path d="M9.61605317,0.00715746421 C9.25817996,0.00715746421 8.96472393,0.300613497 8.96472393,0.658486708 C8.96472393,1.01635992 9.25817996,1.30981595 9.61605317,1.30981595 C9.97392638,1.30981595 10.2673824,1.02351738 10.2673824,0.658486708 C10.2602249,0.300613497 9.97392638,0.00715746421 9.61605317,0.00715746421 Z" id="Path" fill="#004545"></path>
                <path d="M7.39723926,0.00715746421 C7.03936605,0.00715746421 6.74591002,0.300613497 6.74591002,0.658486708 C6.74591002,1.01635992 7.03220859,1.30981595 7.39723926,1.30981595 C7.75511247,1.30981595 8.04856851,1.02351738 8.04856851,0.658486708 C8.04856851,0.300613497 7.75511247,0.00715746421 7.39723926,0.00715746421 Z" id="Path" fill="#004545"></path>
                <path d="M16.7234151,1.11656442 C16.845092,0.994887526 16.9095092,0.830265849 16.9095092,0.658486708 C16.9095092,0.486707566 16.8379346,0.32208589 16.7234151,0.200408998 C16.6017382,0.0787321063 16.4371166,0.00715746421 16.2653374,0.00715746421 C16.0935583,0.00715746421 15.9289366,0.0787321063 15.8072597,0.200408998 C15.6855828,0.32208589 15.6211656,0.486707566 15.6211656,0.658486708 C15.6211656,0.830265849 15.6927403,0.994887526 15.8072597,1.11656442 C15.9289366,1.23824131 16.0935583,1.30981595 16.2653374,1.30981595 C16.4371166,1.30265849 16.6017382,1.23824131 16.7234151,1.11656442 Z" id="Path" fill="#004545"></path>
                <path d="M16.2653374,4.43762781 C15.9074642,4.43762781 15.6211656,4.73108384 15.6211656,5.08895706 C15.6211656,5.44683027 15.9074642,5.7402863 16.2653374,5.7402863 C16.6232106,5.7402863 16.9166667,5.44683027 16.9166667,5.08895706 C16.9095092,4.73108384 16.6232106,4.43762781 16.2653374,4.43762781 Z" id="Path" fill="#004545"></path>
                <path d="M16.2653374,13.305726 C15.9074642,13.305726 15.6211656,13.5920245 15.6211656,13.9570552 C15.6211656,14.3149284 15.9074642,14.6083845 16.2653374,14.6083845 C16.6232106,14.6083845 16.9166667,14.3149284 16.9166667,13.9570552 C16.9095092,13.599182 16.6232106,13.305726 16.2653374,13.305726 Z" id="Path" fill="#004545"></path>
                <path d="M16.2653374,6.65644172 C15.9074642,6.65644172 15.6211656,6.94274029 15.6211656,7.3006135 C15.6211656,7.65848671 15.9074642,7.95194274 16.2653374,7.95194274 C16.6232106,7.95194274 16.9166667,7.65848671 16.9166667,7.3006135 C16.9095092,6.94989775 16.6232106,6.65644172 16.2653374,6.65644172 Z" id="Path" fill="#004545"></path>
                <path d="M16.2653374,11.0869121 C15.9074642,11.0869121 15.6211656,11.3803681 15.6211656,11.7382413 C15.6211656,12.0961145 15.9074642,12.3895706 16.2653374,12.3895706 C16.6232106,12.3895706 16.9166667,12.103272 16.9166667,11.7382413 C16.9095092,11.3803681 16.6232106,11.0869121 16.2653374,11.0869121 Z" id="Path" fill="#004545"></path>
                <path d="M16.2653374,8.87525562 C15.9074642,8.87525562 15.6211656,9.16155419 15.6211656,9.52658487 C15.6211656,9.88445808 15.9074642,10.1779141 16.2653374,10.1779141 C16.6232106,10.1779141 16.9166667,9.88445808 16.9166667,9.52658487 C16.9095092,9.16155419 16.6232106,8.87525562 16.2653374,8.87525562 Z" id="Path" fill="#004545"></path>
                <path d="M16.2653374,2.22597137 C15.9074642,2.22597137 15.6211656,2.51226994 15.6211656,2.87730061 C15.6211656,3.23517382 15.9074642,3.52862986 16.2653374,3.52862986 C16.6232106,3.52862986 16.9166667,3.23517382 16.9166667,2.87730061 C16.9095092,2.51226994 16.6232106,2.22597137 16.2653374,2.22597137 Z" id="Path" fill="#004545"></path>
                <path d="M16.9095092,16.1687117 C16.9095092,15.9969325 16.8379346,15.8323108 16.7234151,15.7106339 C16.6017382,15.5889571 16.4371166,15.5173824 16.2653374,15.5173824 C16.0935583,15.5173824 15.9289366,15.5889571 15.8072597,15.7106339 C15.6855828,15.8323108 15.6140082,15.9969325 15.6140082,16.1687117 C15.6140082,16.3404908 15.6855828,16.5051125 15.8072597,16.6267894 C15.9289366,16.7484663 16.0935583,16.8200409 16.2653374,16.8200409 C16.4371166,16.8200409 16.6017382,16.7484663 16.7234151,16.6267894 C16.845092,16.5122699 16.9095092,16.3404908 16.9095092,16.1687117 Z" id="Path" fill="#004545"></path>
                <path d="M7.39723926,15.5245399 C7.03936605,15.5245399 6.74591002,15.8179959 6.74591002,16.1758691 C6.74591002,16.5337423 7.03220859,16.8271984 7.39723926,16.8271984 C7.75511247,16.8271984 8.04856851,16.5408998 8.04856851,16.1758691 C8.04856851,15.8108384 7.75511247,15.5245399 7.39723926,15.5245399 Z" id="Path" fill="#004545"></path>
                <path d="M9.61605317,15.5245399 C9.25817996,15.5245399 8.96472393,15.8179959 8.96472393,16.1758691 C8.96472393,16.5337423 9.25817996,16.8271984 9.61605317,16.8271984 C9.97392638,16.8271984 10.2673824,16.5408998 10.2673824,16.1758691 C10.2602249,15.8108384 9.97392638,15.5245399 9.61605317,15.5245399 Z" id="Path" fill="#004545"></path>
                <path d="M11.8277096,15.5245399 C11.4698364,15.5245399 11.1763804,15.8179959 11.1763804,16.1758691 C11.1763804,16.5337423 11.4626789,16.8271984 11.8277096,16.8271984 C12.1855828,16.8271984 12.4790389,16.5408998 12.4790389,16.1758691 C12.4790389,15.8108384 12.1855828,15.5245399 11.8277096,15.5245399 Z" id="Path" fill="#004545"></path>
                <path d="M2.96676892,15.5245399 C2.60889571,15.5245399 2.31543967,15.8179959 2.31543967,16.1758691 C2.31543967,16.5337423 2.60173824,16.8271984 2.96676892,16.8271984 C3.33179959,16.8271984 3.61809816,16.5408998 3.61809816,16.1758691 C3.6109407,15.8108384 3.32464213,15.5245399 2.96676892,15.5245399 Z" id="Path" fill="#004545"></path>
                <path d="M5.17842536,16.8200409 C5.53629857,16.8200409 5.8297546,16.5337423 5.8297546,16.1687117 C5.8297546,15.8108384 5.53629857,15.5173824 5.17842536,15.5173824 C4.82055215,15.5173824 4.52709611,15.8108384 4.52709611,16.1687117 C4.53425358,16.5337423 4.82055215,16.8200409 5.17842536,16.8200409 Z" id="Path" fill="#004545"></path>
                <path d="M14.0465235,16.8200409 C14.4043967,16.8200409 14.6978528,16.5337423 14.6978528,16.1687117 C14.6978528,15.8108384 14.4115542,15.5173824 14.0465235,15.5173824 C13.6886503,15.5173824 13.3951943,15.8108384 13.3951943,16.1687117 C13.3951943,16.5337423 13.6886503,16.8200409 14.0465235,16.8200409 Z" id="Path" fill="#004545"></path>
                <path d="M0.289877301,15.7106339 C0.168200409,15.8323108 0.103783231,15.9969325 0.103783231,16.1687117 C0.103783231,16.3404908 0.175357873,16.5051125 0.289877301,16.6267894 C0.411554192,16.7484663 0.576175869,16.8200409 0.74795501,16.8200409 C0.919734151,16.8200409 1.08435583,16.7484663 1.20603272,16.6267894 C1.32770961,16.5051125 1.39928425,16.3404908 1.39928425,16.1687117 C1.39928425,15.9969325 1.32770961,15.8323108 1.20603272,15.7106339 C1.08435583,15.5889571 0.919734151,15.5173824 0.74795501,15.5173824 C0.576175869,15.5245399 0.411554192,15.5889571 0.289877301,15.7106339 Z" id="Path" fill="#004545"></path>
                <path d="M0.74795501,2.22597137 C0.3900818,2.22597137 0.0966257669,2.51226994 0.0966257669,2.87730061 C0.0966257669,3.23517382 0.382924335,3.52862986 0.74795501,3.52862986 C1.10582822,3.52862986 1.39928425,3.23517382 1.39928425,2.87730061 C1.39928425,2.51226994 1.10582822,2.22597137 0.74795501,2.22597137 Z" id="Path" fill="#004545"></path>
                <path d="M0.74795501,4.43762781 C0.3900818,4.43762781 0.0966257669,4.73108384 0.0966257669,5.08895706 C0.0966257669,5.44683027 0.382924335,5.7402863 0.74795501,5.7402863 C1.10582822,5.7402863 1.39928425,5.44683027 1.39928425,5.08895706 C1.39928425,4.73108384 1.10582822,4.43762781 0.74795501,4.43762781 Z" id="Path" fill="#004545"></path>
                <path d="M0.74795501,6.65644172 C0.3900818,6.65644172 0.0966257669,6.94274029 0.0966257669,7.3006135 C0.0966257669,7.65848671 0.382924335,7.95194274 0.74795501,7.95194274 C1.10582822,7.95194274 1.39928425,7.65848671 1.39928425,7.3006135 C1.39928425,6.94989775 1.10582822,6.65644172 0.74795501,6.65644172 Z" id="Path" fill="#004545"></path>
                <path d="M0.74795501,11.0869121 C0.3900818,11.0869121 0.0966257669,11.3803681 0.0966257669,11.7382413 C0.0966257669,12.0961145 0.382924335,12.3895706 0.74795501,12.3895706 C1.10582822,12.3895706 1.39928425,12.103272 1.39928425,11.7382413 C1.39928425,11.3803681 1.10582822,11.0869121 0.74795501,11.0869121 Z" id="Path" fill="#004545"></path>
                <path d="M0.74795501,13.305726 C0.3900818,13.305726 0.0966257669,13.5920245 0.0966257669,13.9570552 C0.0966257669,14.3149284 0.382924335,14.6083845 0.74795501,14.6083845 C1.10582822,14.6083845 1.39928425,14.3149284 1.39928425,13.9570552 C1.39928425,13.599182 1.10582822,13.305726 0.74795501,13.305726 Z" id="Path" fill="#004545"></path>
                <path d="M0.74795501,8.87525562 C0.3900818,8.87525562 0.0966257669,9.16155419 0.0966257669,9.52658487 C0.0966257669,9.88445808 0.382924335,10.1779141 0.74795501,10.1779141 C1.10582822,10.1779141 1.39928425,9.88445808 1.39928425,9.52658487 C1.39928425,9.16155419 1.10582822,8.87525562 0.74795501,8.87525562 Z" id="Path" fill="#004545"></path>
                <path d="M23.8522495,0.200408998 L21.1682004,2.88445808 C21.0465235,3.00613497 20.9749489,3.17075665 20.9749489,3.34253579 C20.9749489,3.51431493 21.0465235,3.67893661 21.1682004,3.8006135 L23.8522495,6.48466258 C23.9810838,6.61349693 24.1457055,6.67791411 24.3103272,6.67791411 C24.4749489,6.67791411 24.6395706,6.61349693 24.7684049,6.48466258 C25.0189162,6.23415133 25.0189162,5.8190184 24.7684049,5.56850716 L23.1937628,3.99386503 L28.25409,3.99386503 C31.2387526,3.99386503 33.6651329,6.4202454 33.6651329,9.40490798 L33.6651329,12.5756646 C33.6651329,12.9335378 33.958589,13.2269939 34.3164622,13.2269939 C34.6743354,13.2269939 34.9677914,12.9335378 34.9677914,12.5756646 L34.9677914,9.40490798 C34.9677914,5.70449898 31.954499,2.69120654 28.25409,2.69120654 L23.1937628,2.69120654 L24.7684049,1.11656442 C25.0189162,0.86605317 25.0189162,0.450920245 24.7684049,0.200408998 C24.5178937,-0.0501022495 24.1099182,-0.0572597137 23.8522495,0.200408998 Z" id="Path" fill="#004545"></path>
                <path d="M34.8962168,34.3415133 L34.8962168,18.8312883 C34.8962168,18.4734151 34.6027607,18.1799591 34.2448875,18.1799591 L18.7275051,18.1799591 C18.3696319,18.1799591 18.0761759,18.4734151 18.0761759,18.8312883 L18.0761759,34.3486708 C18.0761759,34.706544 18.3696319,35 18.7275051,35 L34.2448875,35 C34.6027607,34.9928425 34.8962168,34.6993865 34.8962168,34.3415133 Z M33.5935583,33.6973415 L19.3788344,33.6973415 L19.3788344,19.4754601 L33.5935583,19.4754601 L33.5935583,33.6973415 Z" id="Shape" fill="#004545"></path>
            </g>
        </g>
    </g>
</svg>