<?xml version="1.0" encoding="UTF-8"?>
<svg width="13px" height="9px" viewBox="0 0 13 9" version="1.1" xmlns="http://www.w3.org/2000/svg" xmlns:xlink="http://www.w3.org/1999/xlink">
    <!-- Generator: Sketch 55.1 (78136) - https://sketchapp.com -->
    <title></title>
    <desc>Created with Sketch.</desc>
    <g id="Admin" stroke="none" stroke-width="1" fill="none" fill-rule="evenodd">
        <g id="24.-CMS" transform="translate(-243.000000, -392.000000)" fill="#FFFFFF" fill-rule="nonzero">
            <path d="M255.561686,394.289666 L250.038113,400.017203 C249.943819,400.11511 249.832158,400.164062 249.703125,400.164062 C249.574092,400.164062 249.462431,400.11511 249.368137,400.017203 L243.844564,394.289666 C243.750271,394.191759 243.703125,394.07453 243.703125,393.937976 C243.703125,393.801421 243.750271,393.684192 243.844564,393.586285 L245.080296,392.310922 C245.174589,392.213015 245.286251,392.164062 245.415284,392.164062 C245.544317,392.164062 245.655978,392.213015 245.750271,392.310922 L249.703125,396.41527 L253.655979,392.310922 C253.750272,392.213015 253.861933,392.164062 253.990966,392.164062 C254.119999,392.164062 254.231661,392.213015 254.325954,392.310922 L255.561686,393.586285 C255.655979,393.684192 255.703125,393.801421 255.703125,393.937976 C255.703125,394.07453 255.655979,394.191759 255.561686,394.289666 Z" id=""></path>
        </g>
    </g>
</svg>