<?xml version="1.0" encoding="UTF-8"?>
<svg width="9px" height="13px" viewBox="0 0 9 13" version="1.1" xmlns="http://www.w3.org/2000/svg" xmlns:xlink="http://www.w3.org/1999/xlink">
    <!-- Generator: Sketch 55.1 (78136) - https://sketchapp.com -->
    <title></title>
    <desc>Created with Sketch.</desc>
    <g id="Admin" stroke="none" stroke-width="1" fill="none" fill-rule="evenodd">
        <g id="1.-Admin-BORB-Dashboard" transform="translate(-245.000000, -388.000000)" fill="#FFFFFF" fill-rule="nonzero">
            <path d="M253.556407,394.538113 L247.826677,400.061686 C247.728865,400.155979 247.613036,400.203125 247.479187,400.203125 C247.345338,400.203125 247.229509,400.155979 247.131696,400.061686 L245.849843,398.825954 C245.752031,398.731661 245.703125,398.619999 245.703125,398.490966 C245.703125,398.361933 245.752031,398.250272 245.849843,398.155979 L249.950229,394.203125 L245.849843,390.250271 C245.752031,390.155978 245.703125,390.044317 245.703125,389.915284 C245.703125,389.786251 245.752031,389.674589 245.849843,389.580296 L247.131696,388.344564 C247.229509,388.250271 247.345338,388.203125 247.479187,388.203125 C247.613036,388.203125 247.728865,388.250271 247.826677,388.344564 L253.556407,393.868137 C253.654219,393.962431 253.703125,394.074092 253.703125,394.203125 C253.703125,394.332158 253.654219,394.443819 253.556407,394.538113 Z" id=""></path>
        </g>
    </g>
</svg>