<?xml version="1.0" encoding="UTF-8"?>
<svg width="203px" height="38px" viewBox="0 0 203 38" version="1.1" xmlns="http://www.w3.org/2000/svg" xmlns:xlink="http://www.w3.org/1999/xlink">
    <!-- Generator: sketchtool 55.2 (78181) - https://sketchapp.com -->
    <title>F1A47A89-0166-462C-AF22-A70D2EC5E9D5</title>
    <desc>Created with sketchtool.</desc>
    <defs>
        <polygon id="path-1" points="0 42 48 42 48 0 0 0"></polygon>
    </defs>
    <g id="Admin" stroke="none" stroke-width="1" fill="none" fill-rule="evenodd">
        <g id="1.-Admin-BORB-Dashboard" transform="translate(-50.000000, -10.000000)">
            <g id="logo-admin" transform="translate(49.000000, 7.000000)">
                <g id="Coat_of_arms_of_Balochistan">
                    <mask id="mask-2" fill="white">
                        <use xlink:href="#path-1"></use>
                    </mask>
                    <g id="path7"></g>
                    <g id="g10" mask="url(#mask-2)">
                        <g transform="translate(2.000000, 3.000000)">
                            <path d="M21.8515511,0.0517051638 C30.0004412,0.0517051638 36.6466388,6.71285576 36.6466388,14.8804531 C36.6466388,16.5900703 36.3544148,18.2333834 35.8194295,19.763553 L31.9109726,16.7275457 L26.9610697,23.4577382 L21.8579235,15.6508605 L17.1762723,23.7655359 L11.9198835,16.1892027 L8.21655948,20.6291591 C7.47006887,18.8599292 7.05646422,16.9170298 7.05646422,14.8804531 C7.05646422,6.71285576 13.7026611,0.0517051638 21.8515511,0.0517051638 L21.8515511,0.0517051638 Z M20.1209668,3.5068293 C19.9307025,3.5488018 19.7580383,3.58651618 19.567774,3.6284886 L19.9437511,3.20420185 L19.656686,2.71421899 L20.1764982,2.94172189 L20.5530819,2.51713093 L20.4972468,3.08223842 L21.0161493,3.31034957 C20.8319537,3.35049714 20.6474551,3.39125304 20.4629565,3.43140053 L20.4077281,3.99681215 L20.1209668,3.5068293 Z M19.2740328,5.23560804 C19.6418166,6.04920455 20.4599222,6.6167453 21.4060845,6.6167453 C22.6945395,6.6167453 23.7456959,5.56317568 23.7456959,4.27206638 C23.7456959,3.22670878 23.0571643,2.3376835 22.1119124,2.03627256 C22.6217111,2.42984036 22.9512598,3.04695714 22.9512598,3.73919864 C22.9512598,4.92172704 21.9884079,5.88678942 20.8082842,5.88678942 C20.2077542,5.88678942 19.6639689,5.63708373 19.2740328,5.23560804 Z M17.9989293,9.09737805 C18.8546633,9.0611847 20.8207261,11.1689319 20.7767253,11.5743614 C20.5354819,12.3316911 20.3503758,13.324431 20.3555348,13.677243 C20.353717,14.3576225 20.542461,14.701918 20.5181849,14.944324 C20.1722496,15.5942891 19.9919996,16.1365852 19.7295144,16.9361908 C19.5744501,17.0298689 19.1757149,17.0377765 19.0607066,16.9586984 C19.1104731,16.8005413 19.1602388,16.7978037 19.3772068,16.7126422 C19.7000793,16.1855533 19.8845779,15.6167959 20.0584556,15.0595963 C20.0642197,14.36188 19.7031136,14.1185614 19.6223957,13.380698 C19.5004083,13.9366814 19.6138987,14.5349407 19.518615,14.7375032 C19.368103,15.3418459 18.9736163,15.9954604 18.8009521,16.6706699 C18.6197915,16.7561351 18.3075399,16.7436655 18.1105995,16.6566789 C18.2771944,16.3765581 18.3739959,16.462024 18.6009773,16.3038669 C18.8188558,15.7126027 18.9757402,15.1754767 19.1326246,14.703135 C19.2816194,13.9987272 18.9790783,13.485325 18.8133939,12.8806786 C18.5927841,12.951241 18.3157332,13.0208909 18.0838958,13.0263654 C17.7540442,13.0333574 17.4454336,12.8642544 17.1207401,12.805858 C17.1905342,13.5087443 17.4697097,13.8466535 17.4703164,14.3773917 C17.1046573,15.2013292 16.9920766,16.4598953 16.9165177,16.6600246 C16.7332325,16.7311951 16.5690653,16.7530938 16.4458637,16.703822 C16.4124846,16.7622184 16.3791048,16.8209193 16.3232697,16.8680616 C15.9815829,16.9018226 15.7500493,16.9659979 15.6775246,16.8218311 C15.9263545,16.4386047 15.6933037,16.7132503 16.0732255,16.4726693 C16.1226882,15.1587488 16.1688129,13.7350306 16.158192,12.3608894 C16.1381644,12.2644737 16.0173904,12.1342986 15.817112,12.1282153 C15.7018007,12.1838749 15.6462694,12.2650826 15.4708738,12.2608243 C14.7905354,12.1723171 14.4998286,11.3581123 14.4898152,11.1561579 C14.4889063,10.8082123 14.6882719,10.1862292 14.5963264,9.22968264 C14.471001,9.1582077 14.4060621,9.04567304 14.2209568,9.00430888 C13.9639336,9.00582719 13.7499999,9.00156814 13.5985774,8.86166345 C13.7591036,8.30811402 14.0765135,8.33092446 14.5963264,8.31541358 C14.6585339,8.26522844 14.7210451,8.21504407 14.7835563,8.16485971 C14.9440817,8.18402153 15.0257101,8.28165264 15.0961109,8.39023346 C15.3003341,8.4112196 15.3585969,8.42125678 15.5628201,8.44193847 C15.5437022,8.55447391 15.5133574,8.65605884 15.4387081,8.76889794 C15.4341558,9.0617928 15.40017,9.3674617 15.2460162,9.63055023 C15.2508714,10.1469938 15.1446632,10.7759727 15.5955925,10.8456226 C16.1806472,10.7878342 17.4739582,9.01312908 17.9989293,9.09737805 L17.9989293,9.09737805 Z M16.5745272,13.2906602 C16.7924057,13.2876257 17.0430565,13.9908196 17.0606573,14.363097 C17.0230289,14.9990711 16.8012057,15.6624183 16.7402124,16.1983274 C16.6503907,16.232392 16.5202101,16.3218118 16.459216,16.3723006 C16.3372286,15.9285482 16.4501122,15.2098457 16.4352436,14.8028956 C16.5754377,14.6538624 16.5642101,13.7931234 16.5745272,13.2906602 L16.5745272,13.2906602 Z M26.3890635,9.09737805 C27.2447967,9.0611847 29.2108602,11.1689319 29.1668595,11.5743614 C28.9256153,12.3316911 28.7402063,13.324431 28.7453653,13.677243 C28.7435475,14.3576225 28.9319877,14.701918 28.9080153,14.944324 C28.5617771,15.5942891 28.38183,16.1365852 28.1196478,16.9361908 C27.9639776,17.0298689 27.5655454,17.0377765 27.4508408,16.9586984 C27.4999998,16.8005413 27.550373,16.7978037 27.7667335,16.7126422 C28.0899098,16.1855533 28.2744083,15.6167959 28.4485898,15.0595963 C28.4540509,14.36188 28.0926411,14.1185614 28.0122261,13.380698 C27.8902388,13.9366814 28.0037291,14.5349407 27.9087492,14.7375032 C27.7579335,15.3418459 27.3634468,15.9954604 27.1910863,16.6706699 C27.009622,16.7561351 26.6970666,16.7436655 26.5007337,16.6566789 C26.6667218,16.3765581 26.7635226,16.462024 26.9908078,16.3038669 C27.2086863,15.7126027 27.3658744,15.1754767 27.5221521,14.703135 C27.6717536,13.9987272 27.3692124,13.485325 27.2035273,12.8806786 C26.9829182,12.951241 26.7055637,13.0208909 26.4737262,13.0263654 C26.1435709,13.0333574 25.835264,12.8642544 25.5102676,12.805858 C25.5800617,13.5087443 25.8592372,13.8466535 25.8604506,14.3773917 C25.4941848,15.2013292 25.3819071,16.4598953 25.3066511,16.6600246 C25.1233667,16.7311951 24.9588957,16.7530938 24.8353912,16.703822 C24.8020113,16.7622184 24.7686315,16.8209193 24.7131001,16.8680616 C24.3714134,16.9018226 24.1398797,16.9659979 24.0676588,16.8218311 C24.3164887,16.4386047 24.0831342,16.7132503 24.463056,16.4726693 C24.5128217,15.1587488 24.5586433,13.7350306 24.5480224,12.3608894 C24.5282978,12.2644737 24.4072209,12.1342986 24.2072462,12.1282153 C24.0916312,12.1838749 24.0357961,12.2650826 23.8607042,12.2608243 C23.1806696,12.1723171 22.889659,11.3581123 22.8793419,11.1561579 C22.878433,10.8082123 23.0781024,10.1862292 22.9858531,9.22968264 C22.8611352,9.1582077 22.7958926,9.04567304 22.611091,9.00430888 C22.3534603,9.00582719 22.1401341,9.00156814 21.9884079,8.86166345 C22.1492371,8.30811402 22.4666477,8.33092446 22.9858531,8.31541358 C23.0483643,8.26522844 23.1111793,8.21504407 23.1733868,8.16485971 C23.3336092,8.18402153 23.4152376,8.28165264 23.4859414,8.39023346 C23.6898609,8.4112196 23.7484273,8.42125678 23.9523468,8.44193847 C23.9335326,8.55447391 23.9034908,8.65605884 23.8282348,8.76889794 C23.8242885,9.0617928 23.7896967,9.3674617 23.6358467,9.63055023 C23.6410048,10.1469938 23.5344936,10.7759727 23.9857267,10.8456226 C24.5704777,10.7878342 25.8640924,9.01312908 26.3890635,9.09737805 L26.3890635,9.09737805 Z M24.9640547,13.2906602 C25.1822361,13.2876257 25.432887,13.9908196 25.4507907,14.363097 C25.4128594,14.9990711 25.1913399,15.6624183 25.1297391,16.1983274 C25.0402212,16.232392 24.9103435,16.3218118 24.8487427,16.3723006 C24.727362,15.9285482 24.8396397,15.2098457 24.8247703,14.8028956 C24.9652681,14.6538624 24.9537375,13.7931234 24.9640547,13.2906602 L24.9640547,13.2906602 Z" id="path12" stroke="none" fill="#01923F" fill-rule="evenodd"></path>
                            <path d="M21.997815,27.6738244 C33.313829,27.7005895 41.066108,34.4228741 41.1179978,35.6704903 C41.0882595,36.25263 40.4734665,36.3423533 40.4622393,36.5795889 C40.4640649,36.8560601 40.6698002,36.9996181 40.972341,36.9549078 C41.4372289,37.0069177 43.1016615,33.7382369 43.9719608,31.7591437 C37.8580175,26.7184948 30.7882016,23.692828 22.3313078,23.5891134 L22.3315992,23.5863766 C22.2463288,23.5860749 22.1613623,23.5863766 22.0763959,23.5863766 C22.049996,23.5863766 22.0238992,23.5863766 21.9978024,23.5863766 C21.9717055,23.5863766 21.9456087,23.5863766 21.9192079,23.5863766 C21.8342415,23.5863766 21.7495789,23.5860749 21.6643086,23.5863766 L21.6643086,23.5891134 C13.2080353,23.692828 6.13761251,26.7184948 0.0242761298,31.7591437 C0.894271931,33.7382369 2.55870408,37.0069177 3.02359196,36.9549078 C3.32613323,36.9996181 3.53217688,36.8560601 3.53399759,36.5795889 C3.52246643,36.3423533 2.90767344,36.25263 2.87793518,35.6704903 C2.93012886,34.4228741 10.681801,27.7005895 21.997815,27.6738244 Z" id="path14" stroke="#01923F" stroke-width="1" fill="none" transform="translate(21.998118, 30.274604) scale(-1, 1) rotate(-180.000000) translate(-21.998118, -30.274604) "></path>
                            <path d="M3.1325311,29.3095491 L8.33096084,29.3235412 C8.96638853,29.3247565 9.51047778,28.4859156 9.49378745,27.2939581 C9.47254584,25.747973 8.80616608,24.6448278 8.12582754,23.5781794" id="path16" stroke="#01923F" stroke-width="1" fill="none" transform="translate(6.313346, 26.450860) scale(-1, 1) rotate(-180.000000) translate(-6.313346, -26.450860) "></path>
                            <path d="M3.65234372,23.9623203 C3.84169754,23.8154166 4.06261032,23.8172409 4.26774361,23.8388359 C5.24121642,23.9413334 5.34681758,24.6122846 5.37594894,25.3057426 C5.40447335,25.9709149 4.67133423,26.147625 4.92441292,26.6360873 C5.11619435,27.0056271 5.57228216,26.9825122 5.75890485,26.9925486 C6.30572471,27.0223557 6.72327414,27.5856379 7.22275532,27.4861817 C7.39997106,27.4509001 7.55533829,27.3490108 7.70190553,27.3353242 C7.9328325,27.3137292 8.13280722,27.5102091 8.09821315,27.8289565 C8.08213031,27.9785978 7.88124592,28.0710589 7.90703921,28.3773359 C7.91796308,28.5102486 7.9962534,28.6550235 8.11217212,28.7204151 C8.24356696,28.7943232 8.67204026,28.6428576 8.56370813,28.7477883 C8.44141703,28.8661018 8.25206322,29.3040753 8.1667938,29.2821766 C4.56937449,27.429914 2.86336951,25.7327671 2.87243678,24.6752438 C2.87581108,24.3227355 3.37438204,24.1782649 3.65234372,23.9623203" id="path18" stroke="none" fill="#01923F" fill-rule="evenodd"></path>
                            <path d="M40.9131684,29.3095491 L35.7144352,29.3235412 C35.0793105,29.3247565 34.5352222,28.4859156 34.5516086,27.2939581 C34.5731532,25.747973 35.2398369,24.6448278 35.9198715,23.5781794" id="path20" stroke="#01923F" stroke-width="1" fill="none" transform="translate(37.732208, 26.450860) scale(-1, 1) rotate(-180.000000) translate(-37.732208, -26.450860) "></path>
                            <path d="M40.3933561,23.9623203 C40.2043052,23.8154166 39.9830895,23.8172409 39.7776521,23.8388359 C38.8041792,23.9413334 38.6991852,24.6122846 38.6694471,25.3057426 C38.6415292,25.9709149 39.3740616,26.147625 39.1209831,26.6360873 C38.9298084,27.0056271 38.4734172,26.9825122 38.286491,26.9925486 C37.7396713,27.0223557 37.3224257,27.5856379 36.8226403,27.4861817 C36.6454246,27.4509001 36.4903611,27.3490108 36.3437939,27.3353242 C36.1128669,27.3137292 35.9128922,27.5102091 35.9471825,27.8289565 C35.9632654,27.9785978 36.1641505,28.0710589 36.1386602,28.3773359 C36.1277363,28.5102486 36.0491423,28.6550235 35.9335273,28.7204151 C35.8021324,28.7943232 35.3736591,28.6428576 35.4819913,28.7477883 C35.6042824,28.8661018 35.7933324,29.3040753 35.8789056,29.2821766 C39.4763251,27.429914 41.1823303,25.7327671 41.1729615,24.6752438 C41.1698854,24.3227355 40.6716211,24.1782649 40.3933561,23.9623203" id="path22" stroke="none" fill="#01923F" fill-rule="evenodd"></path>
                            <path d="M2.50893801,36.1153456 C3.56677037,35.9748291 4.30810268,35.2895831 5.14987748,35.2098963 C5.84022992,35.1438961 6.40798791,35.3835649 7.01276699,35.2098963 C7.26281113,35.153933 7.539559,34.6676 7.51285526,34.3318203 C7.48433081,33.9707963 7.22579003,33.6493116 6.8458686,33.6073392 C6.33121464,33.5842239 5.40386649,34.0802897 4.62187166,34.1788337 C3.85292525,34.2752487 2.85639012,34.1368613 2.03646384,34.2065112" id="path24" stroke="#01923F" stroke-width="1" fill="none" transform="translate(4.775555, 34.860951) scale(-1, 1) rotate(-180.000000) translate(-4.775555, -34.860951) "></path>
                            <path d="M2.59026305,35.4935053 C2.92830815,35.3821871 3.06486138,34.8657434 2.89310777,34.3447374 C2.7222645,33.8234273 2.30714268,33.4894725 1.96879412,33.6007908 C1.63044557,33.7124132 1.49419579,34.2285528 1.6653425,34.7498629 C1.83648922,35.2705647 2.25191449,35.6048236 2.59026305,35.4935053 Z" id="path26" stroke="#01923F" stroke-width="1" fill="none" transform="translate(2.279394, 34.547142) scale(-1, 1) rotate(-180.000000) translate(-2.279394, -34.547142) "></path>
                            <path d="M2.09169203,35.4318464 C1.40892588,34.6218996 0.734656377,33.4916847 0.701883602,32.0603631 C0.675483311,30.9131159 1.33852511,30.394239 2.09169203,30.402451" id="path28" stroke="#01923F" stroke-width="1" fill="none" transform="translate(1.396407, 32.917101) scale(-1, 1) rotate(-180.000000) translate(-1.396407, -32.917101) "></path>
                            <path d="M1.81373033,33.9687973 C1.95969054,33.7495062 2.07864357,34.3380335 2.36995713,34.3450286 C2.62060821,34.3511097 2.95379813,34.1759226 2.9817156,34.3590196 C3.07275116,34.9691412 2.66764323,35.4995758 2.03646386,35.5430687 C1.50815452,35.5798709 1.26175188,34.7988182 1.81373033,33.9687973" id="path30" stroke="none" fill="#01923F" fill-rule="evenodd"></path>
                            <path d="M5.95736225,32.8814676 C5.99559719,33.4201143 5.3368037,33.6019944 5.38323178,34.1226962 C5.4005285,34.3158304 5.82991257,34.3672317 6.00257652,34.4949736 C5.53890244,34.5457669 4.9948137,34.5044027 4.56148478,34.4049457 C4.96355816,34.2017751 5.08615262,34.0025575 5.09070441,33.795433 C5.10102173,33.2795976 4.88284007,33.0195504 4.66283767,33.0280669 C4.42311084,33.0377996 4.31235102,33.3836165 4.03226516,33.3556345 C3.57071526,33.3090995 3.54492181,32.7814026 3.10916536,32.3963511 C2.85547973,32.172498 2.28438381,32.1861845 2.25343171,31.8546631 C2.22551424,31.5559894 2.46797202,31.4641364 2.46736516,31.2792143 C2.46645471,31.0894258 2.42882678,31.059315 2.2761906,31.0310293 C1.89717954,30.9616839 1.22017895,32.0751705 0.756201442,32.9830526 C1.04781843,32.1277881 1.4899475,30.9756741 2.08471268,30.3655533 C3.3613336,31.302938 4.6506996,32.1545531 5.95736225,32.8814676" id="path32" stroke="none" fill="#01923F" fill-rule="evenodd"></path>
                            <path d="M41.5018646,36.1153456 C40.4440322,35.9748291 39.7023964,35.2895831 38.8606216,35.2098963 C38.1702687,35.1438961 37.6025112,35.3835649 36.9977316,35.2098963 C36.7479914,35.153933 36.4709396,34.6676 36.4973404,34.3318203 C36.5258649,33.9707963 36.7847086,33.6493116 37.16463,33.6073392 C37.678981,33.5842239 38.6063292,34.0802897 39.3889304,34.1788337 C40.1578768,34.2752487 41.154412,34.1368613 41.9743382,34.2065112" id="path34" stroke="#01923F" stroke-width="1" fill="none" transform="translate(39.234964, 34.860951) scale(-1, 1) rotate(-180.000000) translate(-39.234964, -34.860951) "></path>
                            <path d="M41.4202356,35.4935053 C41.0821905,35.3821871 40.9459412,34.8657434 41.1170879,34.3447374 C41.2882346,33.8234273 41.7036594,33.4894725 42.0414015,33.6007908 C42.3800536,33.7124132 42.5159999,34.2285528 42.3448532,34.7498629 C42.1740094,35.2705647 41.7585846,35.6048236 41.4202356,35.4935053 Z" id="path36" stroke="#01923F" stroke-width="1" fill="none" transform="translate(41.730994, 34.547142) scale(-1, 1) rotate(-180.000000) translate(-41.730994, -34.547142) "></path>
                            <path d="M41.9188071,35.4318464 C42.6018762,34.6218996 43.2758427,33.4916847 43.3089185,32.0603631 C43.3350153,30.9131159 42.672277,30.394239 41.9188071,30.402451" id="path38" stroke="#01923F" stroke-width="1" fill="none" transform="translate(42.614236, 32.917101) scale(-1, 1) rotate(-180.000000) translate(-42.614236, -32.917101) "></path>
                            <path d="M42.1967688,33.9687973 C42.0505053,33.7495062 41.9318552,34.3380335 41.6405417,34.3450286 C41.3898908,34.3511097 41.0563974,34.1759226 41.0290869,34.3590196 C40.9377481,34.9691412 41.3431595,35.4995758 41.9743388,35.5430687 C42.5023443,35.5798709 42.7490503,34.7988182 42.1967688,33.9687973" id="path40" stroke="none" fill="#01923F" fill-rule="evenodd"></path>
                            <path d="M38.0534401,32.8814676 C38.015205,33.4201143 38.6736956,33.6019944 38.6272672,34.1226962 C38.610274,34.3158304 38.1808902,34.3672317 38.0082259,34.4949736 C38.4719,34.5457669 39.0156853,34.5044027 39.4493176,34.4049457 C39.0469405,34.2017751 38.9243465,34.0025575 38.920098,33.795433 C38.9094771,33.2795976 39.1276593,33.0195504 39.3479646,33.0280669 C39.5873886,33.0377996 39.6984513,33.3836165 39.9785372,33.3556345 C40.4397837,33.3090995 40.465577,32.7814026 40.9016369,32.3963511 C41.1550191,32.172498 41.7258119,32.1861845 41.7570671,31.8546631 C41.785288,31.5559894 41.5425267,31.4641364 41.5431342,31.2792143 C41.5437556,31.0894258 41.581976,31.059315 41.7346119,31.0310293 C42.1133195,30.9616839 42.7906235,32.0751705 43.2546013,32.9830526 C42.9626803,32.1277881 42.5208547,30.9756741 41.9257866,30.3655533 C40.6491651,31.302938 39.3601026,32.1545531 38.0534401,32.8814676" id="path42" stroke="none" fill="#01923F" fill-rule="evenodd"></path>
                            <polyline id="path44" stroke="none" fill="#01923F" fill-rule="evenodd" points="30.6279787 32.7452092 30.9056371 32.466609 31.1835991 32.7452092 30.9056371 33.0241131"></polyline>
                            <polyline id="path46" stroke="none" fill="#01923F" fill-rule="evenodd" points="30.0605248 32.8239837 30.3384861 32.5453835 30.6164482 32.8239837 30.3384861 33.1028876"></polyline>
                            <polyline id="path48" stroke="none" fill="#01923F" fill-rule="evenodd" points="21.3632979 35.7404612 21.6412592 35.461861 21.9192213 35.7404612 21.6412592 36.0190606"></polyline>
                            <polyline id="path50" stroke="none" fill="#01923F" fill-rule="evenodd" points="15.7967814 35.2967088 16.0747427 35.0181086 16.3530077 35.2967088 16.0747427 35.5750045"></polyline>
                            <polyline id="path52" stroke="none" fill="#01923F" fill-rule="evenodd" points="15.1106766 35.2842384 15.3886387 35.005639 15.6666 35.2842384 15.3886387 35.5625342"></polyline>
                            <polyline id="path54" stroke="none" fill="#01923F" fill-rule="evenodd" points="15.4553976 35.6382674 15.7333597 35.3596672 16.011321 35.6382674 15.7333597 35.9168668"></polyline>
                            <polyline id="path56" stroke="none" fill="#01923F" fill-rule="evenodd" points="4.77845271 28.8107474 5.0564144 28.5321473 5.33467952 28.8107474 5.0564144 29.0893469"></polyline>
                            <polyline id="path58" stroke="none" fill="#01923F" fill-rule="evenodd" points="4.37091717 28.4938244 4.64918228 28.215225 4.92684054 28.4938244 4.64918228 28.7721201"></polyline>
                            <polyline id="path60" stroke="none" fill="#01923F" fill-rule="evenodd" points="2.16846525 27.4213982 2.44642702 27.1424944 2.72438863 27.4213982 2.44642702 27.6999976"></polyline>
                            <path d="M40.9708242,28.005971 C41.0655011,27.8149655 41.1274049,27.660763 41.4536155,27.4527252 C41.8132059,27.2237013 42.2702039,27.6498133 42.6555876,27.6802285 C42.6986779,27.8575466 42.7444989,28.06528 42.6261525,28.1939344 C41.762226,28.7696869 40.908313,29.3457439 40.0443865,29.9221046 C40.0744283,30.3108062 40.0319447,30.7353976 39.8274185,30.9099781 C39.7011826,31.0194715 39.389234,31.0559692 39.4924079,30.6727428 C39.7242446,30.4832588 39.7175692,30.2761335 39.660217,30.0604925 C39.4581176,30.2232115 38.9301122,30.628033 38.6846195,30.3962722 C38.5104381,30.2320317 38.4961761,29.5768966 38.7043442,29.4184351 C38.9064427,29.2639281 39.4235243,29.2322967 39.8076939,29.4479377 C40.0641104,29.2931264 40.3793971,29.0397706 40.6358136,28.8849592 C40.1955052,28.7085536 39.5084908,28.8624524 39.3151922,28.7365349 C39.2554123,28.6979083 39.2626951,28.6185257 39.3346131,28.4999077 C39.712714,28.005971 40.031338,27.5713432 40.4088314,27.0777101 C40.4977434,27.0777101 40.6081994,27.0193137 40.6752621,27.0777101 C40.740201,27.1336734 40.694683,27.248642 40.7043935,27.3341072 C40.425218,27.7325416 40.0771589,28.0914369 39.7979834,28.4898705 C40.1135731,28.5132899 40.4482807,28.5163319 40.7635667,28.5394468 C40.8297189,28.5196777 40.8722025,28.6185257 40.832754,28.7566085 C41.2138893,28.4834835 41.6736178,28.1705151 42.054753,27.8970857 C41.8936209,27.7623479 41.7194395,27.7325416 41.6111073,27.8082748 C41.4636297,27.8046231 41.3416423,27.9244589 41.2463579,28.183898 C41.1067705,28.1604779 40.925913,28.1251971 40.9708242,28.005971 L40.9708242,28.005971 Z M38.989892,29.7146757 C39.1021689,29.634685 39.3133713,29.6100487 39.4037997,29.7146757 C39.4860355,29.8098743 39.3740616,29.8919946 39.2717989,29.9649902 C39.1592182,30.0452853 38.9816987,30.1848887 38.8912703,30.0802617 C38.8090345,29.9847593 38.887627,29.7879757 38.989892,29.7146757 L38.989892,29.7146757 Z" id="path62" stroke="none" fill="#01923F" fill-rule="evenodd"></path>
                            <path d="M22.5743731,34.5013606 L22.553738,35.3468932 C21.5165405,35.3453749 20.5606677,35.3283402 19.5228636,35.3268196 C19.332903,35.6668567 18.904429,35.986213 18.6379982,36.0169319 C18.4720109,36.037918 18.1922279,35.8949681 18.4902176,35.633401 C18.7879035,35.6048109 18.8971461,35.4287089 18.9690641,35.2173262 C18.7108266,35.3599716 17.7267337,35.2158079 17.7400852,34.77479 C17.7519195,34.3936924 18.2802295,34.1351665 18.5293631,34.1515907 C18.8992708,34.1756182 19.416959,34.3091389 19.4730971,34.8006425 L20.3260997,34.8036869 L20.3121415,33.5682365 C20.3094071,33.33313 20.7573044,33.3723647 20.7715671,33.5651921 L20.782188,34.8161534 L22.1377065,34.813109 L22.1270856,34.4758087 C22.1780655,34.0861945 22.5728559,34.2251905 22.5743731,34.5013567 L22.5743731,34.5013606 Z M18.6027982,34.5570203 C18.7411722,34.5527612 18.9302223,34.6500894 18.9475193,34.7872604 C18.9629954,34.9125691 18.7809244,34.9162192 18.6552953,34.9198686 C18.5172251,34.9241277 18.3357608,34.9432887 18.3187675,34.8061178 C18.3032914,34.6808083 18.4774728,34.5606696 18.6027982,34.5570203 L18.6027982,34.5570203 Z" id="path64" stroke="none" fill="#01923F" fill-rule="evenodd"></path>
                            <path d="M23.8746632,34.6364029 C27.8265134,34.429582 31.7292054,33.4514413 35.681966,31.8053905 C35.6136891,31.6003948 35.5526958,31.4239892 35.4844189,31.2183846 C35.5545159,31.0474535 35.6634555,30.9410014 35.8567541,30.9756741 C35.9562863,31.1624213 36.0197072,31.3747166 36.1189363,31.5614638 C36.3052558,31.4744772 36.5276858,31.3613345 36.7140045,31.2743479 C36.8147508,30.714107 37.0198837,30.2928614 37.4222608,30.1721146 C37.8194788,30.0534966 38.1174685,30.2368981 38.2236768,30.4336825 C38.4603687,30.8746973 38.0871237,31.3570762 37.790955,31.4474085 C37.4025369,31.4273349 37.6644153,31.140219 37.6950639,31.1116289 C37.8853281,30.9896651 37.8865415,30.8664852 37.8507348,30.7889277 C37.811893,30.7034617 37.635284,30.6919039 37.5227033,30.7457384 C37.1327681,30.9303561 37.3075562,31.6764317 37.0308084,31.8163403 C32.8859626,33.951765 28.5032107,34.9241269 23.9866371,35.364838 C23.7854482,35.1425055 23.7481236,34.899795 23.8746632,34.6364029" id="path66" stroke="none" fill="#01923F" fill-rule="evenodd"></path>
                            <path d="M15.781912,33.6911097 C16.2288965,33.799995 16.3948839,34.0822445 16.8154684,34.5120059 C16.9089311,34.5424211 17.0509468,34.5679692 17.1438028,34.6017301 C17.215417,34.6175455 17.0424498,35.1227356 16.9844908,35.1154361 L14.9468131,34.7148729 C14.8044944,34.5357297 14.7207414,34.6674262 14.3393031,34.5810477 C14.1633008,34.5409005 14.0218926,34.479462 13.9436022,34.3407704 C13.8273798,34.4539139 13.629226,34.5007525 13.3664371,34.4399229 C13.1018272,34.3784851 12.9094391,34.1874796 12.7792585,34.0086409 C12.6912569,34.1011019 12.5853524,34.1604109 12.358371,34.1272589 C8.78097988,32.9599377 5.71702856,31.2828644 2.99233643,29.302251 C2.91647356,29.2335129 2.95440499,29.1325361 2.99233643,29.0206095 L3.69937875,27.3423193 C3.73670324,27.2456 4.07019659,27.3757758 4.04136874,27.4341723 L3.44599662,28.7769865 C3.4229343,28.8813098 3.43932049,29.0248678 3.56039786,29.1002966 C3.83957336,29.274269 4.22131554,29.5239746 4.50049103,29.6982515 L4.69318275,29.1240196 C4.74082471,29.0668401 5.04731081,29.2304716 5.03062095,29.2864349 L4.8260946,29.9391369 C7.16358215,31.4881646 9.66007875,32.6953285 12.361709,33.5946948 L12.4415165,32.9410803 C12.438782,32.8604815 12.9039764,32.9000206 12.8854659,32.9812283 L12.8281137,33.7863084 C13.053275,33.9198292 13.2517325,33.9292583 13.4344102,33.9088802 L13.4853901,33.2649985 C13.4823527,33.185007 13.9053671,33.2610431 13.9181119,33.3364734 L13.8777529,33.9736637 C13.8929253,34.0865028 14.3826964,34.2440518 14.4615942,34.165581 L14.5086286,33.5804001 C14.5089393,33.512879 14.9182885,33.5554602 14.9149504,33.6193311 L14.8618466,34.2209361 L16.3366211,34.5284301 C16.2744137,34.2477012 15.9973628,33.9444655 15.7109045,33.9119215 C15.5227641,33.8906309 15.466929,33.9821803 15.2991207,33.9946498 C15.227202,33.9995162 15.1737945,33.8583914 15.2599752,33.8097277 C15.4086663,33.7388617 15.6332209,33.6600872 15.781912,33.6911097" id="path68" stroke="none" fill="#01923F" fill-rule="evenodd"></path>
                            <path d="M2.79418254,27.7693438 C2.86367294,27.6197025 3.21051816,27.7489658 3.14770366,27.9071229 C3.00720561,28.2246533 2.95076357,28.6522859 2.54808325,29.1164163 C2.42245432,29.2256053 2.2819562,29.3211076 2.09381619,29.2864349 C1.25113106,29.1313191 1.25082755,28.5309311 1.45262293,28.1178975 C1.58037605,27.8563296 1.5900865,27.8180075 1.70630849,27.6707994 C1.82101317,27.5260252 2.15572032,27.651942 2.02402236,27.8672794 C1.94937322,28.0035378 1.9524077,27.9858974 1.87836558,28.1221558 C1.62225233,28.4314741 1.75607456,28.6389038 2.1566307,28.7152443 C2.44096485,28.8326461 2.58298021,28.2644968 2.79418254,27.7693438" id="path70" stroke="none" fill="#01923F" fill-rule="evenodd"></path>
                        </g>
                    </g>
                </g>
                <path d="M58.412,22.904 C59.0093363,23.0253339 59.4876649,23.3076645 59.847,23.751 C60.2063351,24.1943355 60.386,24.7146637 60.386,25.312 C60.386,26.1426708 60.1083361,26.7983309 59.553,27.279 C58.9976639,27.7596691 58.1926719,28 57.138,28 L52.896,28 L52.896,18.116 L57.054,18.116 C58.0526717,18.116 58.8203307,18.3353311 59.357,18.774 C59.8936694,19.2126689 60.162,19.8286627 60.162,20.622 C60.162,21.2380031 60.0010016,21.741998 59.679,22.134 C59.3569984,22.526002 58.9346693,22.7826661 58.412,22.904 Z M54.87,22.26 L56.648,22.26 C57.1426691,22.26 57.518332,22.1503344 57.775,21.931 C58.0316679,21.7116656 58.16,21.3966687 58.16,20.986 C58.16,20.5753313 58.0340013,20.2580011 57.782,20.034 C57.5299987,19.8099989 57.1426693,19.698 56.62,19.698 L54.87,19.698 L54.87,22.26 Z M56.746,26.39 C57.2686693,26.39 57.6699986,26.2756678 57.95,26.047 C58.2300014,25.8183322 58.37,25.4846689 58.37,25.046 C58.37,24.6073311 58.2276681,24.2690012 57.943,24.031 C57.6583319,23.7929988 57.2546693,23.674 56.732,23.674 L54.87,23.674 L54.87,26.39 L56.746,26.39 Z M67.792,26.012 L63.83,26.012 L63.13,28 L61.044,28 L64.684,18.228 L66.938,18.228 L70.564,28 L68.478,28 L67.792,26.012 Z M67.26,24.514 L65.804,20.342 L64.348,24.514 L67.26,24.514 Z M73.602,26.488 L76.92,26.488 L76.92,28 L71.628,28 L71.628,18.116 L73.602,18.116 L73.602,26.488 Z M82.73,17.976 C83.6540046,17.976 84.4916629,18.1906645 85.243,18.62 C85.9943371,19.0493355 86.5869978,19.6489962 87.021,20.419 C87.4550022,21.1890038 87.672,22.0593285 87.672,23.03 C87.672,24.0006715 87.4550022,24.8733295 87.021,25.648 C86.5869978,26.4226705 85.9943371,27.0246645 85.243,27.454 C84.4916629,27.8833355 83.6540046,28.098 82.73,28.098 C81.8059954,28.098 80.9683371,27.8833355 80.217,27.454 C79.4656629,27.0246645 78.8730022,26.4226705 78.439,25.648 C78.0049978,24.8733295 77.788,24.0006715 77.788,23.03 C77.788,22.0593285 78.0049978,21.1890038 78.439,20.419 C78.8730022,19.6489962 79.4656629,19.0493355 80.217,18.62 C80.9683371,18.1906645 81.8059954,17.976 82.73,17.976 Z M82.73,19.796 C82.1513304,19.796 81.6426689,19.9266654 81.204,20.188 C80.7653311,20.4493346 80.4223346,20.8249975 80.175,21.315 C79.9276654,21.8050024 79.804,22.3766634 79.804,23.03 C79.804,23.6833366 79.9276654,24.2549975 80.175,24.745 C80.4223346,25.2350024 80.7653311,25.6106654 81.204,25.872 C81.6426689,26.1333346 82.1513304,26.264 82.73,26.264 C83.3086696,26.264 83.8173311,26.1333346 84.256,25.872 C84.6946689,25.6106654 85.0376654,25.2350024 85.285,24.745 C85.5323346,24.2549975 85.656,23.6833366 85.656,23.03 C85.656,22.3766634 85.5323346,21.8050024 85.285,21.315 C85.0376654,20.8249975 84.6946689,20.4493346 84.256,20.188 C83.8173311,19.9266654 83.3086696,19.796 82.73,19.796 Z M93.622,18.018 C94.8540062,18.018 95.8759959,18.3353302 96.688,18.97 C97.5000041,19.6046698 98.0366654,20.4679945 98.298,21.56 L96.226,21.56 C96.0113323,21.0279973 95.6776689,20.6080015 95.225,20.3 C94.7723311,19.9919985 94.2286698,19.838 93.594,19.838 C93.0713307,19.838 92.6000021,19.9686654 92.18,20.23 C91.7599979,20.4913346 91.4333345,20.8646642 91.2,21.35 C90.9666655,21.8353358 90.85,22.4046634 90.85,23.058 C90.85,23.7020032 90.9666655,24.2666642 91.2,24.752 C91.4333345,25.2373358 91.7599979,25.6106654 92.18,25.872 C92.6000021,26.1333346 93.0713307,26.264 93.594,26.264 C94.2286698,26.264 94.7723311,26.1100015 95.225,25.802 C95.6776689,25.4939985 96.0113323,25.0740027 96.226,24.542 L98.298,24.542 C98.0366654,25.6340055 97.5000041,26.4973302 96.688,27.132 C95.8759959,27.7666698 94.8540062,28.084 93.622,28.084 C92.6793286,28.084 91.8463369,27.8716688 91.123,27.447 C90.3996631,27.0223312 89.8396686,26.4273372 89.443,25.662 C89.0463314,24.8966628 88.848,24.0286715 88.848,23.058 C88.848,22.0779951 89.0463314,21.2053372 89.443,20.44 C89.8396686,19.6746628 90.3973297,19.0796688 91.116,18.655 C91.8346703,18.2303312 92.6699952,18.018 93.622,18.018 Z M107.972,18.116 L107.972,28 L105.984,28 L105.984,23.702 L101.756,23.702 L101.756,28 L99.782,28 L99.782,18.116 L101.756,18.116 L101.756,22.12 L105.984,22.12 L105.984,18.116 L107.972,18.116 Z M111.738,18.116 L111.738,28 L109.764,28 L109.764,18.116 L111.738,18.116 Z M120.32,25.298 C120.32,25.8020025 120.194001,26.2663312 119.942,26.691 C119.689999,27.1156688 119.316669,27.4563321 118.822,27.713 C118.327331,27.969668 117.725337,28.098 117.016,28.098 C116.315996,28.098 115.690669,27.9790012 115.14,27.741 C114.589331,27.5029988 114.148335,27.1600022 113.817,26.712 C113.485665,26.2639978 113.296667,25.7413363 113.25,25.144 L115.35,25.144 C115.396667,25.5453353 115.557665,25.8789987 115.833,26.145 C116.108335,26.4110013 116.474664,26.544 116.932,26.544 C117.342669,26.544 117.657666,26.4343344 117.877,26.215 C118.096334,25.9956656 118.206,25.7133351 118.206,25.368 C118.206,25.0599985 118.117334,24.8056677 117.94,24.605 C117.762666,24.4043323 117.538668,24.2433339 117.268,24.122 C116.997332,24.0006661 116.624002,23.8606675 116.148,23.702 C115.531997,23.4966656 115.028002,23.2936677 114.636,23.093 C114.243998,22.8923323 113.910335,22.6006686 113.635,22.218 C113.359665,21.8353314 113.222,21.3360031 113.222,20.72 C113.222,19.8706624 113.527664,19.2010025 114.139,18.711 C114.750336,18.2209975 115.559995,17.976 116.568,17.976 C117.613339,17.976 118.44633,18.2279975 119.067,18.732 C119.68767,19.2360025 120.04,19.9079958 120.124,20.748 L117.996,20.748 C117.94,20.3933316 117.790668,20.1016678 117.548,19.873 C117.305332,19.6443322 116.974002,19.53 116.554,19.53 C116.189998,19.53 115.896001,19.6256657 115.672,19.817 C115.447999,20.0083343 115.336,20.2859982 115.336,20.65 C115.336,20.9393348 115.422332,21.1796657 115.595,21.371 C115.767668,21.5623343 115.986999,21.7186661 116.253,21.84 C116.519001,21.9613339 116.880664,22.0966659 117.338,22.246 C117.97267,22.4700011 118.488331,22.679999 118.885,22.876 C119.281669,23.072001 119.619999,23.365998 119.9,23.758 C120.180001,24.150002 120.32,24.6633302 120.32,25.298 Z M128.496,18.116 L128.496,19.684 L125.766,19.684 L125.766,28 L123.792,28 L123.792,19.684 L121.076,19.684 L121.076,18.116 L128.496,18.116 Z M135.608,26.012 L131.646,26.012 L130.946,28 L128.86,28 L132.5,18.228 L134.754,18.228 L138.38,28 L136.294,28 L135.608,26.012 Z M135.076,24.514 L133.62,20.342 L132.164,24.514 L135.076,24.514 Z M147.816,28 L145.842,28 L141.418,21.28 L141.418,28 L139.444,28 L139.444,18.116 L141.418,18.116 L145.842,24.892 L145.842,18.116 L147.816,18.116 L147.816,28 Z M151.246,25.942 L151.246,28 L149.118,28 L149.118,25.942 L151.246,25.942 Z M157.14,18.018 C158.344006,18.018 159.342663,18.3143304 160.136,18.907 C160.929337,19.4996696 161.437999,20.299995 161.662,21.308 L159.59,21.308 C159.393999,20.8599978 159.083669,20.5030013 158.659,20.237 C158.234331,19.9709987 157.73267,19.838 157.154,19.838 C156.584664,19.838 156.080669,19.9686654 155.642,20.23 C155.203331,20.4913346 154.862668,20.8646642 154.62,21.35 C154.377332,21.8353358 154.256,22.4046634 154.256,23.058 C154.256,24.0940052 154.533664,24.9013304 155.089,25.48 C155.644336,26.0586696 156.402662,26.348 157.364,26.348 C158.073337,26.348 158.682331,26.1380021 159.191,25.718 C159.699669,25.2979979 160.028666,24.7146704 160.178,23.968 L156.832,23.968 L156.832,22.554 L161.83,22.554 L161.83,24.458 C161.689999,25.1113366 161.417002,25.7133306 161.011,26.264 C160.604998,26.8146694 160.073003,27.255665 159.415,27.587 C158.756997,27.918335 158.003338,28.084 157.154,28.084 C156.183328,28.084 155.327004,27.8716688 154.585,27.447 C153.842996,27.0223312 153.269002,26.4296705 152.863,25.669 C152.456998,24.9083295 152.254,24.0380049 152.254,23.058 C152.254,22.0779951 152.456998,21.2076705 152.863,20.447 C153.269002,19.6863295 153.840663,19.0913355 154.578,18.662 C155.315337,18.2326645 156.169328,18.018 157.14,18.018 Z M167.948,17.976 C168.872005,17.976 169.709663,18.1906645 170.461,18.62 C171.212337,19.0493355 171.804998,19.6489962 172.239,20.419 C172.673002,21.1890038 172.89,22.0593285 172.89,23.03 C172.89,24.0006715 172.673002,24.8733295 172.239,25.648 C171.804998,26.4226705 171.212337,27.0246645 170.461,27.454 C169.709663,27.8833355 168.872005,28.098 167.948,28.098 C167.023995,28.098 166.186337,27.8833355 165.435,27.454 C164.683663,27.0246645 164.091002,26.4226705 163.657,25.648 C163.222998,24.8733295 163.006,24.0006715 163.006,23.03 C163.006,22.0593285 163.222998,21.1890038 163.657,20.419 C164.091002,19.6489962 164.683663,19.0493355 165.435,18.62 C166.186337,18.1906645 167.023995,17.976 167.948,17.976 Z M167.948,19.796 C167.36933,19.796 166.860669,19.9266654 166.422,20.188 C165.983331,20.4493346 165.640335,20.8249975 165.393,21.315 C165.145665,21.8050024 165.022,22.3766634 165.022,23.03 C165.022,23.6833366 165.145665,24.2549975 165.393,24.745 C165.640335,25.2350024 165.983331,25.6106654 166.422,25.872 C166.860669,26.1333346 167.36933,26.264 167.948,26.264 C168.52667,26.264 169.035331,26.1333346 169.474,25.872 C169.912669,25.6106654 170.255665,25.2350024 170.503,24.745 C170.750335,24.2549975 170.874,23.6833366 170.874,23.03 C170.874,22.3766634 170.750335,21.8050024 170.503,21.315 C170.255665,20.8249975 169.912669,20.4493346 169.474,20.188 C169.035331,19.9266654 168.52667,19.796 167.948,19.796 Z M175.76,18.116 L178.406,25.942 L181.066,18.116 L183.18,18.116 L179.68,28 L177.146,28 L173.646,18.116 L175.76,18.116 Z M185.882,25.942 L185.882,28 L183.754,28 L183.754,25.942 L185.882,25.942 Z M189.172,24.332 L189.172,28 L187.198,28 L187.198,18.116 L190.796,18.116 C191.962672,18.116 192.84233,18.3959972 193.435,18.956 C194.02767,19.5160028 194.324,20.2766619 194.324,21.238 C194.324,22.1806714 194.018336,22.9319972 193.407,23.492 C192.795664,24.0520028 191.925339,24.332 190.796,24.332 L189.172,24.332 Z M190.586,22.75 C191.743339,22.75 192.322,22.246005 192.322,21.238 C192.322,20.7433309 192.186668,20.3653346 191.916,20.104 C191.645332,19.8426654 191.202003,19.712 190.586,19.712 L189.172,19.712 L189.172,22.75 L190.586,22.75 Z M199.448,22.974 L203.634,28 L201.24,28 L197.586,23.478 L197.586,28 L195.612,28 L195.612,18.116 L197.586,18.116 L197.586,22.554 L201.254,18.116 L203.634,18.116 L199.448,22.974 Z" id="BALOCHISTAN.GOV.PK" fill="#000000" fill-rule="nonzero"></path>
            </g>
        </g>
    </g>
</svg>