<?xml version="1.0" encoding="UTF-8"?>
<svg width="60px" height="60px" viewBox="0 0 60 60" version="1.1" xmlns="http://www.w3.org/2000/svg" xmlns:xlink="http://www.w3.org/1999/xlink">
    <!-- Generator: sketchtool 55.1 (78136) - https://sketchapp.com -->
    <title>817A52B1-79E2-48C5-8E99-5893AF702379</title>
    <desc>Created with sketchtool.</desc>
    <g id="Admin" stroke="none" stroke-width="1" fill="none" fill-rule="evenodd">
        <g id="0.-Admin-Forgot-Password" transform="translate(-540.000000, -248.000000)" fill="#FFFFFF" fill-rule="nonzero">
            <g id="Group-2" transform="translate(385.000000, 140.000000)">
                <g id="Group" transform="translate(0.000000, 78.000000)">
                    <g id="password-reset-icon" transform="translate(155.000000, 30.000000)">
                        <path d="M4,60 L52,60 C54.2090625,60 56,58.2090625 56,56 L56,53 C56,52.4475 55.5525,52 55,52 L53,52 L53,36 L51,36 L51,52 L49,52 L49,36 L47,36 L47,52 L34.2359375,52 C33.17125,51.99625 32.196875,52.5984375 31.724375,53.553125 C31.588125,53.8284375 31.306875,54.0025 31,54 L25.2359375,54 C24.929375,54.001875 24.6484375,53.828125 24.513125,53.553125 C24.04,52.5984375 23.065625,51.99625 22,52 L9,52 L9,27 C9,26.4475 9.4475,26 10,26 L28,26 L28,24 L10,24 C8.34343752,24 7,25.3434375 7,27 L7,52 L5,52 L5,25 C5,23.3434375 6.34343752,22 8,22 L28,22 L28,20 L8,20 C5.24,20.0034375 3.00343752,22.24 3,25 L3,52 L1,52 C0.4475,52 0,52.4475 0,53 L0,56 C0,58.2090625 1.79093752,60 4,60 Z M2,53.9999849 L22,53.9999849 C22.3065625,53.9984375 22.5875,54.1715625 22.724375,54.445625 C23.19625,55.400625 24.17125,56.00375 25.2359375,56 L31,56 C32.065625,56.00375 33.040625,55.400625 33.513125,54.445625 C33.6484375,54.17125 33.9296875,53.998125 34.2359375,53.9999849 L54,53.9999849 L54,56 C54,57.1046875 53.1046875,58 52,58 L4,58 C2.89531248,58 2,57.1046875 2,56 L2,53.9999849 Z" id="Shape"></path>
                        <path d="M13,37 L13,45 C13,45.5525 13.4475,46 14,46 L42,46 C42.5525,46 43,45.5525 43,45 L43,37 C43,36.4475 42.5525,36 42,36 L14,36 C13.4475,36 13,36.4475 13,37 Z M15,38 L41,38 L41,44 L15,44 L15,38 Z" id="Shape"></path>
                        <polygon id="Path" points="17 40 19 40 19 42 17 42"></polygon>
                        <polygon id="Path" points="21 40 23 40 23 42 21 42"></polygon>
                        <polygon id="Path" points="25 40 27 40 27 42 25 42"></polygon>
                        <polygon id="Path" points="29 40 31 40 31 42 29 42"></polygon>
                        <path d="M57,15.0371875 L57,12 C57,5.3725 51.6275,0 45,0 C38.3725,0 33,5.3725 33,12 L33,15.0371875 C31.2984375,15.2184375 30.0059375,16.650625 30,18.361875 L30,30.638125 C30.0025,32.4940625 31.506875,33.9984375 33.3628125,34 L56.6371875,34 C58.493125,33.9984375 59.9975,32.4940625 60,30.638125 L60,18.361875 C59.9940625,16.650625 58.7015625,15.2184375 57,15.0371875 Z M35,12 C35,6.47687504 39.476875,2 45,2 C50.523125,2 55,6.47687504 55,12 L55,15 L53,15 L53,12 C53,7.58156248 49.4184375,4 45,4 C40.5815625,4 37,7.58156248 37,12 L37,15 L35,15 L35,12 Z M39,15 L39,12 C39,8.68687504 41.686875,6 45,6 C48.313125,6 51,8.68687504 51,12 L51,15 L39,15 Z M58,30.638125 C57.999375,31.3903125 57.3890625,31.9996875 56.6371875,32 L33.3628125,32 C32.6109375,31.9996875 32.000625,31.3903125 32,30.638125 L32,18.361875 C32.000625,17.6096875 32.6109375,17.0003125 33.3628125,17 L56.6371875,17 C57.3890625,17.0003125 57.999375,17.6096875 58,18.361875 L58,30.638125 Z" id="Shape"></path>
                        <path d="M45,20.999993 C43.540625,20.996875 42.2921875,22.0471875 42.044375,23.4859375 C41.7971875,24.924375 42.6234375,26.33125 44,26.8159375 L44,28.999993 L46,28.999993 L46,26.8159375 C47.3765625,26.33125 48.2028125,24.924375 47.955625,23.4859375 C47.7078125,22.0471875 46.459375,20.996875 45,20.999993 Z M45,25 C44.4475,25 44,24.5525 44,24 C44,23.4475 44.4475,23 45,23 C45.5525,23 46,23.4475 46,24 C46,24.5525 45.5525,25 45,25 Z" id="Shape"></path>
                        <polygon id="Path" points="18 16 20 16 20 18 18 18"></polygon>
                        <polygon id="Path" points="18 12 20 12 20 14 18 14"></polygon>
                        <polygon id="Path" points="18 8 20 8 20 10 18 10"></polygon>
                        <polygon id="Path" points="18 4 20 4 20 6 18 6"></polygon>
                        <polygon id="Path" points="22 4 24 4 24 6 22 6"></polygon>
                        <polygon id="Path" points="26 4 28 4 28 6 26 6"></polygon>
                        <polygon id="Path" points="30 4 32 4 32 6 30 6"></polygon>
                    </g>
                </g>
            </g>
        </g>
    </g>
</svg>