<?xml version="1.0" encoding="UTF-8"?>
<svg width="12px" height="12px" viewBox="0 0 12 12" version="1.1" xmlns="http://www.w3.org/2000/svg" xmlns:xlink="http://www.w3.org/1999/xlink">
    <!-- Generator: sketchtool 54.1 (76490) - https://sketchapp.com -->
    <title>EC9EDBCA-F822-436C-9FAD-C912F69FE77E</title>
    <desc>Created with sketchtool.</desc>
    <g id="Admin" stroke="none" stroke-width="1" fill="none" fill-rule="evenodd">
        <g id="1.-Admin-BORB-Dashboard" transform="translate(-957.000000, -73.000000)" fill="#4F4F4F" fill-rule="nonzero">
            <path d="M964.414062,80.4140625 C964.804689,80.0234355 965,79.5520861 965,79 C965,78.4479139 964.804689,77.9765645 964.414062,77.5859375 C964.023436,77.1953105 963.552086,77 963,77 C962.447914,77 961.976564,77.1953105 961.585938,77.5859375 C961.195311,77.9765645 961,78.4479139 961,79 C961,79.5520861 961.195311,80.0234355 961.585938,80.4140625 C961.976564,80.8046895 962.447914,81 963,81 C963.552086,81 964.023436,80.8046895 964.414062,80.4140625 Z M969,78.1484375 L969,79.8828125 C969,79.9453128 968.979167,80.005208 968.9375,80.0625 C968.895833,80.119792 968.84375,80.1536458 968.78125,80.1640625 L967.335938,80.3828125 C967.236979,80.6640639 967.135417,80.9010407 967.03125,81.09375 C967.213543,81.354168 967.492186,81.7135394 967.867188,82.171875 C967.919271,82.2343753 967.945312,82.2994788 967.945312,82.3671875 C967.945312,82.4348962 967.921875,82.4947914 967.875,82.546875 C967.734374,82.7395843 967.476564,83.0208315 967.101562,83.390625 C966.726561,83.7604185 966.481771,83.9453125 966.367188,83.9453125 C966.304687,83.9453125 966.23698,83.9218752 966.164062,83.875 L965.085938,83.03125 C964.85677,83.1510423 964.619793,83.2499996 964.375,83.328125 C964.291666,84.0364619 964.216146,84.520832 964.148438,84.78125 C964.111979,84.9270841 964.01823,85 963.867188,85 L962.132812,85 C962.059895,85 961.996094,84.9778648 961.941406,84.9335938 C961.886718,84.8893227 961.856771,84.8333337 961.851562,84.765625 L961.632812,83.328125 C961.377603,83.2447913 961.14323,83.148438 960.929688,83.0390625 L959.828125,83.875 C959.776041,83.9218752 959.710938,83.9453125 959.632812,83.9453125 C959.559895,83.9453125 959.494792,83.916667 959.4375,83.859375 C958.781247,83.265622 958.351564,82.8281264 958.148438,82.546875 C958.111979,82.4947914 958.09375,82.4348962 958.09375,82.3671875 C958.09375,82.3046872 958.114583,82.244792 958.15625,82.1875 C958.234375,82.0781245 958.367187,81.9049491 958.554688,81.6679688 C958.742188,81.4309884 958.882812,81.2473965 958.976562,81.1171875 C958.835937,80.8567695 958.729167,80.5989596 958.65625,80.34375 L957.226562,80.1328125 C957.158854,80.1223958 957.104167,80.089844 957.0625,80.0351562 C957.020833,79.9804685 957,79.9192712 957,79.8515625 L957,78.1171875 C957,78.0546872 957.020833,77.994792 957.0625,77.9375 C957.104167,77.880208 957.153646,77.8463542 957.210938,77.8359375 L958.664062,77.6171875 C958.73698,77.377603 958.838541,77.138022 958.96875,76.8984375 C958.760416,76.601561 958.481773,76.2421896 958.132812,75.8203125 C958.080729,75.7578122 958.054688,75.6953128 958.054688,75.6328125 C958.054688,75.5807289 958.078125,75.5208337 958.125,75.453125 C958.260417,75.2656241 958.516925,74.9856789 958.894531,74.6132812 C959.272137,74.2408836 959.518229,74.0546875 959.632812,74.0546875 C959.700521,74.0546875 959.768229,74.0807289 959.835938,74.1328125 L960.914062,74.96875 C961.14323,74.8489577 961.380207,74.7500004 961.625,74.671875 C961.708334,73.9635381 961.783854,73.479168 961.851562,73.21875 C961.888021,73.0729159 961.98177,73 962.132812,73 L963.867188,73 C963.940105,73 964.003906,73.0221352 964.058594,73.0664062 C964.113282,73.1106773 964.143229,73.1666663 964.148438,73.234375 L964.367188,74.671875 C964.622397,74.7552087 964.85677,74.851562 965.070312,74.9609375 L966.179688,74.125 C966.226563,74.0781248 966.289062,74.0546875 966.367188,74.0546875 C966.434896,74.0546875 966.5,74.0807289 966.5625,74.1328125 C967.234378,74.7526073 967.664062,75.1953112 967.851562,75.4609375 C967.888021,75.5026044 967.90625,75.5598955 967.90625,75.6328125 C967.90625,75.6953128 967.885417,75.755208 967.84375,75.8125 C967.765625,75.9218755 967.632813,76.0950509 967.445312,76.3320312 C967.257812,76.5690116 967.117188,76.7526035 967.023438,76.8828125 C967.158855,77.1432305 967.265625,77.3984363 967.34375,77.6484375 L968.773438,77.8671875 C968.841146,77.8776042 968.895833,77.910156 968.9375,77.9648438 C968.979167,78.0195315 969,78.0807288 969,78.1484375 Z" id=""></path>
        </g>
    </g>
</svg>