<?xml version="1.0" encoding="UTF-8"?>
<svg width="42px" height="35px" viewBox="0 0 42 35" version="1.1" xmlns="http://www.w3.org/2000/svg" xmlns:xlink="http://www.w3.org/1999/xlink">
    <!-- Generator: sketchtool 55.1 (78136) - https://sketchapp.com -->
    <title>97012FE0-F80E-40A2-89B9-791EC8A33EAD</title>
    <desc>Created with sketchtool.</desc>
    <g id="Admin" stroke="none" stroke-width="1" fill="none" fill-rule="evenodd">
        <g id="1.-Admin-BORB-Dashboard-Collapse-Menu" transform="translate(-976.000000, -1533.000000)">
            <g id="registeries-recorded-icon" transform="translate(976.000000, 1533.000000)">
                <rect id="Rectangle" fill="#D5EBEB" x="8" y="1" width="27" height="15"></rect>
                <path d="M40.243,15.75 L37.8,15.75 L37.8,12.0936667 C37.8,11.2151667 36.9418,10.5 35.8876,10.5 L35,10.5 L35,0 L7,0 L7,1.16666667 L4.9,1.16666667 L4.9,2.33333333 L2.8,2.33333333 L2.8,6.41666667 L1.9124,6.41666667 C0.8582,6.41666667 0,7.13183333 0,8.01033333 L0,33.4944167 L0.0042,33.4944167 C0.0007,33.8228333 0.1232,34.14425 0.3696,34.4131667 C0.7126,34.7865 1.232,35 1.7955,35 L33.1268,35 C33.9367,35 34.6493,34.545 34.8411,33.9424167 L42,17.5869167 L42,17.4836667 C42,16.4791667 41.2608,15.75 40.243,15.75 Z M35.8876,11.6666667 C36.1704,11.6666667 36.4,11.858 36.4,12.0936667 L36.4,15.75 L35,15.75 L35,11.6666667 L35.8876,11.6666667 Z M33.6,1.16666667 L33.6,10.5 L33.6,15.75 L8.9117,15.75 C8.7486,15.75 8.5918,15.77275 8.4399,15.8071667 C8.4273,15.8100833 8.4126,15.8089167 8.4,15.8118333 L8.4,1.16666667 L33.6,1.16666667 Z M7,2.33333333 L7,17.2579167 L6.9559,17.3588333 L6.3,18.8568333 L6.3,2.33333333 L7,2.33333333 Z M4.2,3.5 L4.9,3.5 L4.9,22.0558333 L4.2,23.65475 L4.2,6.41666667 L4.2,3.5 Z M1.4,8.01033333 C1.4,7.77466667 1.6303,7.58333333 1.9124,7.58333333 L2.8,7.58333333 L2.8,26.8000833 L1.4,29.9821667 L1.4,8.01033333 Z M33.5076,33.5906667 C33.4621,33.7335833 33.3053,33.8333333 33.1268,33.8333333 L1.7955,33.8333333 C1.6254,33.8333333 1.526,33.75225 1.4819,33.7038333 C1.4378,33.656 1.3699,33.5545 1.3958,33.4658333 L2.8,30.2575 L2.8,30.2580833 L4.9,25.4601667 L4.9,25.4601667 L7,20.66225 L7,20.664 L8.3524,17.57175 L8.4,17.4638333 L8.4,17.4638333 L8.512,17.20775 L8.5302,17.1599167 C8.5764,17.017 8.7339,16.9166667 8.9117,16.9166667 L33.6,16.9166667 L35,16.9166667 L37.8,16.9166667 L40.243,16.9166667 C40.5083,16.9166667 40.5769,17.2351667 40.5937,17.3944167 L33.5076,33.5906667 Z" id="Shape" fill="#004545" fill-rule="nonzero"></path>
                <path d="M12.4707692,9.8 L29.5292308,9.8 C29.9215754,9.8 30.24,9.4871 30.24,9.1 C30.24,8.7129 29.9215754,8.4 29.5292308,8.4 L12.4707692,8.4 C12.0784246,8.4 11.76,8.7129 11.76,9.1 C11.76,9.4871 12.0784246,9.8 12.4707692,9.8 Z" id="Path" fill="#004545" fill-rule="nonzero"></path>
                <path d="M12.46,6.3 L19.46,6.3 C19.8464,6.3 20.16,5.9871 20.16,5.6 C20.16,5.2129 19.8464,4.9 19.46,4.9 L12.46,4.9 C12.0736,4.9 11.76,5.2129 11.76,5.6 C11.76,5.9871 12.0736,6.3 12.46,6.3 Z" id="Path" fill="#004545" fill-rule="nonzero"></path>
                <path d="M12.4707692,14 L29.5292308,14 C29.9215754,14 30.24,13.6871 30.24,13.3 C30.24,12.9129 29.9215754,12.6 29.5292308,12.6 L12.4707692,12.6 C12.0784246,12.6 11.76,12.9129 11.76,13.3 C11.76,13.6871 12.0784246,14 12.4707692,14 Z" id="Path" fill="#004545" fill-rule="nonzero"></path>
            </g>
        </g>
    </g>
</svg>