<?xml version="1.0" encoding="UTF-8"?>
<svg width="19px" height="19px" viewBox="0 0 19 19" version="1.1" xmlns="http://www.w3.org/2000/svg" xmlns:xlink="http://www.w3.org/1999/xlink">
    <!-- Generator: Sketch 54.1 (76490) - https://sketchapp.com -->
    <title>role-management-icon</title>
    <desc>Created with Sketch.</desc>
    <defs>
        <rect id="path-1" x="0" y="0" width="20" height="20"></rect>
    </defs>
    <g id="Symbols" stroke="none" stroke-width="1" fill="none" fill-rule="evenodd">
        <g id="admin\leftnav" transform="translate(-1.000000, -147.000000)">
            <g id="role-management-icon" transform="translate(0.000000, 146.000000)">
                <mask id="mask-2" fill="white">
                    <use xlink:href="#path-1"></use>
                </mask>
                <g id="Mask"></g>
                <path d="M12.5032552,12.5032552 C13.0566434,11.949867 13.3333333,11.282122 13.3333333,10.5 C13.3333333,9.71787803 13.0566434,9.05013298 12.5032552,8.49674479 C11.949867,7.94335661 11.282122,7.66666667 10.5,7.66666667 C9.71787803,7.66666667 9.05013298,7.94335661 8.49674479,8.49674479 C7.94335661,9.05013298 7.66666667,9.71787803 7.66666667,10.5 C7.66666667,11.282122 7.94335661,11.949867 8.49674479,12.5032552 C9.05013298,13.0566434 9.71787803,13.3333333 10.5,13.3333333 C11.282122,13.3333333 11.949867,13.0566434 12.5032552,12.5032552 Z M19,9.29361979 L19,11.750651 C19,11.8391932 18.9704864,11.9240447 18.9114583,12.0052083 C18.8524303,12.0863719 18.7786463,12.1343315 18.6901042,12.1490885 L16.6425781,12.4589844 C16.5023865,12.8574239 16.3585077,13.193141 16.2109375,13.4661458 C16.4691853,13.8350713 16.8639296,14.3441808 17.3951823,14.9934896 C17.4689674,15.0820317 17.5058594,15.1742617 17.5058594,15.2701823 C17.5058594,15.3661029 17.4726566,15.4509545 17.40625,15.5247396 C17.2070303,15.7977444 16.8417995,16.1961779 16.3105469,16.7200521 C15.7792942,17.2439262 15.4325095,17.5058594 15.2701823,17.5058594 C15.1816402,17.5058594 15.085721,17.4726566 14.9824219,17.40625 L13.4550781,16.2109375 C13.1304237,16.3806432 12.7947066,16.5208328 12.4479167,16.6315104 C12.3298605,17.6349877 12.2228737,18.3211787 12.1269531,18.6901042 C12.0753036,18.8967024 11.9424924,19 11.7285156,19 L9.27148438,19 C9.16818525,19 9.07779987,18.9686418 9.00032552,18.9059245 C8.92285118,18.8432072 8.88042538,18.7638894 8.87304688,18.6679687 L8.56315104,16.6315104 C8.2016041,16.5134543 7.86957617,16.3769539 7.56705729,16.2220052 L6.00651042,17.40625 C5.93272533,17.4726566 5.84049535,17.5058594 5.72981771,17.5058594 C5.62651858,17.5058594 5.5342886,17.4652782 5.453125,17.3841146 C4.52343285,16.5429645 3.91471498,15.9231791 3.62695312,15.5247396 C3.57530356,15.4509545 3.54947917,15.3661029 3.54947917,15.2701823 C3.54947917,15.1816402 3.57899276,15.0967886 3.63802083,15.015625 C3.74869847,14.8606763 3.93684763,14.6153446 4.20247396,14.2796224 C4.46810029,13.9439002 4.66731704,13.6838117 4.80013021,13.499349 C4.60091046,13.1304235 4.44965329,12.7651928 4.34635417,12.4036458 L2.32096354,12.1048177 C2.22504292,12.0900607 2.14756974,12.0439457 2.08854167,11.9664714 C2.02951359,11.888997 2,11.8023008 2,11.7063802 L2,9.24934896 C2,9.16080685 2.02951359,9.07595527 2.08854167,8.99479167 C2.14756974,8.91362807 2.21766452,8.86566848 2.29882812,8.85091146 L4.35742188,8.54101562 C4.460721,8.20160421 4.60459977,7.86219788 4.7890625,7.52278646 C4.49392214,7.10221144 4.09917782,6.59310195 3.60481771,5.99544271 C3.53103262,5.9069006 3.49414062,5.81835982 3.49414062,5.72981771 C3.49414062,5.65603262 3.52734342,5.57118104 3.59375,5.47526042 C3.78559124,5.20963409 4.14897736,4.81304517 4.68391927,4.28548177 C5.21886118,3.75791837 5.56749051,3.49414063 5.72981771,3.49414063 C5.82573833,3.49414063 5.92165751,3.53103262 6.01757812,3.60481771 L7.54492188,4.7890625 C7.86957628,4.61935679 8.2052934,4.47916722 8.55208333,4.36848958 C8.67013948,3.36501234 8.77712626,2.67882129 8.87304688,2.30989583 C8.92469644,2.10329758 9.05750761,2 9.27148438,2 L11.7285156,2 C11.8318148,2 11.9222001,2.03135819 11.9996745,2.09407552 C12.0771488,2.15679285 12.1195746,2.23611063 12.1269531,2.33203125 L12.436849,4.36848958 C12.7983959,4.48654573 13.1304238,4.6230461 13.4329427,4.77799479 L15.0045573,3.59375 C15.0709639,3.52734342 15.1595047,3.49414063 15.2701823,3.49414063 C15.3661029,3.49414063 15.4583329,3.53103262 15.546875,3.60481771 C16.4987027,4.48286029 17.1074205,5.11002416 17.3730469,5.48632813 C17.4246964,5.5453562 17.4505208,5.62651858 17.4505208,5.72981771 C17.4505208,5.81835982 17.4210072,5.9032114 17.3619792,5.984375 C17.2513015,6.13932369 17.0631524,6.38465544 16.797526,6.7203776 C16.5318997,7.05609977 16.332683,7.31618831 16.1998698,7.50065104 C16.391711,7.8695765 16.5429682,8.23111802 16.6536458,8.58528646 L18.6790365,8.89518229 C18.7749571,8.90993931 18.8524303,8.9560543 18.9114583,9.03352865 C18.9704864,9.11100299 19,9.19769917 19,9.29361979 Z" stroke="#FFFFFF" fill-rule="nonzero" mask="url(#mask-2)"></path>
            </g>
        </g>
    </g>
</svg>