<?xml version="1.0" encoding="UTF-8"?>
<svg width="12px" height="10px" viewBox="0 0 12 10" version="1.1" xmlns="http://www.w3.org/2000/svg" xmlns:xlink="http://www.w3.org/1999/xlink">
    <!-- Generator: sketchtool 54.1 (76490) - https://sketchapp.com -->
    <title>2428D593-411F-468C-A0FB-33AEFE35122C</title>
    <desc>Created with sketchtool.</desc>
    <g id="Admin" stroke="none" stroke-width="1" fill="none" fill-rule="evenodd">
        <g id="1.-Admin-BORB-Dashboard" transform="translate(-957.000000, -115.000000)" fill="#4F4F4F" fill-rule="nonzero">
            <path d="M961.897959,124.25 C961.897959,124.270833 961.90051,124.322916 961.905612,124.40625 C961.910714,124.489584 961.91199,124.558593 961.909439,124.613281 C961.906888,124.667969 961.899235,124.729166 961.88648,124.796875 C961.873724,124.864584 961.848214,124.915364 961.809949,124.949219 C961.771683,124.983073 961.719388,125 961.653061,125 L959.204082,125 C958.596936,125 958.077808,124.77995 957.646684,124.339844 C957.215559,123.899737 957,123.369795 957,122.75 L957,117.25 C957,116.630205 957.215559,116.100263 957.646684,115.660156 C958.077808,115.22005 958.596936,115 959.204082,115 L961.653061,115 C961.719388,115 961.776785,115.024739 961.825255,115.074219 C961.873725,115.123698 961.897959,115.182291 961.897959,115.25 C961.897959,115.270833 961.90051,115.322916 961.905612,115.40625 C961.910714,115.489584 961.91199,115.558593 961.909439,115.613281 C961.906888,115.667969 961.899235,115.729166 961.88648,115.796875 C961.873724,115.864584 961.848214,115.915364 961.809949,115.949219 C961.771683,115.983073 961.719388,116 961.653061,116 L959.204082,116 C958.867345,116 958.579083,116.122395 958.339286,116.367188 C958.099489,116.61198 957.979592,116.906248 957.979592,117.25 L957.979592,122.75 C957.979592,123.093752 958.099489,123.38802 958.339286,123.632812 C958.579083,123.877605 958.867345,124 959.204082,124 L961.591837,124 C961.607143,124 961.636479,124.002604 961.679847,124.007812 C961.723215,124.013021 961.752551,124.020833 961.767857,124.03125 C961.783163,124.041667 961.803571,124.055989 961.829082,124.074219 C961.854592,124.092448 961.872449,124.115885 961.882653,124.144531 C961.892857,124.173177 961.897959,124.208333 961.897959,124.25 Z M968.854592,119.648438 C968.951531,119.747396 969,119.864583 969,120 C969,120.135417 968.951531,120.252604 968.854592,120.351562 L964.691327,124.601562 C964.594387,124.700521 964.479592,124.75 964.346939,124.75 C964.214285,124.75 964.09949,124.700521 964.002551,124.601562 C963.905612,124.502604 963.857143,124.385417 963.857143,124.25 L963.857143,122 L960.428571,122 C960.295918,122 960.181123,121.950521 960.084184,121.851562 C959.987244,121.752604 959.938776,121.635417 959.938776,121.5 L959.938776,118.5 C959.938776,118.364583 959.987244,118.247396 960.084184,118.148438 C960.181123,118.049479 960.295918,118 960.428571,118 L963.857143,118 L963.857143,115.75 C963.857143,115.614583 963.905612,115.497396 964.002551,115.398438 C964.09949,115.299479 964.214285,115.25 964.346939,115.25 C964.479592,115.25 964.594387,115.299479 964.691327,115.398438 L968.854592,119.648438 Z" id=""></path>
        </g>
    </g>
</svg>