<?xml version="1.0" encoding="UTF-8"?>
<svg width="35px" height="35px" viewBox="0 0 35 35" version="1.1" xmlns="http://www.w3.org/2000/svg" xmlns:xlink="http://www.w3.org/1999/xlink">
    <!-- Generator: sketchtool 55.2 (78181) - https://sketchapp.com -->
    <title>AE07636A-0738-4175-B0FC-809DD0CE3560</title>
    <desc>Created with sketchtool.</desc>
    <g id="Admin" stroke="none" stroke-width="1" fill="none" fill-rule="evenodd">
        <g id="1.-Admin-BORB-Dashboard" transform="translate(-792.000000, -1534.000000)">
            <g id="stamp-paper-issued-icon" transform="translate(792.000000, 1534.000000)">
                <path d="M14.9605556,33.4507639 L1.54923611,33.4507639 L1.54923611,6.08513889 L5.22569444,2.40916667 L5.22569444,5.22569444 L4.13194444,5.22569444 C3.79635475,5.22569444 3.52430556,5.49774364 3.52430556,5.83333333 C3.52430556,6.16892303 3.79635475,6.44097222 4.13194444,6.44097222 L5.83333333,6.44097222 C6.16892303,6.44097222 6.44097222,6.16892303 6.44097222,5.83333333 L6.44097222,1.54972222 L23.6672917,1.54972222 L23.6672917,9.05381944 C23.6672917,9.38940914 23.9393409,9.66145833 24.2749306,9.66145833 C24.6105202,9.66145833 24.8825694,9.38940914 24.8825694,9.05381944 L24.8825694,0.942083333 C24.8825694,0.606493642 24.6105202,0.334444444 24.2749306,0.334444444 L5.83333333,0.334444444 C5.67217659,0.334444444 5.51761888,0.39845885 5.40361111,0.512361111 L0.512361111,5.40361111 C0.398413606,5.51758866 0.334444434,5.67216598 0.334444434,5.83333333 L0.334444434,34.0584028 C0.334444434,34.3939925 0.606493642,34.6660417 0.942083333,34.6660417 L14.9605556,34.6660417 C15.2961452,34.6660417 15.5681944,34.3939925 15.5681944,34.0584028 C15.5681944,33.7228131 15.2961452,33.4507639 14.9605556,33.4507639 Z" id="Path" fill="#004545" fill-rule="nonzero"></path>
                <path d="M16.5763889,10.8971528 C16.9119786,10.8971528 17.1840278,10.6251036 17.1840278,10.2895139 C17.1840278,9.9539242 16.9119786,9.681875 16.5763889,9.681875 L8.63819444,9.681875 C8.30260475,9.681875 8.03055556,9.9539242 8.03055556,10.2895139 C8.03055556,10.6251036 8.30260475,10.8971528 8.63819444,10.8971528 L16.5763889,10.8971528 Z" id="Path" fill="#004545" fill-rule="nonzero"></path>
                <path d="M19.2922917,13.9756944 L5.92423611,13.9756944 C5.58864642,13.9756944 5.31659722,14.2477436 5.31659722,14.5833333 C5.31659722,14.918923 5.58864642,15.1909722 5.92423611,15.1909722 L19.2922917,15.1909722 C19.6278814,15.1909722 19.8999306,14.918923 19.8999306,14.5833333 C19.8999306,14.2477436 19.6278814,13.9756944 19.2922917,13.9756944 L19.2922917,13.9756944 Z" id="Path" fill="#004545" fill-rule="nonzero"></path>
                <path d="M19.2922917,16.8923611 L5.92423611,16.8923611 C5.58864642,16.8923611 5.31659722,17.1644103 5.31659722,17.5 C5.31659722,17.8355897 5.58864642,18.1076389 5.92423611,18.1076389 L19.2922917,18.1076389 C19.6278814,18.1076389 19.8999306,17.8355897 19.8999306,17.5 C19.8999306,17.1644103 19.6278814,16.8923611 19.2922917,16.8923611 Z" id="Path" fill="#004545" fill-rule="nonzero"></path>
                <path d="M19.2922917,19.8090278 L5.92423611,19.8090278 C5.58864642,19.8090278 5.31659722,20.081077 5.31659722,20.4166667 C5.31659722,20.7522564 5.58864642,21.0243056 5.92423611,21.0243056 L19.2922917,21.0243056 C19.6278814,21.0243056 19.8999306,20.7522564 19.8999306,20.4166667 C19.8999306,20.081077 19.6278814,19.8090278 19.2922917,19.8090278 Z" id="Path" fill="#004545" fill-rule="nonzero"></path>
                <path d="M19.8999306,23.3333333 C19.8999306,22.9977436 19.6278814,22.7256944 19.2922917,22.7256944 L5.92423611,22.7256944 C5.58864642,22.7256944 5.31659722,22.9977436 5.31659722,23.3333333 C5.31659722,23.668923 5.58864642,23.9409722 5.92423611,23.9409722 L19.2922917,23.9409722 C19.6278814,23.9409722 19.8999306,23.668923 19.8999306,23.3333333 Z" id="Path" fill="#004545" fill-rule="nonzero"></path>
                <path d="M11.19125,27.4560417 C10.2463094,27.8972621 9.35969131,28.4538884 8.55166667,29.1131944 C8.52484236,28.7458331 8.40797653,28.390728 8.21138889,28.0792361 C8.03591401,27.8206291 7.74605968,27.6630208 7.43361111,27.6563194 C6.61159722,27.6446528 5.71229167,28.6747222 5.36326389,29.1219444 C5.17870066,29.3866917 5.23329897,29.7495333 5.48760046,29.9482427 C5.74190194,30.1469521 6.10717883,30.112198 6.31944444,29.8690972 C6.5923217,29.510896 6.91704372,29.1953488 7.28291667,28.9328472 C7.32090109,29.0889869 7.34722364,29.2477346 7.36166667,29.4077778 C7.41027778,29.82 7.47006944,30.3313889 7.95909722,30.5258333 C8.05447272,30.5640579 8.15627757,30.5836806 8.25902778,30.5836806 C8.64350876,30.5385381 9.0014073,30.364643 9.27451389,30.0902778 C10.0110176,29.4850918 10.8193679,28.9730767 11.68125,28.5658333 C11.9883817,28.4305236 12.1276709,28.0718539 11.9923611,27.7647222 C11.8570513,27.4575905 11.4983817,27.3183013 11.19125,27.4536111 L11.19125,27.4560417 Z" id="Path" fill="#004545" fill-rule="nonzero"></path>
                <polygon id="Path-4" fill="#D5EBEB" points="22.9685883 24.5 27.4670489 24.5 27.4670489 21.8631818 28.6105585 18.1076389 29.186906 15.5 27.9427323 13.5954719 26.2145139 13.0175959 24.8825694 12.5548346 22.9685883 13.0175959 22.0255699 14.5833333 21.6440713 16.3388773 21.6440713 17.5 22.0255699 19.1026874 22.9685883 21.8631818"></polygon>
                <path d="M27.4297917,27.1852778 L27.4297917,25.3934722 L27.9805556,25.3934722 C28.3161452,25.3934722 28.5881944,25.121423 28.5881944,24.7858333 L28.5881944,23.9419444 C28.5483696,21.8707389 28.8758867,19.8088626 29.5555556,17.8519444 C29.7356539,17.3586776 29.8274729,16.8375469 29.8268056,16.3124306 C29.828744,14.5347577 28.7858436,12.9219187 27.1639106,12.1942802 C25.5419777,11.4666417 23.6438767,11.760076 22.3173853,12.9435222 C20.9908938,14.1269684 20.4837085,15.9794408 21.0223611,17.6735417 C21.6652134,19.5604519 22.0113916,21.5356847 22.0485417,23.52875 L22.0485417,24.7838889 C22.0485417,24.9450447 22.1125606,25.0996001 22.226515,25.2135545 C22.3404694,25.3275089 22.4950247,25.3915278 22.6561806,25.3915278 L23.2069444,25.3915278 L23.2069444,27.1838194 L16.5763889,27.1838194 C16.2407992,27.1838194 15.96875,27.4558686 15.96875,27.7914583 L15.96875,31.7386806 C15.96875,32.0742702 16.2407992,32.3463194 16.5763889,32.3463194 L17.7542361,32.3463194 L17.7542361,34.0569444 C17.7542361,34.3925341 18.0262853,34.6645833 18.361875,34.6645833 L32.2729167,34.6645833 C32.6085064,34.6645833 32.8805556,34.3925341 32.8805556,34.0569444 C32.8805556,33.7213548 32.6085064,33.4493056 32.2729167,33.4493056 L18.9714583,33.4493056 L18.9714583,32.3477778 L34.0579167,32.3477778 C34.3935064,32.3477778 34.6655556,32.0757286 34.6655556,31.7401389 L34.6655556,27.7929167 C34.6655556,27.457327 34.3935064,27.1852778 34.0579167,27.1852778 L27.4297917,27.1852778 Z M22.1797917,17.3055556 C21.7874389,16.0686193 22.1582455,14.7165943 23.1267232,13.8528797 C24.0952009,12.9891651 25.4806806,12.7748865 26.6648325,13.305675 C27.8489843,13.8364634 28.6109053,15.0133005 28.6105585,16.3109722 C28.6110718,16.6939504 28.5442684,17.0740387 28.4131944,17.4338889 C27.6843547,19.5241625 27.3321376,21.7271655 27.3729167,23.9404861 L27.3729167,24.1767361 L23.2628472,24.1767361 L23.2628472,23.5302083 C23.2262222,21.4117697 22.8608505,19.3118663 22.1797917,17.3055556 Z M24.4222222,25.3934722 L26.2145139,25.3934722 L26.2145139,27.1857639 L24.4222222,27.1857639 L24.4222222,25.3934722 Z M33.4502778,31.1325 L17.1859722,31.1325 L17.1859722,28.4005556 L33.4502778,28.4005556 L33.4502778,31.1325 Z" id="Shape" fill="#004545" fill-rule="nonzero"></path>
            </g>
        </g>
    </g>
</svg>