<?xml version="1.0" encoding="UTF-8"?>
<svg width="14px" height="14px" viewBox="0 0 14 14" version="1.1" xmlns="http://www.w3.org/2000/svg" xmlns:xlink="http://www.w3.org/1999/xlink">
    <!-- Generator: sketchtool 55.1 (78136) - https://sketchapp.com -->
    <title>88910CB4-D20A-4D57-80F9-50C0F1147958</title>
    <desc>Created with sketchtool.</desc>
    <g id="Index" stroke="none" stroke-width="1" fill="none" fill-rule="evenodd">
        <g id="10.-Complaint-Validation" transform="translate(-179.000000, -177.000000)" fill="#00C48C" fill-rule="nonzero">
            <path d="M190.703125,182.523437 C190.703125,182.353298 190.648438,182.213542 190.539062,182.104167 L189.709635,181.283854 C189.594183,181.168402 189.457466,181.110677 189.299479,181.110677 C189.141492,181.110677 189.004775,181.168402 188.889323,181.283854 L185.170573,184.99349 L183.110677,182.933594 C182.995225,182.818142 182.858508,182.760417 182.700521,182.760417 C182.542534,182.760417 182.405817,182.818142 182.290365,182.933594 L181.460938,183.753906 C181.351562,183.863282 181.296875,184.003037 181.296875,184.173177 C181.296875,184.33724 181.351562,184.473958 181.460938,184.583333 L184.760417,187.882812 C184.875869,187.998264 185.012586,188.05599 185.170573,188.05599 C185.334636,188.05599 185.474392,187.998264 185.589844,187.882812 L190.539062,182.933594 C190.648438,182.824218 190.703125,182.687501 190.703125,182.523437 Z M192.061198,180.490885 C192.687069,181.560335 193,182.730028 193,184 C193,185.269972 192.687069,186.441184 192.061198,187.513672 C191.435327,188.58616 190.58616,189.435327 189.513672,190.061198 C188.441184,190.687069 187.269972,191 186,191 C184.730028,191 183.558816,190.687069 182.486328,190.061198 C181.41384,189.435327 180.564673,188.58616 179.938802,187.513672 C179.312931,186.441184 179,185.269972 179,184 C179,182.730028 179.312931,181.558816 179.938802,180.486328 C180.564673,179.41384 181.41384,178.564673 182.486328,177.938802 C183.558816,177.312931 184.730028,177 186,177 C187.269972,177 188.441184,177.312931 189.513672,177.938802 C190.58616,178.564673 191.435327,179.415359 192.061198,180.490885 Z" id="ï˜"></path>
        </g>
    </g>
</svg>