<?xml version="1.0" encoding="UTF-8"?>
<svg width="16px" height="20px" viewBox="0 0 16 20" version="1.1" xmlns="http://www.w3.org/2000/svg" xmlns:xlink="http://www.w3.org/1999/xlink">
    <!-- Generator: sketchtool 54.1 (76490) - https://sketchapp.com -->
    <title>6598FE00-76E2-4ACC-9ACA-90786A9DCA2C</title>
    <desc>Created with sketchtool.</desc>
    <g id="Admin" stroke="none" stroke-width="1" fill="none" fill-rule="evenodd">
        <g id="3.-Admin-Complaint-Detail-for-Reviewer" transform="translate(-727.000000, -555.000000)" fill="#E4A318" fill-rule="nonzero">
            <g id="txt-file-icon" transform="translate(727.000000, 555.000000)">
                <path d="M13,8.33333333 L4.66666667,8.33333333 C4.48266667,8.33333333 4.33333333,8.48233333 4.33333333,8.66666667 C4.33333333,8.851 4.48266667,9 4.66666667,9 L13,9 C13.184,9 13.3333333,8.851 13.3333333,8.66666667 C13.3333333,8.48233333 13.184,8.33333333 13,8.33333333 Z" id="Path"></path>
                <path d="M4.66666667,6.33333333 L8,6.33333333 C8.184,6.33333333 8.33333333,6.18433333 8.33333333,6 C8.33333333,5.81566667 8.184,5.66666667 8,5.66666667 L4.66666667,5.66666667 C4.48266667,5.66666667 4.33333333,5.81566667 4.33333333,6 C4.33333333,6.18433333 4.48266667,6.33333333 4.66666667,6.33333333 Z" id="Path"></path>
                <path d="M13,11 L4.66666667,11 C4.48266667,11 4.33333333,11.149 4.33333333,11.3333333 C4.33333333,11.5176667 4.48266667,11.6666667 4.66666667,11.6666667 L13,11.6666667 C13.184,11.6666667 13.3333333,11.5176667 13.3333333,11.3333333 C13.3333333,11.149 13.184,11 13,11 Z" id="Path"></path>
                <path d="M13,13.6666667 L4.66666667,13.6666667 C4.48266667,13.6666667 4.33333333,13.8156667 4.33333333,14 C4.33333333,14.1843333 4.48266667,14.3333333 4.66666667,14.3333333 L13,14.3333333 C13.184,14.3333333 13.3333333,14.1843333 13.3333333,14 C13.3333333,13.8156667 13.184,13.6666667 13,13.6666667 Z" id="Path"></path>
                <path d="M13,16.3333333 L4.66666667,16.3333333 C4.48266667,16.3333333 4.33333333,16.4823333 4.33333333,16.6666667 C4.33333333,16.851 4.48266667,17 4.66666667,17 L13,17 C13.184,17 13.3333333,16.851 13.3333333,16.6666667 C13.3333333,16.4823333 13.184,16.3333333 13,16.3333333 Z" id="Path"></path>
                <path d="M14.3333333,4.862 L14.3333333,0 L0,0 L0,18.3333333 L1.66666667,18.3333333 L1.66666667,20 L16,20 L16,6.52866667 L14.3333333,4.862 Z M11.3333333,2.80466667 L14.3333333,5.80466667 L14.862,6.33333333 L11.3333333,6.33333333 L11.3333333,2.80466667 Z M0.666666667,17.6666667 L0.666666667,0.666666667 L13.6666667,0.666666667 L13.6666667,4.19533333 L11.138,1.66666667 L1.66666667,1.66666667 L1.66666667,17.6666667 L0.666666667,17.6666667 Z M2.33333333,19.3333333 L2.33333333,18.3333333 L2.33333333,2.33333333 L10.6666667,2.33333333 L10.6666667,7 L15.3333333,7 L15.3333333,19.3333333 L2.33333333,19.3333333 Z" id="Shape"></path>
            </g>
        </g>
    </g>
</svg>