<?xml version="1.0" encoding="UTF-8"?>
<svg width="19px" height="19px" viewBox="0 0 19 19" version="1.1" xmlns="http://www.w3.org/2000/svg" xmlns:xlink="http://www.w3.org/1999/xlink">
    <!-- Generator: Sketch 54.1 (76490) - https://sketchapp.com -->
    <title>user-managment-icon</title>
    <desc>Created with Sketch.</desc>
    <defs>
        <rect id="path-1" x="0" y="0" width="20" height="20"></rect>
    </defs>
    <g id="Symbols" stroke="none" stroke-width="1" fill="none" fill-rule="evenodd">
        <g id="admin\leftnav" transform="translate(-1.000000, -102.000000)">
            <g id="user-managment-icon" transform="translate(0.000000, 101.000000)">
                <mask id="mask-2" fill="white">
                    <use xlink:href="#path-1"></use>
                </mask>
                <g id="Mask"></g>
                <path d="M7.25052083,10.5 C6.29426605,10.5316222 5.51215582,10.93638 4.90416667,11.7142857 L3.71770833,11.7142857 C3.23367814,11.7142857 2.82639054,11.5862178 2.49583333,11.3300781 C2.16527613,11.0739385 2,10.6992212 2,10.2059152 C2,7.97338914 2.36596856,6.85714286 3.09791667,6.85714286 C3.13333351,6.85714286 3.26171764,6.92354844 3.48307292,7.05636161 C3.70442819,7.18917477 3.99218573,7.32356703 4.34635417,7.45954241 C4.7005226,7.59551779 5.05173437,7.66350446 5.4,7.66350446 C5.79548809,7.66350446 6.18801889,7.59077454 6.57760417,7.4453125 C6.54809013,7.67931665 6.53333333,7.88801992 6.53333333,8.07142857 C6.53333333,8.95052523 6.77239344,9.76004094 7.25052083,10.5 Z M16.7333333,16.5429688 C16.7333333,17.3019011 16.5178841,17.9011325 16.0869792,18.3406808 C15.6560742,18.7802291 15.0835105,19 14.3692708,19 L6.63072917,19 C5.91648948,19 5.34392577,18.7802291 4.91302083,18.3406808 C4.4821159,17.9011325 4.26666667,17.3019011 4.26666667,16.5429688 C4.26666667,16.2077736 4.27699642,15.8804889 4.29765625,15.5611049 C4.31831608,15.2417209 4.35963511,14.8970443 4.42161458,14.5270647 C4.48359406,14.1570852 4.56180508,13.8139897 4.65625,13.4977679 C4.75069492,13.181546 4.87760337,12.8732344 5.03697917,12.5728237 C5.19635496,12.2724129 5.37933924,12.0162771 5.5859375,11.8044085 C5.79253576,11.5925399 6.04487698,11.4233637 6.34296875,11.296875 C6.64106052,11.1703863 6.97013709,11.1071429 7.33020833,11.1071429 C7.38923641,11.1071429 7.51614486,11.1751295 7.7109375,11.3111049 C7.90573014,11.4470803 8.12117937,11.5988645 8.35729167,11.7664621 C8.59340396,11.9340596 8.90919941,12.0858438 9.3046875,12.2218192 C9.70017559,12.3577946 10.0986091,12.4257812 10.5,12.4257812 C10.9013909,12.4257812 11.2998244,12.3577946 11.6953125,12.2218192 C12.0908006,12.0858438 12.406596,11.9340596 12.6427083,11.7664621 C12.8788206,11.5988645 13.0942699,11.4470803 13.2890625,11.3111049 C13.4838551,11.1751295 13.6107636,11.1071429 13.6697917,11.1071429 C14.0298629,11.1071429 14.3589395,11.1703863 14.6570312,11.296875 C14.955123,11.4233637 15.2074642,11.5925399 15.4140625,11.8044085 C15.6206608,12.0162771 15.803645,12.2724129 15.9630208,12.5728237 C16.1223966,12.8732344 16.2493051,13.181546 16.34375,13.4977679 C16.4381949,13.8139897 16.5164059,14.1570852 16.5783854,14.5270647 C16.6403649,14.8970443 16.6816839,15.2417209 16.7023438,15.5611049 C16.7230036,15.8804889 16.7333333,16.2077736 16.7333333,16.5429688 Z M7.00260417,2.71149554 C7.44531471,3.18582826 7.66666667,3.75818117 7.66666667,4.42857143 C7.66666667,5.09896169 7.44531471,5.67131459 7.00260417,6.14564732 C6.55989362,6.61998005 6.02569757,6.85714286 5.4,6.85714286 C4.77430243,6.85714286 4.24010638,6.61998005 3.79739583,6.14564732 C3.35468529,5.67131459 3.13333333,5.09896169 3.13333333,4.42857143 C3.13333333,3.75818117 3.35468529,3.18582826 3.79739583,2.71149554 C4.24010638,2.23716281 4.77430243,2 5.4,2 C6.02569757,2 6.55989362,2.23716281 7.00260417,2.71149554 Z M12.8994792,6.07198661 C13.5664964,6.78032348 13.9,7.63727176 13.9,8.64285714 C13.9,9.64844253 13.5679721,10.5069719 12.9039063,11.218471 C12.2398404,11.9299701 11.4385464,12.2857143 10.5,12.2857143 C9.56145364,12.2857143 8.76015957,11.9299701 8.09609375,11.218471 C7.43202793,10.5069719 7.1,9.64844253 7.1,8.64285714 C7.1,7.63727176 7.43202793,6.7787424 8.09609375,6.0672433 C8.76015957,5.35574421 9.56145364,5 10.5,5 C11.4385464,5 12.2383647,5.3573253 12.8994792,6.07198661 Z M19,10.2059152 C19,10.6992212 18.8347239,11.0739385 18.5041667,11.3300781 C18.1736095,11.5862178 17.7663219,11.7142857 17.2822917,11.7142857 L16.0958333,11.7142857 C15.4878442,10.93638 14.7057339,10.5316222 13.7494792,10.5 C14.2276066,9.76004094 14.4666667,8.95052523 14.4666667,8.07142857 C14.4666667,7.88801992 14.4519099,7.67931665 14.4223958,7.4453125 C14.8119811,7.59077454 15.2045119,7.66350446 15.6,7.66350446 C15.9482656,7.66350446 16.2994774,7.59551779 16.6536458,7.45954241 C17.0078143,7.32356703 17.2955718,7.18917477 17.5169271,7.05636161 C17.7382824,6.92354844 17.8666665,6.85714286 17.9020833,6.85714286 C18.6340314,6.85714286 19,7.97338914 19,10.2059152 Z M17.2026042,2.71149554 C17.6453147,3.18582826 17.8666667,3.75818117 17.8666667,4.42857143 C17.8666667,5.09896169 17.6453147,5.67131459 17.2026042,6.14564732 C16.7598936,6.61998005 16.2256976,6.85714286 15.6,6.85714286 C14.9743024,6.85714286 14.4401064,6.61998005 13.9973958,6.14564732 C13.5546853,5.67131459 13.3333333,5.09896169 13.3333333,4.42857143 C13.3333333,3.75818117 13.5546853,3.18582826 13.9973958,2.71149554 C14.4401064,2.23716281 14.9743024,2 15.6,2 C16.2256976,2 16.7598936,2.23716281 17.2026042,2.71149554 Z" stroke="#FFFFFF" fill-rule="nonzero" mask="url(#mask-2)"></path>
            </g>
        </g>
    </g>
</svg>