<?xml version="1.0" encoding="UTF-8"?>
<svg width="16px" height="10px" viewBox="0 0 16 10" version="1.1" xmlns="http://www.w3.org/2000/svg" xmlns:xlink="http://www.w3.org/1999/xlink">
    <!-- Generator: Sketch 54.1 (76490) - https://sketchapp.com -->
    <title>view-icon-news</title>
    <desc>Created with Sketch.</desc>
    <defs>
        <rect id="path-1" x="0" y="0" width="18" height="18"></rect>
    </defs>
    <g id="Admin" stroke="none" stroke-width="1" fill="none" fill-rule="evenodd">
        <g id="25.-CMS-News" transform="translate(-900.000000, -286.000000)">
            <g id="view-icon-news" transform="translate(899.000000, 282.000000)">
                <mask id="mask-2" fill="white">
                    <use xlink:href="#path-1"></use>
                </mask>
                <g id="Mask"></g>
                <path d="M16,9.08489388 C15.0763843,7.70993903 13.9188438,6.68165135 12.5273438,6 C12.8980053,6.60591231 13.0833333,7.26133647 13.0833333,7.96629213 C13.0833333,9.04411692 12.6838148,9.96608023 11.8847656,10.7322097 C11.0857165,11.4983392 10.1241376,11.8813983 9,11.8813983 C7.87586243,11.8813983 6.91428351,11.4983392 6.11523438,10.7322097 C5.31618524,9.96608023 4.91666667,9.04411692 4.91666667,7.96629213 C4.91666667,7.26133647 5.10199467,6.60591231 5.47265625,6 C4.08115624,6.68165135 2.92361573,7.70993903 2,9.08489388 C2.80816376,10.2792403 3.82139148,11.2303335 5.03971354,11.9382022 C6.25803561,12.646071 7.57811789,13 9,13 C10.4218821,13 11.7419644,12.646071 12.9602865,11.9382022 C14.1786085,11.2303335 15.1918362,10.2792403 16,9.08489388 Z M8.88068182,6.69886364 C8.96022767,6.61931778 9,6.52272784 9,6.40909091 C9,6.29545398 8.96022767,6.19886403 8.88068182,6.11931818 C8.80113597,6.03977233 8.70454602,6 8.59090909,6 C7.88067827,6 7.27130936,6.25425882 6.76278409,6.76278409 C6.25425882,7.27130936 6,7.88067827 6,8.59090909 C6,8.70454602 6.03977233,8.80113597 6.11931818,8.88068182 C6.19886403,8.96022767 6.29545398,9 6.40909091,9 C6.52272784,9 6.61931778,8.96022767 6.69886364,8.88068182 C6.77840949,8.80113597 6.81818182,8.70454602 6.81818182,8.59090909 C6.81818182,8.10227028 6.99147554,7.68466082 7.33806818,7.33806818 C7.68466082,6.99147554 8.10227028,6.81818182 8.59090909,6.81818182 C8.70454602,6.81818182 8.80113597,6.77840949 8.88068182,6.69886364 Z M16.8214286,8.40104167 C16.9404768,8.60358898 17,8.80323976 17,9 C17,9.19676024 16.9404768,9.39641102 16.8214286,9.59895833 C15.9880911,10.9299835 14.8675666,11.9962344 13.4598214,12.7977431 C12.0520763,13.5992517 10.565484,14 9,14 C7.43451598,14 5.94792371,13.5978049 4.54017857,12.7934028 C3.13243344,11.9890006 2.01190893,10.9241964 1.17857143,9.59895833 C1.05952321,9.39641102 1,9.19676024 1,9 C1,8.80323976 1.05952321,8.60358898 1.17857143,8.40104167 C2.01190893,7.07580356 3.13243344,6.01099939 4.54017857,5.20659722 C5.94792371,4.40219505 7.43451598,4 9,4 C10.565484,4 12.0520763,4.40219505 13.4598214,5.20659722 C14.8675666,6.01099939 15.9880911,7.07580356 16.8214286,8.40104167 Z" fill="#01923F" fill-rule="nonzero" mask="url(#mask-2)"></path>
            </g>
        </g>
    </g>
</svg>