<?xml version="1.0" encoding="UTF-8"?>
<svg width="16px" height="14px" viewBox="0 0 16 14" version="1.1" xmlns="http://www.w3.org/2000/svg" xmlns:xlink="http://www.w3.org/1999/xlink">
    <!-- Generator: sketchtool 55.1 (78136) - https://sketchapp.com -->
    <title>11442DDF-B1BB-4EE8-8D84-68D31AB41FE1</title>
    <desc>Created with sketchtool.</desc>
    <g id="Index" stroke="none" stroke-width="1" fill="none" fill-rule="evenodd">
        <g id="10.-Complaint-Validation" transform="translate(-178.000000, -220.000000)" fill="#EBBB49" fill-rule="nonzero">
            <path d="M187.141565,231.56851 L187.141565,229.969952 C187.141565,229.891426 187.113324,229.825521 187.05684,229.772236 C187.000356,229.71895 186.933468,229.692308 186.856174,229.692308 L185.143826,229.692308 C185.066532,229.692308 184.999644,229.71895 184.94316,229.772236 C184.886676,229.825521 184.858435,229.891426 184.858435,229.969952 L184.858435,231.56851 C184.858435,231.647036 184.886676,231.71294 184.94316,231.766226 C184.999644,231.819511 185.066532,231.846154 185.143826,231.846154 L186.856174,231.846154 C186.933468,231.846154 187.000356,231.819511 187.05684,231.766226 C187.113324,231.71294 187.141565,231.647036 187.141565,231.56851 Z M187.123728,228.421875 L187.284261,224.560096 C187.284261,224.492788 187.254533,224.439503 187.195076,224.40024 C187.117782,224.338541 187.046435,224.307692 186.981033,224.307692 L185.018967,224.307692 C184.953565,224.307692 184.882218,224.338541 184.804924,224.40024 C184.745467,224.439503 184.715739,224.498397 184.715739,224.576923 L184.867353,228.421875 C184.867353,228.477965 184.897081,228.524239 184.956538,228.560697 C185.015995,228.597156 185.087342,228.615385 185.170581,228.615385 L186.8205,228.615385 C186.90374,228.615385 186.9736,228.597156 187.030084,228.560697 C187.086568,228.524239 187.117783,228.477965 187.123728,228.421875 Z M186.99887,220.563702 L193.848261,232.409856 C194.05636,232.763223 194.050414,233.116585 193.830424,233.469952 C193.729348,233.632613 193.591113,233.761618 193.415715,233.856971 C193.240317,233.952324 193.051545,234 192.849392,234 L179.150608,234 C178.948455,234 178.759683,233.952324 178.584285,233.856971 C178.408887,233.761618 178.270652,233.632613 178.169576,233.469952 C177.949586,233.116585 177.94364,232.763223 178.151739,232.409856 L185.00113,220.563702 C185.102207,220.389823 185.241928,220.252404 185.420299,220.151442 C185.598669,220.05048 185.791901,220 186,220 C186.208099,220 186.401331,220.05048 186.579701,220.151442 C186.758072,220.252404 186.897793,220.389823 186.99887,220.563702 Z" id="ï±"></path>
        </g>
    </g>
</svg>